<svg xmlns="http://www.w3.org/2000/svg" viewBox="0 0 438.63 329.79"><title>contact</title><g style="isolation:isolate"><g id="BACKGROUND"><path d="M77.35,312.41S22.73,273.51,7,207.31s8.27-146.49,53.79-187S188.25,7,224.66,41l36.42,33.93s34.76,19,80.27,17.38,86.07,60.41,96.83,109.24-14.9,113.38-14.9,113.38Z" transform="translate(-2.19 0)" fill="#ddecff"/><path d="M52.53,322.34s-38.07-20.69-48-68.69,33.1-91.86,37.24-115.86-5-53.8,33.1-77S180.8,45.93,206.46,40.13,261.91-5.38,313.22,3.72s101,36.41,103.44,96-16.55,61.24,2.49,93.52,26.48,54.62,17.38,87.72-28.14,42.21-28.14,42.21Z" transform="translate(-2.19 0)" fill="#ddecff" style="mix-blend-mode:multiply"/><path d="M132,311.58c-2.36-2.48-37.1-72,1.58-135.72S269.37,119.58,308,144.41s57.63,57.1,61.58,91-22.11,86.9-22.11,86.9Z" transform="translate(-2.19 0)" fill="#ddecff" style="mix-blend-mode:multiply"/></g><g id="OBJECTS"><rect x="352.54" y="162.27" width="54.62" height="32.28" rx="5" ry="5" fill="#60a8ff"/><polygon points="379.85 207.17 386.93 190.41 372.78 190.41 379.85 207.17" fill="#60a8ff"/><polygon points="379.69 172.87 392.46 172.87 392.46 174.74 398.72 171.13 392.46 167.51 392.46 169.38 379.69 169.38 379.69 172.87" fill="#223a7a"/><polygon points="398.72 180.21 385.95 180.21 385.95 178.34 379.69 181.95 385.95 185.56 385.95 183.69 398.72 183.69 398.72 180.21" fill="#fff"/><path d="M374,183.5l-.6.22a19.35,19.35,0,0,1-2.88-4.52,16.1,16.1,0,0,1-1-5.24l.44-.18-2.7-6.47A5.33,5.33,0,0,0,366,168.8c-1.53,2.58-1.38,6.55.16,10.42s3.18,7.33,6.18,9.5a6,6,0,0,0,4.47,1.32Z" transform="translate(-2.19 0)" fill="#223a7a"/><path d="M376,182.74l-.84.3,2.77,6.62a4.93,4.93,0,0,0,.83-.36,1.61,1.61,0,0,0,.73-2L378,183.65A1.61,1.61,0,0,0,376,182.74Z" transform="translate(-2.19 0)" fill="#223a7a"/><path d="M369.38,166.18a6.13,6.13,0,0,0-1.08.51l2.76,6.6.93-.39a1.62,1.62,0,0,0,.88-2.07l-1.45-3.72A1.61,1.61,0,0,0,369.38,166.18Z" transform="translate(-2.19 0)" fill="#223a7a"/><path d="M119.11,300.41V225.93s-.83-20.07,9.73-25.87,55-2.69,55-2.69v103Z" transform="translate(-2.19 0)" fill="#1c83ff"/><path d="M197.77,127.65s-2.69,22.55-3.73,24.41l-1,1.87-5.17,3.51s9.93,14.07,22.13,16.35,11.18-5,11.18-5l-1.87-3.93,2.49-21.52S199.63,133.24,197.77,127.65Z" transform="translate(-2.19 0)" fill="#ff9d8c"/><path d="M181.42,159.31l8.07-3.52s5.17,8.48,17.17,13.45,12.21,2.07,12.83,0a7.88,7.88,0,0,0-.21-4.35l.89-7.24,4.8,1.6L241.63,294l-42.83,2.07Z" transform="translate(-2.19 0)" fill="#fff"/><path d="M220.94,157.79s2.9,6.69,5.59,22.41,5.17,42.21,5.79,60.42,1,59.79,1,59.79h54c.62,0,4.35-20.48,4.35-20.48s-23.59-20.21-24.83-23.52c-.83-2.21-.41-43.1-3.93-61.93s-8.07-22.62-17.59-27.31C235.52,162.32,220.94,157.79,220.94,157.79Z" transform="translate(-2.19 0)" fill="#223a7a"/><path d="M249.08,276.7a.5.5,0,0,1-.5-.5c0-1.48-.27-22.49-.52-42.82s-.52-41.35-.52-42.83a.5.5,0,0,1,.5-.5.5.5,0,0,1,.5.5c0,1.48.27,22.49.52,42.82s.52,41.35.52,42.83A.5.5,0,0,1,249.08,276.7Z" transform="translate(-2.19 0)" fill="#8593b6"/><path d="M141.49,271.65l-.41,28.76H204s2.69-24.42,1.66-26.69S141.49,271.65,141.49,271.65Z" transform="translate(-2.19 0)" fill="#223a7a"/><g style="mix-blend-mode:multiply"><path d="M211.49,151.44a32.69,32.69,0,0,0,8.8,4.73l1.48-12.8s-16.63-7.61-22.27-13.28C200.68,136.53,203.58,145.06,211.49,151.44Z" transform="translate(-2.19 0)" fill="#8e9bbb"/></g><path d="M241.22,85.65a44.86,44.86,0,0,1,5.17,16.55c.83,9.11,0,32.48-7.45,42.42s-23,7-30,1c-6.46-5.51-12.83-11.59-14.48-23.59s3.51-34.75,18.2-39.51S241.22,85.65,241.22,85.65Z" transform="translate(-2.19 0)" fill="#ff9d8c"/><path d="M259.88,287.4s-.73,0-1.84,0h-.85l-3.68-.1-.88,0c-1.3,0-2.41.13-3.45.07h0c-.22,0-.54,0-.8,0a1.94,1.94,0,0,1-.33,0,4.86,4.86,0,0,1-1.37-.54,93,93,0,0,0-21.46-2.86c-9.24,0-17.53.67-18.88-.46S204.13,270.72,212,270l9.7,3.68S243.87,271,252,277,259.88,287.4,259.88,287.4Z" transform="translate(-2.19 0)" fill="#ff9d8c"/><path d="M249.15,287.3c-.22,0-.54,0-.8,0a9.39,9.39,0,0,0-.85-1.14c-2.5-2.55-8.54-4.2-10.73-4.73a.38.38,0,0,1-.28-.45.38.38,0,0,1,.46-.28c3.19.77,10,2.74,11.88,6C248.89,286.79,249.05,287.1,249.15,287.3Z" transform="translate(-2.19 0)" fill="#223a7a"/><path d="M253.51,287.26c-.29,0-.59,0-.88,0-2.73-5-7.19-6.41-12.71-8.18l-.33-.11a.39.39,0,0,1-.24-.48.39.39,0,0,1,.48-.24l.32.11C246,280.21,250.68,281.71,253.51,287.26Z" transform="translate(-2.19 0)" fill="#223a7a"/><path d="M258,287.37h-.85a21.76,21.76,0,0,0-14.38-10.66.37.37,0,1,1,.12-.74C250.4,277.36,256.43,283.46,258,287.37Z" transform="translate(-2.19 0)" fill="#223a7a"/><path d="M199.42,111.82a19.37,19.37,0,0,0,7.76-8.27A23.5,23.5,0,0,0,210,92s5.8-.93,14.49,1.66,19,6.1,27.72,1.13,8.69-12.93,4.45-16.24c-4.75-3.71-14.17-1.45-14.17-1.45s3.62-3.51,1.65-5.58-9.1.62-9.1.62-8.69-6.93-25.14-6.11-24.31,12.32-25.24,25.14,3.72,25.66,3.72,25.66Z" transform="translate(-2.19 0)" fill="#223a7a"/><g style="mix-blend-mode:multiply"><path d="M232.79,114.93c-.93,2.3-.91,5-1.14,7.41-.18,1.89-.53,4.11,1.21,5.39.83.61,4.75,2.26,2.73,3.6a5.3,5.3,0,0,1-2.93.33l-1.82-.1c-.65-.05-1.29-.25-1.93-.25a.38.38,0,0,0-.19.7,8.21,8.21,0,0,0,3.79.9,5.74,5.74,0,0,0,3.14-.55,2.28,2.28,0,0,0,1.44-1.61,2.59,2.59,0,0,0-1.24-2.22c-.78-.58-1.74-.85-2.53-1.41-1.1-.79-1-2.11-.93-3.33.18-2.94.86-5.83,1.12-8.76,0-.45-.58-.45-.72-.1Z" transform="translate(-2.19 0)" fill="#8e9bbb"/></g><path d="M241.25,121.81c-.31,1.75-1.58,3-2.83,2.76s-2-1.82-1.72-3.56,1.58-3,2.83-2.76S241.56,120.07,241.25,121.81Z" transform="translate(-2.19 0)" fill="#223a7a"/><path d="M225.42,120.43c-.28,1.88-1.61,3.24-3,3s-2.23-1.89-2-3.77,1.61-3.24,3-3S225.7,118.55,225.42,120.43Z" transform="translate(-2.19 0)" fill="#223a7a"/><path d="M237.56,114.62a28.46,28.46,0,0,0,2.92.07c.24,0,.47,0,.7.07s-.31-.05-.08,0l.15,0,.37.08c.2.05.4.13.61.18a2.38,2.38,0,0,0,.59.07l.32,0-.2,0a1.5,1.5,0,0,0,.4,0,1.08,1.08,0,0,0,.74-1.3,1.32,1.32,0,0,0-.21-.43s-.09-.1-.13-.16l.12.14-.13-.17a.58.58,0,0,0-.22-.22l-.24-.18a2.78,2.78,0,0,0-.89-.36,7.18,7.18,0,0,0-1.78-.23,12.92,12.92,0,0,0-1.76.14,3.38,3.38,0,0,0-1.51.56,1,1,0,0,0-.47,1,1,1,0,0,0,.7.81Z" transform="translate(-2.19 0)" fill="#223a7a"/><path d="M226.53,111.85l-.41-.2c-.11-.06-.43-.23-.19-.09l-.27-.15a6,6,0,0,0-1.25-.44,8.32,8.32,0,0,0-2.9-.2,6.71,6.71,0,0,0-2.87.9,1.85,1.85,0,0,0-.37.25l-.2.27.05-.09a1.05,1.05,0,0,0-.43.85.82.82,0,0,0,.45.74,1.24,1.24,0,0,0,1,0h-.52a1.86,1.86,0,0,0,.78,0s.28-.07.1,0,.28,0,.33,0,.37,0,0,0l.18,0,.47,0c.68-.05,1.36-.08,2-.11s1.28,0,1.92,0c.27,0,.54,0,.81,0s.09,0,0,0l.17,0,.34.11a.94.94,0,0,0,1.13-.56,1,1,0,0,0-.39-1.2Z" transform="translate(-2.19 0)" fill="#223a7a"/><path d="M231.44,140.62a9.38,9.38,0,0,1,4.67-4.21c-1.73-.18-9.91-.94-12,.24-2.31,1.31.43,6.58,5.21,6.85a6.32,6.32,0,0,0,1.4-.08A6.89,6.89,0,0,1,231.44,140.62Z" transform="translate(-2.19 0)" fill="#223a7a"/><path d="M193.63,129.51s.83,3.21,5.59,6.93a54.71,54.71,0,0,0,11.65,6.45l.55-2.41S204.28,137.37,201,134s-3.72-5.28-3.72-5.28Z" transform="translate(-2.19 0)" fill="#dee1eb"/><path d="M212.25,138.69a6,6,0,0,1,6.23,4.81c.27,2-1.57,4.16-5.87,2.23C207.26,143.33,208.42,138.87,212.25,138.69Z" transform="translate(-2.19 0)" fill="#223a7a"/><path d="M196.63,105.82s1.65-11.89,9.62-20c15.21-15.42,28.14-14.49,28.14-14.49s-.11-2.17-5-3.82c-4.56-1.56-6.62-.73-6.62-.73s-12.52,1-23.07,12.73S188,106.13,188,106.13Z" transform="translate(-2.19 0)" fill="#dee1eb"/><path d="M195.49,104.37c-10-1.68-15.52,6.11-15.93,14s5.3,13.84,12.93,13.24C209.66,130.24,207.7,106.44,195.49,104.37Z" transform="translate(-2.19 0)" fill="#fff"/><path d="M190.53,123.94a6.78,6.78,0,0,1-6.12-3.65,7.57,7.57,0,0,1,.29-7.82.38.38,0,1,1,.62.43,6.79,6.79,0,0,0-.25,7,6,6,0,0,0,5.65,3.26,6.54,6.54,0,0,0,5.43-2.93,8.27,8.27,0,0,0,.82-7.35,5.58,5.58,0,0,0-5.58-3.67.38.38,0,0,1-.42-.32.37.37,0,0,1,.32-.42,6.28,6.28,0,0,1,6.39,4.14,9.08,9.08,0,0,1-.9,8,7.31,7.31,0,0,1-6,3.27Z" transform="translate(-2.19 0)" fill="#818fb3"/><path d="M183.28,156.41s-30.2,7.45-40.75,19.45S127,247,126.8,258s7.45,15.52,12,18.63,24.62,8.69,40.76,9.51,31.45,0,31.45,0a21.57,21.57,0,0,1,2.43-8.69c2.3-4.79,5.22-5.79,5.22-5.79l-13.86-5s-2.43-43.49-6.21-64.55C194.25,177.93,183.28,156.41,183.28,156.41Z" transform="translate(-2.19 0)" fill="#223a7a"/><path d="M233.35,259.74a.53.53,0,0,1-.2-.05.49.49,0,0,1-.25-.66c2.83-6.38,5.76-18.92,7.41-27.71l.14-.71c.5-2.59,1.12-5.81-.12-8-.64-1.13-2.07-3.59-3.44-6s-2.77-4.77-3.15-5.47c-.73-1.35,1.57-4.95,4.89-9.9.89-1.34,1.67-2.5,2.12-3.28,1.19-2,.4-3.92-.51-6.09l-.32-.75c-.82-2-1.76-4.07-2.67-6l-1.11-2.42c-.49-1.07-1-2.16-1.47-3.26a188.07,188.07,0,0,0-9.82-19.77.5.5,0,0,1,.86-.51A190.94,190.94,0,0,1,235.58,179l1.47,3.26,1.11,2.41c.91,2,1.85,4,2.69,6.07l.31.74c.93,2.21,1.89,4.5.46,7-.47.81-1.25,2-2.16,3.33-1.73,2.58-5.34,8-4.84,8.88.37.68,1.71,3,3.13,5.43s2.82,4.84,3.45,6c1.42,2.54.76,6,.23,8.71l-.14.7c-.6,3.2-3.79,19.6-7.48,27.94A.5.5,0,0,1,233.35,259.74Z" transform="translate(-2.19 0)" fill="#8593b6"/><path d="M203.87,261.49a.46.46,0,0,1-.35-.14c-2.36-2.37-13.69-22-14.54-25.7-.46-2,.7-7.14,1.82-12.1.87-3.84,1.77-7.81,1.52-8.89-.39-1.61-3.29-4-6.09-6.26-3.39-2.77-6.89-5.63-7.57-8.21-.77-2.93-.11-21.27.33-33.4.15-4.36.28-7.81.28-9a.5.5,0,0,1,.5-.5h0a.51.51,0,0,1,.5.5c0,1.25-.13,4.7-.28,9.08-.41,11.34-1.09,30.32-.36,33.11.6,2.26,4.12,5.14,7.23,7.68s6,4.87,6.43,6.81c.31,1.3-.54,5-1.51,9.34-1.05,4.62-2.23,9.86-1.82,11.66.83,3.62,12,22.89,14.27,25.21a.5.5,0,0,1,0,.71A.46.46,0,0,1,203.87,261.49Z" transform="translate(-2.19 0)" fill="#8593b6"/><path d="M163.22,252.91h-.07a.5.5,0,0,1-.43-.56c.37-2.6,6.11-54.4,6.37-58.37a.5.5,0,1,1,1,.07c-.27,4-6,55.83-6.38,58.44A.5.5,0,0,1,163.22,252.91Z" transform="translate(-2.19 0)" fill="#8593b6"/><path d="M204.39,267a.43.43,0,0,1-.19,0c-1.27-.51-6.89-2.41-14-4.81-14.36-4.84-34-11.47-37.77-13.42a.5.5,0,0,1,.46-.88c3.67,1.9,24.11,8.79,37.62,13.35,7.13,2.41,12.77,4.31,14.07,4.83a.51.51,0,0,1,.27.65A.5.5,0,0,1,204.39,267Z" transform="translate(-2.19 0)" fill="#8593b6"/><path d="M197.48,287.6c-12.63,0-37.13-2.28-55.74-8.86a.5.5,0,1,1,.33-.94c23.51,8.32,56.4,9.74,62.52,8.36a.5.5,0,1,1,.22,1A39.86,39.86,0,0,1,197.48,287.6Z" transform="translate(-2.19 0)" fill="#8593b6"/><path d="M52.85,163.39c3.92,3.45,8.89,5.66,12.33,9.65,1.36,1.57,2.57,3.24,3.83,4.88.92,1.2,3.36,3.19,3.76,4.7.17.66.13-.24,0-.9l0-.09c-.34-3-.59-6.11-.7-9.17s.09-6.14-.1-9.19c-.28-4.31-1.62-8.48-5.14-11.18-1.72-1.32-3.94-2.12-5.52-3.59s-.9-3,0-4.53a15.76,15.76,0,0,0,2.15-4.54A8.1,8.1,0,0,0,62.07,134c-2-3.43-6.6-7.27-10.9-6.76-3.59.43-4,4.57-3.94,7.46s.32,5.6.35,8.4-.46,5.71-.5,8.58C47,156.51,49.26,160.23,52.85,163.39Z" transform="translate(-2.19 0)" fill="#6baeff"/><path d="M89.3,208.17a45.82,45.82,0,0,1,3.88-7.41c2.12-3.25,4.46-6.42,5.88-10.06s1.24-7.69,1.38-11.6c.11-2.88,1-5.75.73-8.63-.11-1.38-.91-3.62-2.69-3.39-1.4.18-2.22,1.9-2.76,3a53.25,53.25,0,0,0-2.27,6c-.27.79-.53,1.6-.87,2.36-.2.44-.84,1.52-1.43,1.37-1-.25-.1-4.4,0-5.13.76-3.7,1.91-7.13,2.06-10.93.23-5.5-.19-12.06-5.58-15.07-1.41-.79-3.19-1.26-4.53-.08s-1.7,3.17-1.89,4.83c-.6,5.09.59,9.9,2.23,14.69,1.34,3.95,2.94,8,3.06,12.26.11,4.06-2,7.67-3,11.51a36.56,36.56,0,0,0-1.26,11.36c0,2.48.08,4.94.26,7.42.17,2.27.37,4.55.65,6.82,0,.46.1.94.17,1.41-.88-2.1-1.19-4.52-1.91-6.63-1.29-3.77-2.78-7.45-4-11.23a91.47,91.47,0,0,0-3.33-9.28c-1.27-2.82-2.79-5.8-5.15-7.87a7.5,7.5,0,0,0-5.06-2,13.85,13.85,0,0,0-3.48.74,3.92,3.92,0,0,1-3.75-.66c-3.86-3-5-8.29-7.89-12.05-2.13-2.8-7.19-7.58-10.91-4.52-2,1.62-2.52,4.75-2.41,7.15a17.3,17.3,0,0,0,3,8.29c1.67,2.68,3.82,5.08,5.36,7.84a8.29,8.29,0,0,1,.9,5,12,12,0,0,0,.3,5.07c1.77,5,7.3,4.31,11.6,4.44a32.21,32.21,0,0,1,9.09,1.5,10.11,10.11,0,0,1,6.63,6.53c.85,2.36,1.31,5,2.92,7a7.51,7.51,0,0,0,2.85,2.13c1.68.74,6.79,1.06,6.83.59a22.77,22.77,0,0,1,1.33-4.69C87.15,213.57,88.17,210.85,89.3,208.17Z" transform="translate(-2.19 0)" fill="#6baeff"/><path d="M113,207.22c-.44-2.86-.36-6-1.72-8.65a.39.39,0,0,0-.52-.14c-1,.54-1,2.11-1.1,3.08-.13,1.59,0,3.19-.23,4.78a36,36,0,0,1-2,8.32,9,9,0,0,1-6.23,5.6,15.83,15.83,0,0,0-5.44,2.4A11.51,11.51,0,0,0,92.6,227c-2,4.5-3,9.54-3.89,14.35-.63,3.25-1.14,6.5-1.93,9.71a94.2,94.2,0,0,0-2.08,9.68c-.08.16-.16.33-.23.49-.21.49.56.76.82.35,3.11-4.78,6.9-9.07,12.06-11.71,2.33-1.19,5.43-1.43,7.38-3.3,1.48-1.43,1.68-3.6,1.46-5.53-.29-2.54-1.51-4.63-2.78-6.8-.7-1.19-1.52-2.46-1.24-3.91a5.05,5.05,0,0,1,2.53-3.06c2.14-1.33,4.65-1.93,6.41-3.85a10.51,10.51,0,0,0,2.72-6.41A44.32,44.32,0,0,0,113,207.22Z" transform="translate(-2.19 0)" fill="#6baeff"/><path d="M70.66,223.74a41,41,0,0,0-9.77-9.05c-2-1.32-6.67-3.93-7.62,0-.55,2.28,1.68,4.52,3.15,6,2.21,2.15,4.76,4,6.62,6.48-2.3.74-4.71.88-6.72,2.47-2.37,1.89-3.44,5.54-1.08,7.85a14.67,14.67,0,0,0,4.09,2.51c1.86.9,3.75,1.72,5.65,2.51,4.11,1.72,8.27,3.46,11.77,6.27s6.93,7.7,7.21,12.38c0,.44-.14,0,.12-.17.15.13.64-.1.64-.36a49.3,49.3,0,0,0-4.16-19.89A82.64,82.64,0,0,0,70.66,223.74Z" transform="translate(-2.19 0)" fill="#6baeff"/><path d="M61.19,159.18c1.52,3.14,3.1,6.21,4.78,9.27a75.42,75.42,0,0,1,4.44,9c1.49,3.87,3,7.68,4.62,11.52a112.27,112.27,0,0,1,4.27,12.2A144.48,144.48,0,0,1,84.13,226a99.8,99.8,0,0,1,.51,12.82c-.09,3.35-.47,6.66-.78,10a58.78,58.78,0,0,0-.28,10.44c.25,2.91.71,6.36,3,8.43a.52.52,0,0,0,.81-.63c-2.68-5.49-2.53-11.47-2-17.43.29-3.29.68-6.56.79-9.86a98,98,0,0,0-.42-12.59,148.74,148.74,0,0,0-4.54-24.31,108,108,0,0,0-4-12c-1.55-3.95-3.35-7.78-4.86-11.74-2.73-7.17-6.9-13.53-10.58-20.2-.19-.35-.69,0-.53.3Z" transform="translate(-2.19 0)" fill="#43588e"/><path d="M84.26,217.79c.43-5.22.89-10.25,2.65-15.23.82-2.32,1.82-4.58,2.61-6.91.65-1.92,1.63-4.57,1.13-6.61a.23.23,0,0,0-.45,0c-.34,1.17-.3,2.45-.55,3.65a31.85,31.85,0,0,1-.91,3.45c-.77,2.41-1.78,4.72-2.66,7.09a35.26,35.26,0,0,0-2.18,14.56.18.18,0,0,0,.36,0Z" transform="translate(-2.19 0)" fill="#43588e"/><path d="M54,187.79c2.07,5,8.3,5.3,12.84,6.42A12,12,0,0,1,74.2,200a44,44,0,0,1,4.19,10.1s.07,0,.06,0c-1.27-6-3.08-13.23-9.27-16-5-2.23-11.48-1.11-14.65-6.46-.16-.27-.64-.09-.52.21Z" transform="translate(-2.19 0)" fill="#43588e"/><path d="M81,217c.25.33.47.68.73,1a2.49,2.49,0,0,0,.41.45,1,1,0,0,0,.58.29.13.13,0,0,0,.11-.19,2.36,2.36,0,0,0-.44-.39c-.14-.13-.3-.26-.44-.4-.29-.27-.55-.57-.84-.85,0,0-.16,0-.11.09Z" transform="translate(-2.19 0)" fill="#43588e"/><path d="M68,232.87a50.79,50.79,0,0,1,9.49,10.21A63.16,63.16,0,0,1,81,248.76a63.53,63.53,0,0,1,2.8,6.59c.06.17.37.18.35,0-.5-4.71-3.48-8.75-5.87-12.66a29.7,29.7,0,0,0-4.44-5.37,39.08,39.08,0,0,0-5.46-4.82c-.24-.18-.56.22-.32.41Z" transform="translate(-2.19 0)" fill="#43588e"/><path d="M96.48,227.33c-1.72,1-1.77,3.7-1.81,5.43-.06,3.34.76,6.47-.7,9.65-1.32,2.87-3.43,5.26-5.1,7.93-1.55,2.5-3.08,5.69-3.05,8.69,0,.17.27.27.35.09a35.57,35.57,0,0,0,1.3-4.34,18.38,18.38,0,0,1,2.12-4.48c1.6-2.47,3.56-4.73,4.86-7.39,1.36-2.81,1.16-5.59,1.07-8.63-.06-1.94-.25-5.05,1.31-6.49a.29.29,0,0,0-.35-.46Z" transform="translate(-2.19 0)" fill="#43588e"/><path d="M85,259.34c-6.93-.1-20.13-.17-20.13-.17l3.26,24.26A11,11,0,0,0,79,293H90.94a11,11,0,0,0,10.91-9.53l3.26-24.26S91.91,259.24,85,259.34Z" transform="translate(-2.19 0)" fill="#fff"/><polygon points="417.89 214.75 378.34 293.1 263.03 293.93 298.61 213.65 417.89 214.75" fill="#f6f7fa"/><path d="M188.69,293.44l0-6.27h74.64l34.35-75.31H417.08l3,2.89H303.46l-35.69,78.62S188.69,293.23,188.69,293.44Z" transform="translate(-2.19 0)" fill="#d9dee8"/><path d="M360.2,258c-1.3,3.9-8.37,6.92-15.79,6.74s-12.38-3.51-11.08-7.42,8.38-6.92,15.8-6.74S361.5,254.08,360.2,258Z" transform="translate(-2.19 0)" fill="#d9dee8"/><path d="M267.77,293.87a.52.52,0,0,1-.21,0,.5.5,0,0,1-.25-.66l35.82-78.92h117a.51.51,0,0,1,.5.5.5.5,0,0,1-.5.5H303.78l-35.56,78.33A.48.48,0,0,1,267.77,293.87Z" transform="translate(-2.19 0)" fill="#fff"/><rect x="44.13" y="299.37" width="137.17" height="30.41" fill="#596b9b"/><rect x="180.52" y="299.37" width="246.8" height="30.41" fill="#7a89af"/><polygon points="181.3 299.37 180.52 299.37 44.13 299.37 44.13 304.96 180.52 304.96 181.3 304.96 427.32 304.96 427.32 299.37 181.3 299.37" fill="#bdc4d7" style="mix-blend-mode:multiply"/><rect x="37.51" y="293.37" width="149.79" height="7.45" fill="#6f7fa9"/><rect x="186.52" y="293.37" width="246.8" height="7.45" fill="#9ca6c3"/><rect x="92.82" y="98.78" width="59.28" height="35.03" rx="5.43" ry="5.43" fill="#fff"/><polygon points="165.9 116.29 147.71 108.62 147.71 123.96 165.9 116.29" fill="#fff"/><circle cx="110.97" cy="116.29" r="3.35" fill="#223a7a"/><circle cx="122.46" cy="116.29" r="3.35" fill="#223a7a"/><circle cx="133.95" cy="116.29" r="3.35" fill="#223a7a"/><path d="M395.39,24.41H283.59a13,13,0,0,0-13,13v53a13,13,0,0,0,13,13h10c.28,4.81-.41,12-4.43,21.11a56.14,56.14,0,0,0,24.24-21.11h82a13,13,0,0,0,13-13v-53A13,13,0,0,0,395.39,24.41Z" transform="translate(-2.19 0)" fill="#60a8ff"/><path d="M347.7,49.68H292.25a2.76,2.76,0,0,1-2.76-2.75h0a2.76,2.76,0,0,1,2.76-2.76H347.7a2.76,2.76,0,0,1,2.76,2.76h0A2.76,2.76,0,0,1,347.7,49.68Z" transform="translate(-2.19 0)" fill="#fff"/><path d="M387.46,65.75H291.18a1.69,1.69,0,0,1-1.69-1.69h0a1.69,1.69,0,0,1,1.69-1.69h96.28a1.69,1.69,0,0,1,1.69,1.69h0A1.69,1.69,0,0,1,387.46,65.75Z" transform="translate(-2.19 0)" fill="#d2e6ff"/><path d="M387.46,75.13H291.18a1.69,1.69,0,0,1-1.69-1.69h0a1.69,1.69,0,0,1,1.69-1.69h96.28a1.69,1.69,0,0,1,1.69,1.69h0A1.69,1.69,0,0,1,387.46,75.13Z" transform="translate(-2.19 0)" fill="#d2e6ff"/><path d="M366.46,85.13H291.18a1.69,1.69,0,0,1-1.69-1.69h0a1.69,1.69,0,0,1,1.69-1.69h75.28a1.69,1.69,0,0,1,1.69,1.69h0A1.69,1.69,0,0,1,366.46,85.13Z" transform="translate(-2.19 0)" fill="#d2e6ff"/><path d="M386.7,49.68H360.25a2.76,2.76,0,0,1-2.76-2.75h0a2.76,2.76,0,0,1,2.76-2.76H386.7a2.76,2.76,0,0,1,2.76,2.76h0A2.76,2.76,0,0,1,386.7,49.68Z" transform="translate(-2.19 0)" fill="#fff"/><rect x="285.81" y="147.13" width="34.03" height="24.52" rx="2" ry="2" fill="#fff"/><path d="M305.22,163.06a.73.73,0,0,1-.47-.18l-16.35-13.5a.75.75,0,1,1,1-1.15l15.85,13.09,15.45-13.44a.75.75,0,0,1,1,1.13l-15.93,13.86A.78.78,0,0,1,305.22,163.06Z" transform="translate(-2.19 0)" fill="#6f7fa9"/><path d="M288.88,171.09a.75.75,0,0,1-.54-1.27l11.43-12a.74.74,0,0,1,1.06,0,.75.75,0,0,1,0,1.06l-11.43,12A.74.74,0,0,1,288.88,171.09Z" transform="translate(-2.19 0)" fill="#6f7fa9"/><path d="M321.16,170.65a.75.75,0,0,1-.54-.22L309.24,159A.75.75,0,1,1,310.3,158l11.39,11.42a.75.75,0,0,1,0,1.06A.7.7,0,0,1,321.16,170.65Z" transform="translate(-2.19 0)" fill="#6f7fa9"/><circle cx="321.41" cy="146.37" r="10.03" fill="#ff5f42"/><text transform="translate(314.35 150.61)" font-size="12" fill="#fff" font-family="Roboto-Regular, Roboto">85</text><rect x="359.57" y="125.51" width="66.62" height="17.17" rx="4" ry="4" fill="#223a7a"/><path d="M370,138.6a.8.8,0,0,1-.63-.28,1,1,0,0,1-.22-.71l.26-2.22c0-.06,0-.09,0-.11s-.08,0-.14,0l-1.83,1.32a.85.85,0,0,1-.7.18.88.88,0,0,1-.6-.44.83.83,0,0,1-.09-.78.85.85,0,0,1,.52-.48l2.05-.93c.06,0,.09-.05.09-.08s0-.07-.09-.09l-2.05-.93a.81.81,0,0,1-.51-.53.94.94,0,0,1,.08-.73.88.88,0,0,1,.6-.44.9.9,0,0,1,.7.15l1.83,1.35c.06,0,.1.05.14,0s.05,0,0-.11l-.26-2.22a1,1,0,0,1,.23-.71.89.89,0,0,1,.68-.28.84.84,0,0,1,.84,1l-.25,2.22c0,.06,0,.09,0,.11a.15.15,0,0,0,.15,0l1.82-1.32a.88.88,0,0,1,.72-.18.8.8,0,0,1,.58.44.84.84,0,0,1,.1.78.91.91,0,0,1-.52.48l-2.06.93c-.05,0-.08.05-.08.09s0,.06.08.08l2.06.93a.9.9,0,0,1,.52.53.83.83,0,0,1-.1.73.8.8,0,0,1-.58.44.94.94,0,0,1-.72-.15l-1.82-1.35a.15.15,0,0,0-.15,0s0,.05,0,.11l.25,2.22a.82.82,0,0,1-.21.71A.94.94,0,0,1,370,138.6Z" transform="translate(-2.19 0)" fill="#fff"/><path d="M382.11,138.6a.81.81,0,0,1-.63-.28,1,1,0,0,1-.21-.71l.25-2.22c0-.06,0-.09,0-.11s-.08,0-.14,0l-1.83,1.32a.84.84,0,0,1-.7.18.88.88,0,0,1-.59-.44.84.84,0,0,1-.1-.78.88.88,0,0,1,.52-.48l2.06-.93c.05,0,.08-.05.08-.08s0-.07-.08-.09l-2.06-.93a.86.86,0,0,1-.51-.53.94.94,0,0,1,.09-.73.88.88,0,0,1,.59-.44.89.89,0,0,1,.7.15l1.83,1.35c.06,0,.11.05.14,0s.05,0,0-.11l-.25-2.22a1,1,0,0,1,.22-.71.9.9,0,0,1,.68-.28.87.87,0,0,1,.65.28.84.84,0,0,1,.19.71l-.25,2.22c0,.06,0,.09,0,.11s.08,0,.14,0l1.83-1.32a.86.86,0,0,1,.72-.18.79.79,0,0,1,.57.44.81.81,0,0,1,.1.78.88.88,0,0,1-.52.48l-2.05.93q-.09,0-.09.09s0,.06.09.08l2.05.93a.88.88,0,0,1,.52.53.8.8,0,0,1-.1.73.79.79,0,0,1-.57.44.92.92,0,0,1-.72-.15l-1.83-1.35c-.06,0-.1-.05-.14,0s-.05.05,0,.11l.25,2.22a.82.82,0,0,1-.21.71A.94.94,0,0,1,382.11,138.6Z" transform="translate(-2.19 0)" fill="#fff"/><path d="M394.24,138.6a.83.83,0,0,1-.64-.28,1,1,0,0,1-.21-.71l.26-2.22c0-.06,0-.09,0-.11a.13.13,0,0,0-.14,0l-1.83,1.32a.85.85,0,0,1-.7.18.88.88,0,0,1-.6-.44.81.81,0,0,1-.09-.78.85.85,0,0,1,.52-.48l2.05-.93c.06,0,.09-.05.09-.08s0-.07-.09-.09l-2.05-.93a.81.81,0,0,1-.51-.53.94.94,0,0,1,.08-.73.88.88,0,0,1,.6-.44.9.9,0,0,1,.7.15l1.83,1.35a.13.13,0,0,0,.14,0s.05,0,0-.11l-.26-2.22a.93.93,0,0,1,.23-.71.88.88,0,0,1,.67-.28.85.85,0,0,1,.65.28.84.84,0,0,1,.2.71l-.25,2.22c0,.06,0,.09,0,.11a.13.13,0,0,0,.14,0l1.83-1.32a.88.88,0,0,1,.72-.18.8.8,0,0,1,.58.44.84.84,0,0,1,.1.78.91.91,0,0,1-.52.48l-2.06.93c-.05,0-.08.05-.08.09s0,.06.08.08l2.06.93a.9.9,0,0,1,.52.53.83.83,0,0,1-.1.73.8.8,0,0,1-.58.44.94.94,0,0,1-.72-.15l-1.83-1.35a.13.13,0,0,0-.14,0s0,.05,0,.11l.25,2.22a.82.82,0,0,1-.21.71A.94.94,0,0,1,394.24,138.6Z" transform="translate(-2.19 0)" fill="#fff"/><path d="M406.36,138.6a.81.81,0,0,1-.63-.28,1,1,0,0,1-.21-.71l.25-2.22c0-.06,0-.09,0-.11s-.08,0-.14,0l-1.83,1.32a.84.84,0,0,1-.7.18.88.88,0,0,1-.59-.44.84.84,0,0,1-.1-.78.88.88,0,0,1,.52-.48l2.06-.93c.05,0,.08-.05.08-.08s0-.07-.08-.09l-2.06-.93a.86.86,0,0,1-.51-.53.94.94,0,0,1,.09-.73.88.88,0,0,1,.59-.44.89.89,0,0,1,.7.15l1.83,1.35c.06,0,.11.05.14,0s.05,0,0-.11l-.25-2.22a.92.92,0,0,1,.22-.71.9.9,0,0,1,.68-.28.87.87,0,0,1,.65.28.84.84,0,0,1,.19.71L407,132.8c0,.06,0,.09,0,.11s.08,0,.14,0l1.83-1.32a.86.86,0,0,1,.72-.18.79.79,0,0,1,.57.44.84.84,0,0,1,.1.78.88.88,0,0,1-.52.48l-2.05.93q-.09,0-.09.09s0,.06.09.08l2.05.93a.88.88,0,0,1,.52.53.8.8,0,0,1-.1.73.79.79,0,0,1-.57.44.92.92,0,0,1-.72-.15l-1.83-1.35c-.06,0-.1-.05-.14,0s-.05.05,0,.11l.25,2.22a.82.82,0,0,1-.21.71A.94.94,0,0,1,406.36,138.6Z" transform="translate(-2.19 0)" fill="#fff"/><path d="M418.49,138.6a.82.82,0,0,1-.64-.28,1,1,0,0,1-.21-.71l.26-2.22c0-.06,0-.09,0-.11a.13.13,0,0,0-.14,0l-1.83,1.32a.86.86,0,0,1-.71.18.88.88,0,0,1-.59-.44.84.84,0,0,1-.1-.78.9.9,0,0,1,.53-.48l2.05-.93c.06,0,.08-.05.08-.08s0-.07-.08-.09l-2.05-.93a.81.81,0,0,1-.51-.53.9.9,0,0,1,.08-.73.88.88,0,0,1,.59-.44.92.92,0,0,1,.71.15l1.83,1.35a.13.13,0,0,0,.14,0s0,0,0-.11l-.26-2.22a.93.93,0,0,1,.23-.71.88.88,0,0,1,.67-.28.85.85,0,0,1,.65.28.84.84,0,0,1,.2.71l-.26,2.22c0,.06,0,.09,0,.11a.13.13,0,0,0,.14,0l1.83-1.32a.88.88,0,0,1,.72-.18.8.8,0,0,1,.58.44.84.84,0,0,1,.1.78.9.9,0,0,1-.53.48L420,134c-.06,0-.08.05-.08.09s0,.06.08.08l2.05.93a.89.89,0,0,1,.53.53.83.83,0,0,1-.1.73.8.8,0,0,1-.58.44.94.94,0,0,1-.72-.15l-1.83-1.35a.13.13,0,0,0-.14,0s0,.05,0,.11l.26,2.22a.82.82,0,0,1-.21.71A.94.94,0,0,1,418.49,138.6Z" transform="translate(-2.19 0)" fill="#67acff"/></g></g></svg>