<svg id="Слой_1" data-name="Слой 1" xmlns="http://www.w3.org/2000/svg" viewBox="0 0 1776.78 1125.98"><title>News</title><path d="M1379.07,385H1330V275.46l-2.28-1.31h-14.63v0h-85.14v0h-.08v16.41h.08v11.29h-.08v16.41h.08v11.33h-.08V346h.08v.06l-9-.06V260.14h-95.54V271h-.05v16.41h.05v14.42h-.05v16.41h.05v11.33h-.05V346h.05v10.48h-.05V372.9h.05v10.48h-.05v16.41h.05v9.87h-.05v10.42h.05v1.14H1015.69v93.93H975.46v23.66H932.08V498.06h-78V387.36H841.84v-11H840.1v11H830v0H779.36v-11h-1.74v11H764.43V443l-65.55-.3v34.36H643.31V264.65H478.66V492.21H428.38v-123H263.73v796.09L1388.81,1161Z" transform="translate(0 -39.28)" fill="#dfebfa"/><polygon points="263.89 474.84 263.89 549.46 263.89 660.46 263.89 1120.54 181.2 1120.54 181.2 660.46 181.2 549.46 181.2 474.84 263.89 474.84" fill="#dfebfa"/><rect x="521.02" y="225.38" width="122.29" height="36.01" fill="#eef6ff"/><rect x="521.02" y="280.8" width="122.29" height="36.01" fill="#eef6ff"/><rect x="521.02" y="337.37" width="122.29" height="36.01" fill="#eef6ff"/><rect x="521.02" y="394.85" width="122.29" height="36.01" fill="#eef6ff"/><rect x="521.02" y="450.31" width="122.29" height="36.01" fill="#eef6ff"/><rect x="1123.4" y="220.87" width="61.14" height="21.87" fill="#eef6ff"/><rect x="1123.4" y="254.53" width="61.14" height="21.87" fill="#eef6ff"/><rect x="1123.4" y="288.88" width="61.14" height="21.87" fill="#eef6ff"/><rect x="1123.4" y="323.79" width="61.14" height="21.87" fill="#eef6ff"/><rect x="1123.4" y="357.47" width="61.14" height="21.87" fill="#eef6ff"/><rect x="1123.4" y="394.54" width="61.14" height="21.87" fill="#eef6ff"/><rect x="1123.4" y="428.2" width="61.14" height="21.87" fill="#eef6ff"/><rect x="1123.4" y="462.56" width="61.14" height="21.87" fill="#eef6ff"/><rect x="1123.4" y="497.46" width="61.14" height="21.87" fill="#eef6ff"/><rect x="1123.4" y="531.15" width="61.14" height="21.87" fill="#eef6ff"/><rect x="1228.06" y="235.21" width="61.14" height="21.87" fill="#eef6ff"/><rect x="1228.06" y="268.86" width="61.14" height="21.87" fill="#eef6ff"/><rect x="1228.06" y="303.22" width="61.14" height="21.87" fill="#eef6ff"/><rect x="1228.06" y="338.13" width="61.14" height="21.87" fill="#eef6ff"/><rect x="1228.06" y="371.81" width="61.14" height="21.87" fill="#eef6ff"/><rect x="1228.06" y="406.93" width="61.14" height="21.87" fill="#eef6ff"/><rect x="1228.06" y="440.58" width="61.14" height="21.87" fill="#eef6ff"/><rect x="1228.06" y="474.94" width="61.14" height="21.87" fill="#eef6ff"/><rect x="1228.06" y="509.85" width="61.14" height="21.87" fill="#eef6ff"/><rect x="1228.06" y="543.53" width="61.14" height="21.87" fill="#eef6ff"/><rect x="1228.06" y="582.16" width="61.14" height="21.87" fill="#eef6ff"/><rect x="1228.06" y="615.82" width="61.14" height="21.87" fill="#eef6ff"/><rect x="1228.06" y="650.18" width="61.14" height="21.87" fill="#eef6ff"/><rect x="1228.06" y="685.08" width="61.14" height="21.87" fill="#eef6ff"/><rect x="1228.06" y="718.76" width="61.14" height="21.87" fill="#eef6ff"/><rect x="1035.74" y="338.13" width="3.03" height="44.61" fill="#dfebfa"/><rect x="1086.86" y="299.82" width="4.72" height="86.4" fill="#dfebfa"/><rect x="489.59" y="209.47" width="1.97" height="15.91" fill="#dfebfa"/><rect x="531.27" y="209.47" width="1.97" height="15.91" fill="#dfebfa"/><rect x="626.82" y="209.47" width="1.97" height="15.91" fill="#dfebfa"/><rect x="1132.86" y="208.59" width="1.52" height="12.28" fill="#dfebfa"/><rect x="1204.59" y="208.59" width="1.52" height="12.28" fill="#dfebfa"/><rect x="589.46" y="209.47" width="1.97" height="15.91" fill="#dfebfa"/><path d="M988,386c-16.71-41.71-87.83-19.74-87.83-19.74s-40.53,81.16-54.68,84.64,21.11-76.16,21.11-76.16c-28.14.57-95,43-95,43s14.78,87.42.21,87.31-9.14-78.08-9.14-78.08c-26,11.23-47.43,45.58-47.43,45.58-25.42,54.83,46.3,84.64,46.3,84.64s4.47,30.41-10.28,67.62h0a105,105,0,0,0-6.53,18.45l7.34-.86q.56-3.06,1.32-5.93s0,0,0,0l0-.08c.37-1.19.9-2.89,1.57-5h0c1.73-4.65,2.86-8.07,3.55-10.53v0c5.11-14.56,12.68-33.65,18.7-38.17a14.28,14.28,0,0,1-2-3.19l2,3.19c15.71,25.45,79.06,22.58,113.22,11.3s17.74-19.36-3-33.17-59.71-5-72.11-9.89,3.91-13.19,27.45-14.13,37.94,21,76.06,20.21,58.53-75.09,58.53-75.09c-25.08,11.13-73.43,2.23-76.28-6.53s66.36-16,76.82-19.91S1004.66,427.69,988,386Z" transform="translate(0 -39.28)" fill="#afcdfb"/><path d="M1473.44,960.57c-12.09-55.66-105.6-43.18-105.6-43.18s-67.76,92.91-86.18,94.27,42.43-90.74,42.43-90.74c-35.29-5.23-127.85,33.67-127.85,33.67s.06,112.38-18.12,109.17,5-99.51,5-99.51c-34.83,8.57-68.88,47-68.88,47-43.33,63.18,40,115.55,40,115.55s-.28,13.35-5.78,33.12q-.72,2.61-1.59,5.37h17.26a19.33,19.33,0,0,1,4.39-3.36,29.52,29.52,0,0,0,1.61,3.36H1319c-1.84-1.73-3.78-3.51-5.77-5.37l-2.25-2.1c-23-21.64-73.59-18.79-88-27.55s7.67-15.67,37.29-11.88,43,34.28,90.8,41.28c.73.11,1.46.2,2.2.25a37.3,37.3,0,0,0,6.6,0c44-3.87,80.18-81.75,80.18-81.75-33.7,8.62-92.25-12.69-94-24.24s86.29-6,100.2-8.7S1485.54,1016.22,1473.44,960.57Zm-304.88,201.31a14.43,14.43,0,0,1-1-2,23.41,23.41,0,0,1-.81-2.39c.31.78.64,1.58,1,2.39C1168,1160.54,1168.29,1161.2,1168.56,1161.88Z" transform="translate(0 -39.28)" fill="#c7dcfb"/><path d="M10.42,502.68c10.55-40.56,78.94-28.6,78.94-28.6s47.05,70.33,60.55,71.88-28.48-68-28.48-68c26.1-2.79,93,28.58,93,28.58s-3.39,82.63,10.07,80.81-.72-73.32-.72-73.32c25.35,7.33,49.24,36.6,49.24,36.6,30,47.74-32.88,83.76-32.88,83.76s-.56,28.66,17.46,61.35h0a96.69,96.69,0,0,1,8.22,16.3l-6.89.07q-.87-2.77-1.93-5.33s0,0,0,0l0-.07c-.48-1.06-1.18-2.57-2-4.41h0c-2.15-4.1-3.6-7.14-4.52-9.33a0,0,0,0,1,0,0c-6.43-12.87-15.69-29.64-21.79-33.12a13.57,13.57,0,0,0,1.45-3.18c-.47,1-.95,2.07-1.45,3.18-11.55,25.4-70.5,30.2-103.43,23.78s-18.7-15.83-1.15-31.05,54.67-11.62,65.56-17.63-5.17-11.75-27.06-9.84-32.64,23.92-68,27.64-63-62.59-63-62.59c24.52,7.34,68.21-6.57,69.81-15s-63.28-7-73.42-9.39S-.14,543.24,10.42,502.68Z" transform="translate(0 -39.28)" fill="#afcdfb" opacity="0.5"/><path d="M1138.25,1147.63l-809.5,12a13.52,13.52,0,0,1-13.3-10.18L161.07,542a13.51,13.51,0,0,1,13-16.84l811.69-3.46a13.51,13.51,0,0,1,13.15,10.18l152.2,598.95A13.5,13.5,0,0,1,1138.25,1147.63Z" transform="translate(0 -39.28)" fill="#162b4c"/><path d="M1144.88,1147.48l-800.11,3.42c-8.78,0-21.15,5.62-23.31-2.88L176.84,548.93a19.13,19.13,0,0,1,18.45-23.83l800.12-3.41A19.11,19.11,0,0,1,1014,536.1l149.31,587.56A19.11,19.11,0,0,1,1144.88,1147.48Z" transform="translate(0 -39.28)" fill="#233862"/><path d="M1131.41,1124.87l-304.92,1.29-128.37.55-348.89,1.47a9.05,9.05,0,0,1-8.8-6.8L204.76,592.29l-11.38-44.42a9,9,0,0,1,8.72-11.29L969,533.34l15.29-.07a9,9,0,0,1,8.8,6.8l13.39,52.22,34.59,134.91L1071.78,847l68.35,266.59A9,9,0,0,1,1131.41,1124.87Z" transform="translate(0 -39.28)" fill="#9cc4ff"/><path d="M1006.47,592.29H204.76l-11.38-44.42a9,9,0,0,1,8.72-11.29L969,533.34l15.29-.07a9,9,0,0,1,8.8,6.8Z" transform="translate(0 -39.28)" fill="#cfe3ff"/><polygon points="91.38 299.06 0 312.1 60.64 270.76 63.72 284.01 85.94 288.04 91.38 299.06" fill="#9ec3f6"/><polygon points="0 312.1 76.04 272.89 150.57 269.14 0 312.1" fill="#fff"/><polygon points="60.64 270.76 0 312.1 46.94 247.5 60.64 270.76" fill="#fff"/><polygon points="1553.95 323.7 1649.53 337.34 1586.1 294.11 1582.88 307.96 1559.63 312.18 1553.95 323.7" fill="#9ec3f6"/><polygon points="1649.53 337.34 1569.99 296.33 1492.04 292.41 1649.53 337.34" fill="#fff"/><polygon points="1586.1 294.11 1649.53 337.34 1600.43 269.77 1586.1 294.11" fill="#fff"/><circle cx="802.37" cy="229.19" r="33.69" fill="#d5e5fb"/><path d="M791.56,254.94a10.82,10.82,0,1,1,10.81,10.82A10.81,10.81,0,0,1,791.56,254.94Z" transform="translate(0 -39.28)" fill="#fff"/><path d="M802.37,265.76a18.92,18.92,0,0,0-18.92,18.92H821.3A18.93,18.93,0,0,0,802.37,265.76Z" transform="translate(0 -39.28)" fill="#fff"/><circle cx="553.35" cy="178.83" r="22.73" transform="translate(356.2 686.64) rotate(-88.09)" fill="#c6dcf7"/><circle cx="553.35" cy="169.71" r="7.29" transform="translate(261.05 629.99) rotate(-76.72)" fill="#fff"/><path d="M553.35,177a12.76,12.76,0,0,0-12.77,12.76h25.53A12.76,12.76,0,0,0,553.35,177Z" transform="translate(0 -39.28)" fill="#fff"/><path d="M715.41,64.72a2,2,0,1,1,1.31,2.47A2,2,0,0,1,715.41,64.72Z" transform="translate(0 -39.28)" fill="#d5e5fb"/><path d="M724.16,67.41a2,2,0,1,1,1.31,2.47A2,2,0,0,1,724.16,67.41Z" transform="translate(0 -39.28)" fill="#d5e5fb"/><path d="M734.33,72.61a2,2,0,1,1,2.48-1.31A2,2,0,0,1,734.33,72.61Z" transform="translate(0 -39.28)" fill="#d5e5fb"/><path d="M741.89,72.86a2,2,0,1,1,1.31,2.48A2,2,0,0,1,741.89,72.86Z" transform="translate(0 -39.28)" fill="#d5e5fb"/><path d="M750.64,75.56A2,2,0,1,1,752,78,2,2,0,0,1,750.64,75.56Z" transform="translate(0 -39.28)" fill="#d5e5fb"/><path d="M760.82,80.76a2,2,0,1,1,2.47-1.31A2,2,0,0,1,760.82,80.76Z" transform="translate(0 -39.28)" fill="#d5e5fb"/><path d="M768,80.9a2,2,0,1,1,1.31,2.48A2,2,0,0,1,768,80.9Z" transform="translate(0 -39.28)" fill="#d5e5fb"/><path d="M776.77,83.6a2,2,0,1,1,1.31,2.47A2,2,0,0,1,776.77,83.6Z" transform="translate(0 -39.28)" fill="#d5e5fb"/><path d="M787,88.8a2,2,0,1,1,2.47-1.31A2,2,0,0,1,787,88.8Z" transform="translate(0 -39.28)" fill="#d5e5fb"/><path d="M794.5,89.05a2,2,0,1,1,3.78,1.17,2,2,0,0,1-3.78-1.17Z" transform="translate(0 -39.28)" fill="#d5e5fb"/><path d="M803.25,91.74a2,2,0,1,1,1.31,2.48A2,2,0,0,1,803.25,91.74Z" transform="translate(0 -39.28)" fill="#d5e5fb"/><path d="M813.43,97a2,2,0,1,1,2.47-1.31A2,2,0,0,1,813.43,97Z" transform="translate(0 -39.28)" fill="#d5e5fb"/><path d="M821,97.21a2,2,0,1,1,1.31,2.47A2,2,0,0,1,821,97.21Z" transform="translate(0 -39.28)" fill="#d5e5fb"/><path d="M829.76,99.9a2,2,0,1,1,1.31,2.47A2,2,0,0,1,829.76,99.9Z" transform="translate(0 -39.28)" fill="#d5e5fb"/><path d="M839.93,105.1a2,2,0,1,1,2.48-1.31A2,2,0,0,1,839.93,105.1Z" transform="translate(0 -39.28)" fill="#d5e5fb"/><path d="M847.49,105.36a2,2,0,1,1,1.31,2.47A2,2,0,0,1,847.49,105.36Z" transform="translate(0 -39.28)" fill="#d5e5fb"/><path d="M856.24,108.05a2,2,0,1,1,1.31,2.47A2,2,0,0,1,856.24,108.05Z" transform="translate(0 -39.28)" fill="#d5e5fb"/><path d="M866.42,113.25a2,2,0,1,1,2.47-1.31A2,2,0,0,1,866.42,113.25Z" transform="translate(0 -39.28)" fill="#d5e5fb"/><path d="M873.62,113.39a2,2,0,1,1,1.31,2.48A2,2,0,0,1,873.62,113.39Z" transform="translate(0 -39.28)" fill="#d5e5fb"/><path d="M882.37,116.09a2,2,0,1,1,1.31,2.47A2,2,0,0,1,882.37,116.09Z" transform="translate(0 -39.28)" fill="#d5e5fb"/><path d="M892.55,121.29A2,2,0,1,1,895,120,2,2,0,0,1,892.55,121.29Z" transform="translate(0 -39.28)" fill="#d5e5fb"/><path d="M900.1,121.54a2,2,0,1,1,1.31,2.48A2,2,0,0,1,900.1,121.54Z" transform="translate(0 -39.28)" fill="#d5e5fb"/><path d="M908.85,124.24a2,2,0,1,1,1.31,2.47A2,2,0,0,1,908.85,124.24Z" transform="translate(0 -39.28)" fill="#d5e5fb"/><path d="M919,129.44a2,2,0,1,1,2.47-1.31A2,2,0,0,1,919,129.44Z" transform="translate(0 -39.28)" fill="#d5e5fb"/><path d="M826,234a2,2,0,1,1,2.77-.42A2,2,0,0,1,826,234Z" transform="translate(0 -39.28)" fill="#d5e5fb"/><path d="M831.39,226.61a2,2,0,1,1,2.77-.43A2,2,0,0,1,831.39,226.61Z" transform="translate(0 -39.28)" fill="#d5e5fb"/><path d="M839.64,218.7a2,2,0,1,1-.43-2.77A2,2,0,0,1,839.64,218.7Z" transform="translate(0 -39.28)" fill="#d5e5fb"/><path d="M842.35,211.64a2,2,0,1,1,2.77-.43A2,2,0,0,1,842.35,211.64Z" transform="translate(0 -39.28)" fill="#d5e5fb"/><path d="M847.76,204.25a2,2,0,1,1,2.77-.42A2,2,0,0,1,847.76,204.25Z" transform="translate(0 -39.28)" fill="#d5e5fb"/><path d="M856,196.34a2,2,0,1,1-.42-2.76A2,2,0,0,1,856,196.34Z" transform="translate(0 -39.28)" fill="#d5e5fb"/><path d="M858.74,189.27a2,2,0,1,1,2.77-.43A2,2,0,0,1,858.74,189.27Z" transform="translate(0 -39.28)" fill="#d5e5fb"/><path d="M864.15,181.88a2,2,0,0,1,2.34-3.19,2,2,0,1,1-2.34,3.19Z" transform="translate(0 -39.28)" fill="#d5e5fb"/><path d="M872.4,174a2,2,0,1,1-.43-2.76A2,2,0,0,1,872.4,174Z" transform="translate(0 -39.28)" fill="#d5e5fb"/><path d="M875.12,166.92a2,2,0,1,1,2.76-.43A2,2,0,0,1,875.12,166.92Z" transform="translate(0 -39.28)" fill="#d5e5fb"/><path d="M880.53,159.53a2,2,0,1,1,2.76-.43A2,2,0,0,1,880.53,159.53Z" transform="translate(0 -39.28)" fill="#d5e5fb"/><path d="M888.77,151.62a2,2,0,1,1-.42-2.76A2,2,0,0,1,888.77,151.62Z" transform="translate(0 -39.28)" fill="#d5e5fb"/><path d="M891.27,144.86a2,2,0,1,1,2.77-.42A2,2,0,0,1,891.27,144.86Z" transform="translate(0 -39.28)" fill="#d5e5fb"/><path d="M896.68,137.48a2,2,0,1,1,2.77-.43A2,2,0,0,1,896.68,137.48Z" transform="translate(0 -39.28)" fill="#d5e5fb"/><path d="M904.93,129.57a2,2,0,1,1-.43-2.77A2,2,0,0,1,904.93,129.57Z" transform="translate(0 -39.28)" fill="#d5e5fb"/><path d="M907.65,122.51a2,2,0,1,1,2.76-.42A2,2,0,0,1,907.65,122.51Z" transform="translate(0 -39.28)" fill="#d5e5fb"/><path d="M913.06,115.13a2,2,0,1,1,2.76-.43A2,2,0,0,1,913.06,115.13Z" transform="translate(0 -39.28)" fill="#d5e5fb"/><path d="M921.3,107.22a2,2,0,0,1-3.19-2.34,2,2,0,1,1,3.19,2.34Z" transform="translate(0 -39.28)" fill="#d5e5fb"/><path d="M842.36,265a2,2,0,1,1,2.27,1.63A2,2,0,0,1,842.36,265Z" transform="translate(0 -39.28)" fill="#d5e5fb"/><path d="M851.39,263.52a2,2,0,1,1,2.27,1.63A2,2,0,0,1,851.39,263.52Z" transform="translate(0 -39.28)" fill="#d5e5fb"/><path d="M862.82,263.65a2,2,0,1,1,1.63-2.27A2,2,0,0,1,862.82,263.65Z" transform="translate(0 -39.28)" fill="#d5e5fb"/><path d="M869.7,260.52a2,2,0,1,1,2.27,1.63A2,2,0,0,1,869.7,260.52Z" transform="translate(0 -39.28)" fill="#d5e5fb"/><path d="M878.73,259a2,2,0,1,1,2.28,1.63A2,2,0,0,1,878.73,259Z" transform="translate(0 -39.28)" fill="#d5e5fb"/><path d="M890.16,259.17a2,2,0,1,1,1.63-2.27A2,2,0,0,1,890.16,259.17Z" transform="translate(0 -39.28)" fill="#d5e5fb"/><path d="M897.06,256a2,2,0,1,1,2.28,1.63A2,2,0,0,1,897.06,256Z" transform="translate(0 -39.28)" fill="#d5e5fb"/><path d="M906.1,254.55a2,2,0,1,1,2.27,1.63A2,2,0,0,1,906.1,254.55Z" transform="translate(0 -39.28)" fill="#d5e5fb"/><path d="M917.53,254.68a2,2,0,1,1,1.63-2.27A2,2,0,0,1,917.53,254.68Z" transform="translate(0 -39.28)" fill="#d5e5fb"/><path d="M924.41,251.55a2,2,0,1,1,2.27,1.63A2,2,0,0,1,924.41,251.55Z" transform="translate(0 -39.28)" fill="#d5e5fb"/><path d="M933.44,250.07a2,2,0,1,1,2.28,1.63A2,2,0,0,1,933.44,250.07Z" transform="translate(0 -39.28)" fill="#d5e5fb"/><path d="M944.87,250.2a2,2,0,1,1,1.63-2.27A2,2,0,0,1,944.87,250.2Z" transform="translate(0 -39.28)" fill="#d5e5fb"/><path d="M951.38,247.13a2,2,0,1,1,2.28,1.63A2,2,0,0,1,951.38,247.13Z" transform="translate(0 -39.28)" fill="#d5e5fb"/><path d="M960.42,245.65a2,2,0,1,1,2.27,1.63A2,2,0,0,1,960.42,245.65Z" transform="translate(0 -39.28)" fill="#d5e5fb"/><path d="M971.85,245.78a2,2,0,1,1,1.63-2.28A2,2,0,0,1,971.85,245.78Z" transform="translate(0 -39.28)" fill="#d5e5fb"/><path d="M978.73,242.64a2,2,0,1,1,2.27,1.64A2,2,0,0,1,978.73,242.64Z" transform="translate(0 -39.28)" fill="#d5e5fb"/><path d="M987.76,241.16A2,2,0,1,1,990,242.8,2,2,0,0,1,987.76,241.16Z" transform="translate(0 -39.28)" fill="#d5e5fb"/><path d="M999.19,241.3a2,2,0,1,1,1.63-2.28A2,2,0,0,1,999.19,241.3Z" transform="translate(0 -39.28)" fill="#d5e5fb"/><path d="M790.35,228.91a2,2,0,1,1,1.28-2.49A2,2,0,0,1,790.35,228.91Z" transform="translate(0 -39.28)" fill="#d5e5fb"/><path d="M787.56,220.19a2,2,0,1,1,1.28-2.49A2,2,0,0,1,787.56,220.19Z" transform="translate(0 -39.28)" fill="#d5e5fb"/><path d="M786,208.86a2,2,0,1,1-2.49-1.28A2,2,0,0,1,786,208.86Z" transform="translate(0 -39.28)" fill="#d5e5fb"/><path d="M781.91,202.52a2,2,0,1,1-1.2-3.77,2,2,0,0,1,1.2,3.77Z" transform="translate(0 -39.28)" fill="#d5e5fb"/><path d="M779.12,193.79a2,2,0,1,1,1.29-2.48A2,2,0,0,1,779.12,193.79Z" transform="translate(0 -39.28)" fill="#d5e5fb"/><path d="M777.58,182.47a2,2,0,1,1-2.49-1.28A2,2,0,0,1,777.58,182.47Z" transform="translate(0 -39.28)" fill="#d5e5fb"/><path d="M773.47,176.1a2,2,0,1,1,1.28-2.49A2,2,0,0,1,773.47,176.1Z" transform="translate(0 -39.28)" fill="#d5e5fb"/><path d="M770.68,167.38a2,2,0,1,1,1.28-2.49A2,2,0,0,1,770.68,167.38Z" transform="translate(0 -39.28)" fill="#d5e5fb"/><path d="M769.14,156.06a2,2,0,1,1-2.49-1.28A2,2,0,0,1,769.14,156.06Z" transform="translate(0 -39.28)" fill="#d5e5fb"/><path d="M765,149.71a2,2,0,1,1,1.28-2.49A2,2,0,0,1,765,149.71Z" transform="translate(0 -39.28)" fill="#d5e5fb"/><path d="M762.24,141a2,2,0,1,1,1.28-2.49A2,2,0,0,1,762.24,141Z" transform="translate(0 -39.28)" fill="#d5e5fb"/><path d="M760.7,129.67a2,2,0,1,1-2.49-1.29A2,2,0,0,1,760.7,129.67Z" transform="translate(0 -39.28)" fill="#d5e5fb"/><path d="M756.71,123.67a2,2,0,1,1,1.28-2.49A2,2,0,0,1,756.71,123.67Z" transform="translate(0 -39.28)" fill="#d5e5fb"/><path d="M753.92,115a2,2,0,1,1,1.28-2.49A2,2,0,0,1,753.92,115Z" transform="translate(0 -39.28)" fill="#d5e5fb"/><path d="M752.38,103.63a2,2,0,1,1-2.49-1.29A2,2,0,0,1,752.38,103.63Z" transform="translate(0 -39.28)" fill="#d5e5fb"/><path d="M748.27,97.28a2,2,0,1,1,1.28-2.49A2,2,0,0,1,748.27,97.28Z" transform="translate(0 -39.28)" fill="#d5e5fb"/><path d="M745.48,88.56a2,2,0,1,1,1.28-2.49A2,2,0,0,1,745.48,88.56Z" transform="translate(0 -39.28)" fill="#d5e5fb"/><path d="M743.94,77.23A2,2,0,1,1,741.45,76,2,2,0,0,1,743.94,77.23Z" transform="translate(0 -39.28)" fill="#d5e5fb"/><path d="M566,167.73a2,2,0,1,1,2.75.51A2,2,0,0,1,566,167.73Z" transform="translate(0 -39.28)" fill="#d5e5fb"/><path d="M573.54,162.53a2,2,0,1,1,2.75.51A2,2,0,0,1,573.54,162.53Z" transform="translate(0 -39.28)" fill="#d5e5fb"/><path d="M583.93,157.77a2,2,0,1,1,.5-2.75A2,2,0,0,1,583.93,157.77Z" transform="translate(0 -39.28)" fill="#d5e5fb"/><path d="M588.81,152a2,2,0,1,1,2.75.51A2,2,0,0,1,588.81,152Z" transform="translate(0 -39.28)" fill="#d5e5fb"/><path d="M596.34,146.79a2,2,0,1,1,2.76.51A2,2,0,0,1,596.34,146.79Z" transform="translate(0 -39.28)" fill="#d5e5fb"/><path d="M606.73,142a2,2,0,1,1,.51-2.75A2,2,0,0,1,606.73,142Z" transform="translate(0 -39.28)" fill="#d5e5fb"/><path d="M611.63,136.24a2,2,0,0,1,3.26-2.25,2,2,0,1,1-3.26,2.25Z" transform="translate(0 -39.28)" fill="#d5e5fb"/><path d="M619.17,131a2,2,0,1,1,2.75.5A2,2,0,0,1,619.17,131Z" transform="translate(0 -39.28)" fill="#d5e5fb"/><path d="M629.55,126.28a2,2,0,1,1,.51-2.76A2,2,0,0,1,629.55,126.28Z" transform="translate(0 -39.28)" fill="#d5e5fb"/><path d="M634.44,120.5a2,2,0,1,1,2.75.51A2,2,0,0,1,634.44,120.5Z" transform="translate(0 -39.28)" fill="#d5e5fb"/><path d="M642,115.3a2,2,0,1,1,2.75.51A2,2,0,0,1,642,115.3Z" transform="translate(0 -39.28)" fill="#d5e5fb"/><path d="M652.36,110.54a2,2,0,1,1,.5-2.76A2,2,0,0,1,652.36,110.54Z" transform="translate(0 -39.28)" fill="#d5e5fb"/><path d="M656.93,105a2,2,0,1,1,2.76.51A2,2,0,0,1,656.93,105Z" transform="translate(0 -39.28)" fill="#d5e5fb"/><path d="M664.47,99.77A2,2,0,0,1,665,97a2,2,0,1,1-.5,2.75Z" transform="translate(0 -39.28)" fill="#d5e5fb"/><path d="M674.86,95a2,2,0,1,1,.5-2.75A2,2,0,0,1,674.86,95Z" transform="translate(0 -39.28)" fill="#d5e5fb"/><path d="M679.74,89.23a2,2,0,1,1,2.75.51A2,2,0,0,1,679.74,89.23Z" transform="translate(0 -39.28)" fill="#d5e5fb"/><path d="M687.27,84a2,2,0,1,1,2.76.51A2,2,0,0,1,687.27,84Z" transform="translate(0 -39.28)" fill="#d5e5fb"/><path d="M697.66,79.27a2,2,0,1,1,.5-2.75A2,2,0,0,1,697.66,79.27Z" transform="translate(0 -39.28)" fill="#d5e5fb"/><path d="M944.3,140.68a2,2,0,1,1-.06,2.79A2,2,0,0,1,944.3,140.68Z" transform="translate(0 -39.28)" fill="#d5e5fb"/><path d="M950.64,147.29a2,2,0,1,1-.06,2.79A2,2,0,0,1,950.64,147.29Z" transform="translate(0 -39.28)" fill="#d5e5fb"/><path d="M957,156.78a2,2,0,1,1,2.8.06A2,2,0,0,1,957,156.78Z" transform="translate(0 -39.28)" fill="#d5e5fb"/><path d="M963.47,160.68a2,2,0,1,1-.06,2.8A2,2,0,0,1,963.47,160.68Z" transform="translate(0 -39.28)" fill="#d5e5fb"/><path d="M969.81,167.29a2,2,0,1,1-.06,2.8A2,2,0,0,1,969.81,167.29Z" transform="translate(0 -39.28)" fill="#d5e5fb"/><path d="M976.16,176.79a2,2,0,1,1,2.8.06A2,2,0,0,1,976.16,176.79Z" transform="translate(0 -39.28)" fill="#d5e5fb"/><path d="M982.66,180.71a2,2,0,1,1-.06,2.79A2,2,0,0,1,982.66,180.71Z" transform="translate(0 -39.28)" fill="#d5e5fb"/><path d="M989,187.32a2,2,0,1,1-.06,2.8A2,2,0,0,1,989,187.32Z" transform="translate(0 -39.28)" fill="#d5e5fb"/><path d="M995.35,196.81a2,2,0,1,1,2.8.06A2,2,0,0,1,995.35,196.81Z" transform="translate(0 -39.28)" fill="#d5e5fb"/><path d="M1001.83,200.71a2,2,0,1,1-.06,2.8A2,2,0,0,1,1001.83,200.71Z" transform="translate(0 -39.28)" fill="#d5e5fb"/><path d="M1008.16,207.33a2,2,0,1,1-.06,2.79A2,2,0,0,1,1008.16,207.33Z" transform="translate(0 -39.28)" fill="#d5e5fb"/><path d="M1014.52,216.82a2,2,0,1,1,2.8.06A2,2,0,0,1,1014.52,216.82Z" transform="translate(0 -39.28)" fill="#d5e5fb"/><circle cx="731.42" cy="28" r="28" fill="#d5e5fb"/><path d="M722.43,56a9,9,0,1,1,9,9A9,9,0,0,1,722.43,56Z" transform="translate(0 -39.28)" fill="#fff"/><path d="M731.42,65a15.73,15.73,0,0,0-15.73,15.73h31.46A15.73,15.73,0,0,0,731.42,65Z" transform="translate(0 -39.28)" fill="#fff"/><circle cx="925.43" cy="77.39" r="43.15" fill="#c6dcf7"/><circle cx="925.43" cy="60.08" r="13.85" fill="#fff"/><path d="M925.43,113.21a24.23,24.23,0,0,0-24.24,24.23h48.47A24.23,24.23,0,0,0,925.43,113.21Z" transform="translate(0 -39.28)" fill="#fff"/><path d="M1004.32,234.9A29.13,29.13,0,1,1,1033.45,264,29.13,29.13,0,0,1,1004.32,234.9Z" transform="translate(0 -39.28)" fill="#d5e5fb"/><path d="M1036.9,241.83a4.57,4.57,0,0,0-.23-1.58,3.25,3.25,0,0,0-.81-1.24,6.17,6.17,0,0,0-1.46-1,16.47,16.47,0,0,0-2.2-.94q-2.23-.83-4-1.71a13.3,13.3,0,0,1-3.11-2,7.85,7.85,0,0,1-2-2.67,8.18,8.18,0,0,1-.67-3.6,8.3,8.3,0,0,1,.69-3.29,7.44,7.44,0,0,1,1.87-2.57,9.24,9.24,0,0,1,2.88-1.76,12.59,12.59,0,0,1,3.73-.83l.07-4.55,3.67.05-.07,4.62a11.4,11.4,0,0,1,3.56,1.09,8.7,8.7,0,0,1,4.38,5.08,11.42,11.42,0,0,1,.55,3.85l-6.62-.1a5.5,5.5,0,0,0-1.08-3.83,3.83,3.83,0,0,0-3-1.31,4.84,4.84,0,0,0-1.78.26,3.27,3.27,0,0,0-1.23.77,3.09,3.09,0,0,0-.73,1.17,4.61,4.61,0,0,0-.25,1.46,4,4,0,0,0,.21,1.43,3,3,0,0,0,.77,1.2,6.47,6.47,0,0,0,1.48,1,19.82,19.82,0,0,0,2.28,1c1.48.58,2.82,1.16,4,1.76a13.81,13.81,0,0,1,3.1,2.06,7.76,7.76,0,0,1,2.66,6.27,8.35,8.35,0,0,1-.7,3.35,7.55,7.55,0,0,1-1.88,2.55,9.33,9.33,0,0,1-2.9,1.7,13.63,13.63,0,0,1-3.76.8l-.06,4.23-3.65-.05.06-4.21a15.29,15.29,0,0,1-3.66-.89,9.83,9.83,0,0,1-3.13-1.88,8.79,8.79,0,0,1-2.15-3.07,10.57,10.57,0,0,1-.76-4.4l6.62.1a6.32,6.32,0,0,0,.39,2.53,4.14,4.14,0,0,0,1.11,1.63,4.05,4.05,0,0,0,1.6.88,7.12,7.12,0,0,0,1.84.27,5.84,5.84,0,0,0,1.9-.25,3.85,3.85,0,0,0,1.37-.75,3.13,3.13,0,0,0,.84-1.14A3.88,3.88,0,0,0,1036.9,241.83Z" transform="translate(0 -39.28)" fill="#fff"/><path d="M1759.75,976.5l-50.4,7.18a12.08,12.08,0,0,1-13.62-10.23l-3.11-21.84A12.06,12.06,0,0,1,1702.84,938l50.4-7.18A12.08,12.08,0,0,1,1766.87,941l3.11,21.84A12.09,12.09,0,0,1,1759.75,976.5Z" transform="translate(0 -39.28)" fill="#233862"/><path d="M1699.26,950.65l3.15,22.09a12.1,12.1,0,0,0,7.12,9.36,11.78,11.78,0,0,0,3.92,1h0a11.53,11.53,0,0,0,2.62-.08l50.31-7.17a12.13,12.13,0,0,0,10.27-13.68l-3.15-22.09a12.13,12.13,0,0,0-13.68-10.26l-17.32,2.47-.67-4.72a4,4,0,0,0-4.51-3.38l-1.9.27-10.54,1.5-2.62.37a4,4,0,0,0-2.62,1.56,3.91,3.91,0,0,0-.76,3l.67,4.72-10,1.42c-.4.06-.78.14-1.16.23h0a12.11,12.11,0,0,0-8.35,7.3h0A11.9,11.9,0,0,0,1699.26,950.65Zm40.77-18-18,2.56-.67-4.71a1.49,1.49,0,0,1,1.27-1.68l4.52-.65,8.29-1.18,2.24-.32a1.36,1.36,0,0,1,.45,0,1.49,1.49,0,0,1,1.23,1.26Z" transform="translate(0 -39.28)" fill="#2b478b"/><path d="M1721.43,911.47s2.64,3.52,2.75,4.93c.71,9.55-3.65,10.87,7.64,16.17,0,0,4.83,1.84,4.91-1.9s-3.35-3.81-2.72-9c.72-6,.65-6.1-3.32-9.26l-2.63-4.34Z" transform="translate(0 -39.28)" fill="#ffb27d"/><path d="M1725.6,915.66s-2.55,2.66-2.71,3.77c-.51,3.54-1.7,5.08-1.1,5.46,1.23.8,2.86-1.82,3.64-4.18A10.8,10.8,0,0,0,1725.6,915.66Z" transform="translate(0 -39.28)" fill="#ffb27d"/><polygon points="1625.46 1107.84 1628.13 1088.61 1616.92 1079.23 1613.38 1104.7 1625.46 1107.84" fill="#ffb27d"/><path d="M1588.21,1164.3H1634s1.09-7-1.3-12.26c-2.29-5.07-5.85-8.21-6.17-12.09-2.91,3-6.48,4.91-13.1,4-.81,1.32-5.23,8.35-7.93,10.29C1602.46,1156.41,1589.13,1155.64,1588.21,1164.3Z" transform="translate(0 -39.28)" fill="#233862"/><path d="M1597.4,887.4c3,24.06,5.44,46.74,7.43,67.88,10.64,112.63,8.55,181.48,8.55,181.48s.77,2,7.37,2.07a37.54,37.54,0,0,0,7.38-.8s23.83-73.55,22-115.4a64.81,64.81,0,0,0-1.86-13.55c-5.72-21.42,21.15-103.31-8.06-133.81S1596,876.36,1597.4,887.4Z" transform="translate(0 -39.28)" fill="#f99746"/><path d="M1597.4,887.4c3,24.06,5.44,46.74,7.43,67.88l45.3,67.35a64.81,64.81,0,0,0-1.86-13.55c-5.72-21.42,21.15-103.31-8.06-133.81S1596,876.36,1597.4,887.4Z" transform="translate(0 -39.28)" fill="#ed7d2b"/><path d="M1561.41,657.92s1.1-5.5,2.34-9.69c.55-1.86-3.28-14.05-5.93-15.55s-9.55,6.71-7.59,13c1,3.24,2.65,13.78,2.65,13.78Z" transform="translate(0 -39.28)" fill="#ffb27d"/><path d="M1561.41,657.92s1.44-3.19,2.74-3.71,2.69-5.73,3.65-7.79c0,0-.92-1.35-2.54.39-1,1.06-3.18,4.17-3.18,4.17Z" transform="translate(0 -39.28)" fill="#ffb27d"/><path d="M1702.16,1141.35c.65-6.16.81-22.38.81-22.38s-16.53-5.29-15.92-1.66c3,17.83,2.18,26.66,2.18,26.66l6.68,4Z" transform="translate(0 -39.28)" fill="#ffb27d"/><path d="M1611.21,886.25s63.84,175,76.41,250.93c0,0,2.91,2,8.34,1.34,6.16-.75,7.85-5,7.85-5s11.53-91-11.39-122.58c-15.75-21.7,6.79-117-29.89-124.66S1611.21,886.25,1611.21,886.25Z" transform="translate(0 -39.28)" fill="#f99746"/><path d="M1622.08,752.08a19.83,19.83,0,0,0,1,2.14,17.27,17.27,0,0,0,1.86,2.85,26.81,26.81,0,0,1-.77-3.3h0c-.1-.58-.19-1.21-.28-1.88a71.16,71.16,0,0,1-.15-12.57,68.67,68.67,0,0,0,1.07,12.47q.15.79.33,1.59a29.12,29.12,0,0,0,1.58,5,8.7,8.7,0,0,0,.39.88,129.42,129.42,0,0,1,14.55,16.32c3.58,4.6,7.2,9.61,10.62,14.66,1.32,2,2.61,3.9,3.86,5.83h0c.53.81,1.05,1.61,1.55,2.41h0c.63,1,1.24,2,1.84,3,1.68,2.71,3.23,5.35,4.63,7.85l.93,1.68c4.31,7.91,6.88,14.19,6.3,16.6l.79-.55.48-.33c1.77-1.22,5.24-3.61,9.65-6.6l.29-.88,2.19-6.82c.49,1.53.16,4.24-.16,6.14,6.9-4.67,15.51-10.41,23.32-15.41h0c5.83-3.73,11.21-7,15.09-9.18a97,97,0,0,0-2.45-9.88c2.28,1,4.46,5.78,5.48,8.31.26-.13.51-.24.74-.34,0,0,.43-19.51-25-37.92-13.35-9.65-22.82-14.23-20.83-23.66s3.72-51-25.68-44.45c0,0-4.17-2.64-6.21-2.64a5.47,5.47,0,0,1,2.29,1.53c-3.2-.66-7.84-1.11-12,.5-2.28.88-4.82,3.75-7.29,7.9h0c-.15.28-.3.54-.46.82a68.14,68.14,0,0,0-3.06,6.11,102.22,102.22,0,0,0-4.64,12.85h0c-.44,1.51-.85,3-1.22,4.57a.87.87,0,0,0,0,.22h0C1619.56,730.19,1618.64,743.3,1622.08,752.08Z" transform="translate(0 -39.28)" fill="#163560"/><path d="M1628.07,760c-.1,0,8.23,6.06,15.3,5.21,6.65-.79,12.05-8.45,12-8.48-2.63-.94-2.86-4.78-.42-20.74l-1.26.06-21.17,1s-.49,6.54-1.39,12.64C1630.36,754.86,1629.32,759.67,1628.07,760Z" transform="translate(0 -39.28)" fill="#ffb27d"/><path d="M1632.49,737.1s-.49,6.54-1.39,12.64c11.56,1.39,19.2-8.21,22.56-13.65Z" transform="translate(0 -39.28)" fill="#ed975d"/><path d="M1656.12,734.16s7.44-8.63,10.1-16.56c1.9-5.66,2.14-27.66-20-27.78a29.7,29.7,0,0,0-12.9,2.8c-5.17,2.48-13,8.33-8.19,28.27l1,6.65Z" transform="translate(0 -39.28)" fill="#163560"/><path d="M1593,899.76s37.55,12.52,72.14,4.1c.41-.1,20.17-17.59,20.17-17.59-.48-1.32-4.11-23-4.58-24.22-6.14-15.84-17.35-101.77-26.72-106-2.39,2.61-9.23,4.39-15.08,3.87-6.74-.6-9-3.51-8.44-6.64-7.45,3.53-13.18,6.8-13.18,6.8C1610.52,770.29,1593,899.76,1593,899.76Z" transform="translate(0 -39.28)" fill="#fff"/><path d="M1627.79,742.3s27.16,4.5,29.7-12.46,7.76-27.79-9.48-31.38-21.57,2.37-23.8,7.83S1620.79,740.69,1627.79,742.3Z" transform="translate(0 -39.28)" fill="#ffb27d"/><path d="M1635.68,696.2s4.49,21,15.49,25.65,16.42,2.31,16.42,2.31a32.78,32.78,0,0,1-7.75-20.71S1642.71,687.57,1635.68,696.2Z" transform="translate(0 -39.28)" fill="#163560"/><path d="M1637.28,698.09s-6.22,3.61-8.22,7.73-3.94,12.92-6.48,12.23c0,0-3.61-14.36,3.84-21.07C1634.32,689.86,1637.28,698.09,1637.28,698.09Z" transform="translate(0 -39.28)" fill="#163560"/><path d="M1552.69,658.31a17.42,17.42,0,0,1,4.86-1.5,15.12,15.12,0,0,1,4.26.44s7.67,47.63,8.24,50.16,32.86,38.9,41.57,38.76c7.86-.14,17.18,5.93,18.9,7.1,0,0-15.76,28.43-19.31,58-3,25-10.38,117.78-10.38,117.78s.56,5.67-10,2.62-13.24-5.57-13.24-5.57,9.73-96,11.77-125.78c.27-4,2.05-18,0-20.72-13.39-18.39-34.54-48.17-35.72-54.51C1551.91,715.79,1552.69,658.31,1552.69,658.31Z" transform="translate(0 -39.28)" fill="#2b478b"/><path d="M1664.06,1164.3h45.73s1.1-7-1.29-12.26c-2.29-5.07-5.85-8.21-6.18-12.09-2.9,3-6.48,4.91-13.09,4-.81,1.32-5.23,8.35-7.94,10.29C1678.3,1156.41,1665,1155.64,1664.06,1164.3Z" transform="translate(0 -39.28)" fill="#233862"/><path d="M1644,929.56s3.09,14.91,17.23,14,34.64-8,34.64-8-1-15.55-2.5-37.32c-1.5-21.12-3.56-48.1-5.85-72.41-3.13-33.21-6.69-61.43-9.85-62.94-10.05-4.82-23.78-7.38-23.78-7.38s-10.38,44.34-12.16,66.24C1640,842.18,1644,929.56,1644,929.56Z" transform="translate(0 -39.28)" fill="#2b478b"/><path d="M1636.69,733.92a12.18,12.18,0,0,1-7.2,1.35c-2.67-.4-3.27-3.57-3.27-3.57a10.56,10.56,0,0,1,4.81,0A20.69,20.69,0,0,1,1636.69,733.92Z" transform="translate(0 -39.28)" fill="#fff"/><path d="M1670.32,807.61s.2,48.63,17.12,83.12c2.68,5.46,4.59,7.64,5.9,7.45-1.5-21.12-3.56-48.1-5.85-72.41Z" transform="translate(0 -39.28)" fill="#233862"/><path d="M1670.63,760s15.6,4.59,22.65,14.67,29.91,66.87,36,87.7,8.74,51.59,8.74,51.59-7.4,3-18.6,0c0,0-13-46.43-17.92-51.59s-33.87-57.12-33.87-57.12Z" transform="translate(0 -39.28)" fill="#2b478b"/><path d="M1314.87,880.42S1189.73,837,923,888.91C840.54,905,737.31,937.46,626,965l-65.8-230.09,1.92-.49c33.64-8.67,146.21-40,276.65-88.52C956.55,602.1,1089.52,545,1187.33,434.46l94.49,330.38Z" transform="translate(0 -39.28)" fill="#ed7d2b"/><path d="M1281.82,764.84c-42.16-10-167.16-30.1-383.1,11.64-84,16.24-189.11,49.37-302.43,77.35l-34.14-119.4c33.64-8.67,146.21-40,276.65-88.52C956.55,602.1,1089.52,545,1187.33,434.46Z" transform="translate(0 -39.28)" fill="#f99746"/><path d="M1326.75,895.84h0a7.18,7.18,0,0,1-8.88-4.93l-134.6-470.66a7.19,7.19,0,0,1,4.93-8.88h0a7.18,7.18,0,0,1,8.89,4.93L1331.69,887A7.18,7.18,0,0,1,1326.75,895.84Z" transform="translate(0 -39.28)" fill="#ed7d2b"/><path d="M491.21,1004l135.15-38.64L560.49,735,425.34,773.66a10.4,10.4,0,0,0-7.12,12.83l60.16,210.37A10.4,10.4,0,0,0,491.21,1004Z" transform="translate(0 -39.28)" fill="#d66316"/><polygon points="874.95 1086.92 754.94 1087.43 695.06 960.63 672.94 913.76 672.98 913.74 782.42 879.19 784.4 883.63 804.73 929.26 874.95 1086.92" fill="#f99746"/><polygon points="874.95 1086.92 754.94 1087.43 695.06 960.63 804.73 929.26 874.95 1086.92" fill="#ed7d2b"/><path d="M1436.18,464.42h0a7.8,7.8,0,0,1-1.08,10.95l-115.65,94.82a7.81,7.81,0,0,1-11-1.08h0a7.81,7.81,0,0,1,1.09-11l115.64-94.82A7.8,7.8,0,0,1,1436.18,464.42Z" transform="translate(0 -39.28)" fill="#f99746"/><path d="M1504.46,707.8h0a7.81,7.81,0,0,1-8.51,7l-148.82-14.73a7.8,7.8,0,0,1-7-8.5h0a7.81,7.81,0,0,1,8.51-7l148.82,14.72A7.81,7.81,0,0,1,1504.46,707.8Z" transform="translate(0 -39.28)" fill="#f99746"/><path d="M1557.32,584.91h0a7.79,7.79,0,0,1-6.26,9.05l-208.53,37.93a7.79,7.79,0,0,1-9-6.26h0a7.8,7.8,0,0,1,6.26-9l208.52-37.93A7.81,7.81,0,0,1,1557.32,584.91Z" transform="translate(0 -39.28)" fill="#f99746"/><path d="M922.4,1131.63s0-8.09,1.16-10.78,5.38-13.65,5.38-13.65h16.53s3.07,10,3.26,13.26,0,11.17,0,11.17Z" transform="translate(0 -39.28)" fill="#233862"/><path d="M1027.35,1131.63s0-8.09-1.15-10.78-5.38-13.65-5.38-13.65h-16.53s-3.08,10-3.27,13.26,0,11.17,0,11.17Z" transform="translate(0 -39.28)" fill="#233862"/><path d="M961.13,677.44s-.58,18-2.89,26.09L940,716.26l68.71,10.28L992.31,703.9s-4.94-24.16-2.35-33.09S961.13,677.44,961.13,677.44Z" transform="translate(0 -39.28)" fill="#ffb27d"/><path d="M961,679.92s5.44,13.09,15.67,12.8,12.56-11.87,12.56-11.87Z" transform="translate(0 -39.28)" fill="#ed985f"/><path d="M954.92,669.33s-3.3-16.5-5.61-21.49-4.23-27.3,21.34-28.45c0,0,9.8,1.15,15.18-2.11,0,0,0,3.26-1.35,4.42a17,17,0,0,1,15.76,5.57c6.92,7.69-4.61,34.6-4,40.94Z" transform="translate(0 -39.28)" fill="#2c3a64"/><path d="M975.53,687.66c-7.42-.13-21.07-10-21.07-22.23V646.35c0-4.47,3.12-8.12,6.92-8.12h28.29c3.81,0,6.92,3.65,6.92,8.12v18C996.59,677.17,984,687.81,975.53,687.66Z" transform="translate(0 -39.28)" fill="#ffb27d"/><path d="M954.46,656.53s0-11.46,9.12-13.22,29.41,5.58,32.29-2.78-39.28-8.21-41.41-2.88S954.46,656.53,954.46,656.53Z" transform="translate(0 -39.28)" fill="#2c3a64"/><path d="M924.48,851.39s2.89,88.31-1.44,138.7,0,120.51,0,120.51,13.83,7.62,28.83,0c0,0,16.44-97.35,16.33-120.51-.11-24.68,17.9-134.85,17.9-134.85Z" transform="translate(0 -39.28)" fill="#2b478b"/><path d="M1026.76,1110.59s-13.83,7.63-28.82,0c0,0-16.44-97.34-16.34-120.51,0-10.42-3.14-36.09-6.83-62.27-5.06-35.81-11.07-72.57-11.07-72.57l64-4s-5.28,88.46-1,138.84S1026.76,1110.59,1026.76,1110.59Z" transform="translate(0 -39.28)" fill="#2b478b"/><path d="M1027,866.08s-27.3,5.29-52.21,5.29a254,254,0,0,1-32.07-2.45c-10.39-1.38-17.84-2.84-17.84-2.84s-5.53.48-2.26-26.81c2.48-20.77,1.7-39.52,1.15-58.81-.06-2.15,0-4.68.12-7.51,1.06-22.49,7.86-63,13-65.16,0,0,7.71-2.87,21.33-4.26,0,.26,7.91,11.82,17.29,13.12,5.83-2.31,10.41-4.28,16.78-12.75a183.35,183.35,0,0,1,26.32,5.08s1,4.29,4.68,78.72C1024.78,817.18,1034.84,866.18,1027,866.08Z" transform="translate(0 -39.28)" fill="#fff"/><path d="M981.6,990.08c0-10.42-3.14-36.09-6.83-62.27,3.83-15.64,13.17-30.69,13.17-30.69C999.76,930.28,981.6,990.08,981.6,990.08Z" transform="translate(0 -39.28)" fill="#233862"/><path d="M898.52,796.38c-.65.55,1.62,6.17,5,13.51,6.89,15.06,18.32,37.32,18.32,37.32a65.39,65.39,0,0,1-3.47,10.16c-19.24-15.12-31.64-28-39.55-37.84-11.13-13.86-13.42-21.81-13.42-21.81,42.83-87.19,73-90.4,73-90.4l-3.56,57.62S900.5,794.74,898.52,796.38Z" transform="translate(0 -39.28)" fill="#fff"/><path d="M919.52,848.3s10.38-9.61,14.61-4.22,5,13.83,1.73,13.26-10-3.65-11-2.12-5.26,4.48-6.57,2.15S919.52,848.3,919.52,848.3Z" transform="translate(0 -39.28)" fill="#ffb27d"/><path d="M921.8,847.21a65.39,65.39,0,0,1-3.47,10.16c-19.24-15.12-31.64-28-39.55-37.84,6-.44,14.68-2.57,24.7-9.64C910.37,825,921.8,847.21,921.8,847.21Z" transform="translate(0 -39.28)" fill="#ffb27d"/><path d="M1087.22,797.72s-2.28,7.95-13.41,21.81c-7.91,9.87-20.32,22.72-39.55,37.84a65.39,65.39,0,0,1-3.47-10.16s11.43-22.26,18.31-37.32c3.35-7.34,5.62-13,5-13.51-1.54-1.28-22.48-19.47-31.82-27.58l-4.44-3.86-2.14-56.76S1044.39,710.53,1087.22,797.72Z" transform="translate(0 -39.28)" fill="#fff"/><path d="M1033.07,848.3s-10.38-9.61-14.61-4.22-5,13.83-1.73,13.26,10-3.65,11-2.12,5.27,4.48,6.58,2.15S1033.07,848.3,1033.07,848.3Z" transform="translate(0 -39.28)" fill="#ffb27d"/><path d="M1030.78,847.21a66,66,0,0,0,3.48,10.16c19.23-15.12,31.63-28,39.55-37.84-6-.44-14.68-2.57-24.71-9.64C1042.22,825,1030.78,847.21,1030.78,847.21Z" transform="translate(0 -39.28)" fill="#ffb27d"/><path d="M959.2,699.13a7.34,7.34,0,0,0-3.92,4.74s12.24,12.58,20.25,12.78Z" transform="translate(0 -39.28)" fill="#ed7d2b"/><path d="M975.53,716.65l15.8-18.15s3.26,2.14,3.21,5.68C994.54,704.18,982.32,717.13,975.53,716.65Z" transform="translate(0 -39.28)" fill="#ed7d2b"/><path d="M972.68,715.31s-12.06,104.08-7.86,116.76a86.54,86.54,0,0,0,7.36,16.13,4.27,4.27,0,0,0,7.39,0c3.2-5.56,7.39-13.6,7.39-17.68,0-6.61-9.15-115.28-9.15-115.28Z" transform="translate(0 -39.28)" fill="#f99746"/><path d="M969.53,710.21a75.92,75.92,0,0,1,11.72-.28,1.22,1.22,0,0,1,.94,1.82c-1.24,2.24-3.78,6.12-6.43,6.12C972,717.87,966.22,710.47,969.53,710.21Z" transform="translate(0 -39.28)" fill="#ed7d2b"/><path d="M969.62,675.37a8.08,8.08,0,0,0,6.34,3,7.52,7.52,0,0,0,5.93-3S975.09,674.25,969.62,675.37Z" transform="translate(0 -39.28)" fill="#fff"/><path d="M955.76,575.72l-5.62,4-5.64-4a6.91,6.91,0,0,1,11.26,0Z" transform="translate(0 -39.28)" fill="#fff"/><path d="M950.14,563a16.67,16.67,0,0,0-13.65,7.1l3.56,2.51a12.34,12.34,0,0,1,20.13-.08l3.55-2.54A16.69,16.69,0,0,0,950.14,563Z" transform="translate(0 -39.28)" fill="#fff"/><path d="M950.14,544.36a35.32,35.32,0,0,0-28.9,15l3.56,2.51a31,31,0,0,1,50.55-.19l3.54-2.55A35.31,35.31,0,0,0,950.14,544.36Z" transform="translate(0 -39.28)" fill="#fff"/><path d="M950.14,554.57a25.27,25.27,0,0,0-20.61,10.65l3.57,2.5a20.95,20.95,0,0,1,34-.13l3.53-2.53A25.25,25.25,0,0,0,950.14,554.57Z" transform="translate(0 -39.28)" fill="#fff"/><path d="M363.52,668.67s-8.33-14.8,0-17.81,12.1-.23,12.5,3.14-3.18,16.66-3.18,16.66Z" transform="translate(0 -39.28)" fill="#ffb27d"/><path d="M370.2,763.34a268.77,268.77,0,0,1-41.75,4.29,232.88,232.88,0,0,1-32.1-1.45q-3.78-.43-7.27-1c-24.59-3.73-38.17-10.34-38.17-10.34s22.47-47,40.62-45.23c21.29,2.13,57.37,21.23,61,15.87,4-6,7.42-57.81,7.42-57.81,9.44-6.46,15.08.35,15.08.35S393.42,759.15,370.2,763.34Z" transform="translate(0 -39.28)" fill="#f99746"/><path d="M370.2,763.34a268.77,268.77,0,0,1-41.75,4.29,232.88,232.88,0,0,1-32.1-1.45c-5.66-18-9.73-36.41,1.66-25.32C318.11,760.43,370.2,763.34,370.2,763.34Z" transform="translate(0 -39.28)" fill="#ed7d2b"/><path d="M249.21,1143s-1.62,18.7,2.34,20.64l50.57-.1s0-5.84-8.12-7.14-22.4-6-24.81-16.64S249.21,1143,249.21,1143Z" transform="translate(0 -39.28)" fill="#233862"/><path d="M286.34,916.77c-.25,12.22-.84,24.83-2,36.17-5.46,53.77-7.38,118.74-8.17,131.26-1.36,21.75-5.65,56.49-5.65,56.49s-8.52,8.08-25.13,4.22c0,0-13.76-50-16.83-102.71,0-.87-.1-1.73-.14-2.6-.36-7-.73-14.93-1.11-23.52-2.53-57.52-5.28-143-5.28-143l63.46-14.9S287,886.3,286.34,916.77Z" transform="translate(0 -39.28)" fill="#2a4e96"/><path d="M227.32,1016.08c-2.53-57.52-5.28-143-5.28-143l63.46-14.9S239.6,995.64,227.32,1016.08Z" transform="translate(0 -39.28)" fill="#233862"/><path d="M125.65,863s-10.33,12.14-11.26,15.51-2.58,15.5-1.69,19.14S120.45,887.51,123,886s-1.88,5.5-1,6.66,5.78-4.07,7.7-5.84,1.73-11.29,4-16.93S125.65,863,125.65,863Z" transform="translate(0 -39.28)" fill="#ffb27d"/><path d="M123.23,1121.78s-9,8.22-7.25,14.06,9.88,9.72,11,16.86,5.49,11,9.44,11h18.84s2.91-5-4.12-6.53-9.67-9.9-9.23-17.68a136.94,136.94,0,0,0-.66-18.16l-14.93-3.46Z" transform="translate(0 -39.28)" fill="#233862"/><path d="M275.5,874.41s-59.41,127.11-91,182.89S143,1128.63,143,1128.63s-18.12-7.13-19.76-12c0,0,12.09-107.67,33.26-133.91,12-14.84,26-59.34,26.67-74.91S197.7,855.1,197.7,855.1Z" transform="translate(0 -39.28)" fill="#2a4e96"/><path d="M292.87,880.41s-23.63,15.79-57.06,14.33c-14.68-.65-43.78-4.81-48.48-16.48-1.1-2.74-.3-6.21,1.36-11.55C193,852.84,203,826.42,200,767.85a96.6,96.6,0,0,1,.39-15.37c3.15-28.85,19.69-45.93,35.67-51.51,39-13.62,52,5.25,52,5.25s17.23,13.64,19.82,42.13C313,805.32,292.87,880.41,292.87,880.41Z" transform="translate(0 -39.28)" fill="#f99746"/><path d="M247.45,697.7s17.88,10.87,37.27,7.8c0,0,3.84-1,1.95-5.48a57.1,57.1,0,0,0,1.72-6,90.86,90.86,0,0,0,2.22-9.79l-11-11.57-10.43-11.06C266.3,688,247.45,697.7,247.45,697.7Z" transform="translate(0 -39.28)" fill="#ffb27d"/><path d="M267.51,671.61s6,16,20.88,22.4c1.7-6.21,2.81-12.71,2.81-12.71l-11.59-8.65Z" transform="translate(0 -39.28)" fill="#ed985f"/><path d="M303,683.66s-34.13,4.26-36.53-16.71S258,632.4,279.71,628.79s26.85,3.92,29.38,10.74S311.78,682,303,683.66Z" transform="translate(0 -39.28)" fill="#ffb27d"/><path d="M255.66,625.38c-.3-.37-1-.68-2.57-.83a6.42,6.42,0,0,1,3-.72c.41-2.18,1.73-6,5.55-6.83a4.77,4.77,0,0,0-2.43,3.33c4.55-4.33,14.07-7.25,40-4.22,34.16,4,22,25.51,17.5,28s-15.43-5.14-23.72-4.8S282.65,651.5,279.78,653s-1.65-1.32-5.38-3.18-4.32,4.41-3.38,8.54-4.48,9.32-4.48,9.32l-5.05-5.87c-5.05-5.87-9.11-30.09-6.52-35.12C255.2,626.28,255.42,625.83,255.66,625.38Z" transform="translate(0 -39.28)" fill="#1d2a49"/><polygon points="359.9 619.58 301.95 620.1 301.56 611.38 359.32 606.9 359.9 619.58" fill="#2a4e96"/><polygon points="403.64 621.03 340.55 621.95 339.83 606.1 402.74 601.22 403.64 621.03" fill="#2a4e96"/><polygon points="446.18 622.28 392.98 622.35 392.01 600.95 444.99 596.13 446.18 622.28" fill="#233862"/><path d="M446.94,665.17h0a3,3,0,0,0,2.84-3.11l-1.25-27.49a3,3,0,0,0-3.11-2.83h0a3,3,0,0,0-2.83,3.1l1.25,27.49A3,3,0,0,0,446.94,665.17Z" transform="translate(0 -39.28)" fill="#233862"/><path d="M301.77,661.23h0a2.64,2.64,0,0,1-2.76-2.52l-.32-7.13a2.63,2.63,0,0,1,2.52-2.76h0a2.64,2.64,0,0,1,2.76,2.52l.32,7.13A2.63,2.63,0,0,1,301.77,661.23Z" transform="translate(0 -39.28)" fill="#2a4e96"/><path d="M188.69,866.71C193,852.84,203,826.42,200,767.85a96.6,96.6,0,0,1,.39-15.37h0c12.82-1.1,32.43,12.77,32.43,12.77S220.72,838.86,188.69,866.71Z" transform="translate(0 -39.28)" fill="#ed7d2b"/><path d="M247.45,697.7s-32.89,5.65-50,26.59-44.75,50.46-51.27,60.8-24.63,80.7-24.63,80.7,1.19,2.26,6.19,3.58a11.79,11.79,0,0,0,8.25-.69s24-41.07,33-61.58c3.75-8.52,68.63-42.27,93-38.78C271.58,769.7,247.45,697.7,247.45,697.7Z" transform="translate(0 -39.28)" fill="#f99746"/><path d="M359.55,643.68s7.08,4.33,11.31,2.5,3.86-3.51,3.86-3.51S361.93,639.12,359.55,643.68Z" transform="translate(0 -39.28)" fill="#ffb27d"/><path d="M279.36,720.63s-14.44,91.12-116.83,117.65l-11.16,22L171,863.6S287.54,829.83,286,719Z" transform="translate(0 -39.28)" fill="#bc3f3f"/><polygon points="277.12 666.82 272.39 667.28 272.39 674.12 279.36 681.36 285.98 679.75 285.98 670.25 281.22 666.82 277.12 666.82" fill="#a02e2e"/><path d="M258.57,688s-4.57,1-15,9.73c0,0,10.4,22.08,32.35,24.72,0,0-.36-10.25,1.23-16.33C277.12,706.09,259.72,699.86,258.57,688Z" transform="translate(0 -39.28)" fill="#ed7d2b"/><path d="M277.12,706.09s10.71,5.69,11.5,14.54c0,0,4.1-6.48,2.91-11s-4.86-9.64-4.86-9.64S287,705.43,277.12,706.09Z" transform="translate(0 -39.28)" fill="#ed7d2b"/><path d="M522.94,495.9c-10.62,19.37-24,27.91-24,27.91l-57.87.26S531.05,481.12,522.94,495.9Z" transform="translate(0 -39.28)" fill="#233862"/><path d="M481.64,645a5.32,5.32,0,0,0-.83,5.71,0,0,0,0,0,0,0c1.45,3.77,6.07,7.91,11.42,12,.69.53,1.3,1,1.83,1.46l.41.36.31.27c5,4.43,3.18,5.51,12.19,14.53,10.28,10.28,17.21,10.33,19.16,9.33,1.66-.84-1.84-6.33-5.72-12.5-.19-.3-.37-.6-.57-.9l-1.54-2.48c-4.55-7.43-3.49-11-2.67-22.18.67-9.11,13.14-51.06,13.14-51.06l-19.36-2.94S504.27,630,498,635.19c-3.37,2.79-7.21,2.9-10.46,5l-.67.45A25.15,25.15,0,0,0,481.64,645Z" transform="translate(0 -39.28)" fill="#ffb27d"/><path d="M481.64,645a5.32,5.32,0,0,0-.83,5.71,0,0,0,0,0,0,0c1.76,3.76,6.26,7.89,11.44,12,.68.54,1.28,1,1.81,1.5l.41.36.31.27c5,4.43,3.18,5.51,12.19,14.53,10.28,10.28,17.21,10.33,19.16,9.33,1.66-.84-1.84-6.33-5.72-12.5a42.93,42.93,0,0,1-18.21-12.87c-6.21-7.62-10.45-17.48-14.7-23.16l-.67.45A25.15,25.15,0,0,0,481.64,645Z" transform="translate(0 -39.28)" fill="#233862"/><path d="M637,629.85c1.31,5.93,9.78,4.77,19.22,2.26s7.24.3,20.71-1.47,17.46-6.87,17.83-8.89c.33-1.78-6.35-2.28-13.52-3l-2.71-.27c-8.1-.86-14.12-5.95-21.54-10.09-7-3.92-17.73-20.23-17.73-20.23L620.76,590s10,14.56,13.89,20.91c2.28,3.72,2.27,8.72,2.07,12.58A23.6,23.6,0,0,0,637,629.85Z" transform="translate(0 -39.28)" fill="#ffb27d"/><path d="M656.2,632.11c9.44-2.5,7.24.3,20.71-1.47s17.46-6.87,17.83-8.89c.33-1.78-6.35-2.28-13.52-3l-.06.14a38.05,38.05,0,0,1-19.22,6.39c-9.15.4-18.9-2-25.22-1.8a23.6,23.6,0,0,0,.26,6.33C638.29,635.78,646.76,634.62,656.2,632.11Z" transform="translate(0 -39.28)" fill="#233862"/><path d="M563.7,512.87l-16.38,46.91L525.92,621a36.36,36.36,0,0,1-12-.86c-5.44-1.45-11.72-5.42-11.72-5.42s5-65.41,15.95-103.12c2.81-9.68,6-17.52,9.64-22C545.49,467.85,563.7,512.87,563.7,512.87Z" transform="translate(0 -39.28)" fill="#233862"/><path d="M544.65,439.26c-11.41-3.43-43.66,1.91-76,8.91l-7-11.09L391.34,433s-22.14,51.8-8.81,84.26c2,4.77,5.41,7.33,11.72,7.31l3.88-.2s39.21-.22,52.77-.49c34.89-.68,73.37-25.44,78.39-26.55,8.22-1.81,11.84,14.62,20.43,31.78s79,75.17,79,75.17,10.65-.1,15-1.84c4.7-1.87,6.38-4.2,6.38-4.2S570.38,447,544.65,439.26Z" transform="translate(0 -39.28)" fill="#2b478b"/><path d="M450.09,231.2A24.89,24.89,0,0,0,436.53,228a39.64,39.64,0,0,1-6.71-.31c-26.66-3-41.89,35.9-42.6,47.63-1.31,21.61-12.66,25.12-28.46,38.95-31.68,27.74-21.61,59-3.77,70.38,10.71,6.81,29.2-.57,29.2-.57.27.18,50.39-29.34,75.1-43.59C496.64,334.4,465.32,239.86,450.09,231.2Z" transform="translate(0 -39.28)" fill="#233862"/><path d="M438.12,329.17c.11.07-12.21,4.55-20.57,1-7.87-3.29-14-16-13.92-16,3.54-.24,7.38-3.42,10-23.84l1.52.52,25.59,8.64s-1.68,8.19-2.72,16C437.13,322,436.71,328.28,438.12,329.17Z" transform="translate(0 -39.28)" fill="#ffb27d"/><path d="M440.72,299.51s-1.68,8.19-2.72,16c-14.64-2.33-20.66-16.76-22.87-24.61Z" transform="translate(0 -39.28)" fill="#ed975d"/><path d="M444.67,307.53s-34.86-4-32.05-25.65.21-36.78,22.58-35.16,25.62,10.46,26.44,17.92S453.81,308,444.67,307.53Z" transform="translate(0 -39.28)" fill="#ffb27d"/><path d="M460.14,252.82s-21.88,19.62-37,21.46-20.94-2.9-20.94-2.9a59,59,0,0,0,13.91-19.64,10.64,10.64,0,0,1,8.65-6.45C435.57,244.14,456.06,243.31,460.14,252.82Z" transform="translate(0 -39.28)" fill="#233862"/><path d="M446.19,251.38s7.59,7.05,10,12.34c2.37,5.11,3.29,17.42,1.58,22.35,0,0,11.16-22.78,4.37-33.61C455,241,446.19,251.38,446.19,251.38Z" transform="translate(0 -39.28)" fill="#233862"/><path d="M468.41,379.81c.34,70.39.81,55.67-6.76,62.5-1.82,1.65-7,2.71-13.87,3.3-21.55,1.85-59.56-.95-61.08-4.91-5.25-13.7-1.82-18.06-6.39-39.1-.48-2.24-1.06-4.66-1.74-7.3-3.75-14.44-7.22-19.31,4.61-42.86,10.72-21.34,21.95-38.7,23-38.11,29.73,16.87,31.81,2.16,31.81,2.16S468.24,345.47,468.41,379.81Z" transform="translate(0 -39.28)" fill="#9cc4ff"/><path d="M547.32,559.78,525.92,621a36.36,36.36,0,0,1-12-.86c-5.44-1.45-11.72-5.42-11.72-5.42s5-65.41,15.95-103.12Z" transform="translate(0 -39.28)" fill="#2b478b"/><path d="M438,315.48S468.35,320,472.16,333s26.21,89.08,26.21,89.08-15.32,3.07-22.56-3.9-26-65.4-26-65.4Z" transform="translate(0 -39.28)" fill="#9cc4ff"/><path d="M447.78,445.61c-21.55,1.85-59.56-.95-61.08-4.91-5.25-13.7-1.82-18.06-6.39-39.1l9.83-29.52s-1.08,32.67,8.72,41.07,39.73,15.79,44.55,22.87A26.23,26.23,0,0,1,447.78,445.61Z" transform="translate(0 -39.28)" fill="#7da6ef"/><path d="M422.78,432.37s21.2-5.16,24.67-3.34,12,8.53,13.1,10.91-7.68-1.67-10.52-2.37c-1.85-.46-6.64,1.31-9,2.16-10,3.55-16.17,1.94-16.17,1.94Z" transform="translate(0 -39.28)" fill="#ffb27d"/><path d="M406.17,313.32s-28.55,2.32-38.18,16.32c-13.54,19.7-39.54,103.05-23.49,113.78,18.08,12.09,81.24,1.65,81.24,1.65s1.91-9.89-1.11-14.6S373.79,419,371.55,416.85s26.65-43.43,26.52-50S406.17,313.32,406.17,313.32Z" transform="translate(0 -39.28)" fill="#9cc4ff"/><path d="M448.6,434.93s4.57,5.67,6,6.33a4.36,4.36,0,0,0,2.42.47L454,436.37Z" transform="translate(0 -39.28)" fill="#ffb27d"/><path d="M447.45,429l13.09,6a2.31,2.31,0,0,1-2.13.87,30.78,30.78,0,0,1-5.65-1.43Z" transform="translate(0 -39.28)" fill="#ffb27d"/><polygon points="454.82 410.8 557.41 408.77 586.76 331.42 484.33 333.44 454.82 410.8" fill="#f99746"/><polygon points="558.56 405.76 423.08 408.43 423.14 411.42 557.41 408.77 558.56 405.76" fill="#ed7d2b"/><path d="M530.76,410.19c.72-2.72-.88-4.87-3.58-4.82a7,7,0,0,0-6.19,5c-.72,2.71.88,4.87,3.58,4.81A7,7,0,0,0,530.76,410.19Z" transform="translate(0 -39.28)" fill="#fff"/><path d="M336.53,1127.79H1526.15a15,15,0,0,1,15,15v3.29a15,15,0,0,1-15.06,15l-1190-1.33a15,15,0,0,1-14.78-17.79l.36-2A15.05,15.05,0,0,1,336.53,1127.79Z" transform="translate(0 -39.28)" fill="#233862"/></svg>