<svg xmlns="http://www.w3.org/2000/svg" xmlns:xlink="http://www.w3.org/1999/xlink" viewBox="0 0 2867.29 2823.54"><defs><linearGradient id="linear-gradient" x1="218.73" y1="733.96" x2="1366.34" y2="733.96" gradientUnits="userSpaceOnUse"><stop offset="0" stop-color="#aa80f9"/><stop offset="1" stop-color="#6165d7"/></linearGradient><clipPath id="clip-path" transform="translate(-38.63 10.46)"><path d="M993.2,783.07c-10.08-42.66-47.66-349.3-136-405.53C756.46,313.48,688.58,362,656.55,255.87,606.49,90,442.87-37.45,268.47,141.58,96.35,318.28,410.14,875,609.75,962.14c164,124.69,267.47,120.49,318.6,353.64C964.16,1479.1,1031.12,943.44,993.2,783.07Z" fill="none"/></clipPath><linearGradient id="linear-gradient-2" x1="926.14" y1="87.25" x2="1671.19" y2="1313.79" gradientTransform="matrix(0.31, 0.95, 0.95, -0.31, -168.46, 126.48)" gradientUnits="userSpaceOnUse"><stop offset="0" stop-color="#e38ddd"/><stop offset="1" stop-color="#9571f6"/></linearGradient><clipPath id="clip-path-2" transform="translate(-38.63 10.46)"><path d="M1160.69,1386.19c-76.29,91.59-162,195.51-285.58,91.58C772.2,1391.24,707.77,1328.54,556.3,1362s-303.81-26.41-314.77-180.81C230,1018.67,26.23,883,101.28,729.94c130.76-266.66,408,33,528.94,213.71s207.66,40,330.43-21.16C1128.25,839,1222.33,1312.19,1160.69,1386.19Z" fill="none"/></clipPath><linearGradient id="linear-gradient-3" x1="-2569.7" y1="-554.21" x2="-2131.05" y2="2250.06" gradientTransform="matrix(-0.83, -0.55, -0.55, 0.83, 491.39, 189.46)" xlink:href="#linear-gradient"/><clipPath id="clip-path-3" transform="translate(-38.63 10.46)"><path d="M1883.33,2068c39.11,103.21,74.66,209.84,113.48,314,63,2.06,137,2.95,147.19-74.81,14.12-108.11,198.19-158.39,285.95-164.76,108.61-7.89,341.8-46.75,284.93-196.45-47.35-124.62-125.94-182.63,11.87-269.47s189-199.37,116.31-329.55c-76.52-137,51.91-333.8-88-416.9-243.78-144.8-401.59,271.84-375.21,494.5s-98.12,180.25-239.72,231.15c-193.32,69.49-17.51,242.57-85.47,333.37C2001.39,2060.29,1956.19,2049.94,1883.33,2068Z" fill="none"/></clipPath><clipPath id="clip-path-4" transform="translate(-38.63 10.46)"><path d="M2403,1917q-114.75,3.21-230.11,1.23c-1,1.31-53.95-156.49,8.11-255,123.31-191.44-5.22-321.21-49.86-403.64-68.52-115.27-70.91-269.58,70.05-265.37,136.76.93,108.92-275.41,49.12-481.55-37.5-98.85,37.2-239.92,128.52-285.21,92.8-48.71,202.22-1.63,268.12,197,87,228.07-60.25,400.71-103.25,530.28-42.35,127.21,120.19,195.56,20.75,319.16-82.78,108.85-195.82,196.5-130,303.39C2501.15,1682.63,2506.26,1777.48,2403,1917Z" fill="none"/></clipPath><linearGradient id="linear-gradient-4" x1="2085.95" y1="1064.36" x2="2673.92" y2="1064.36" xlink:href="#linear-gradient"/><linearGradient id="linear-gradient-5" x1="424.69" y1="1523.7" x2="2355.75" y2="1523.7" gradientUnits="userSpaceOnUse"><stop offset="0" stop-color="#444b8c"/><stop offset="1" stop-color="#26264f"/></linearGradient><linearGradient id="linear-gradient-6" x1="878.32" y1="2747.87" x2="2751.34" y2="-1773.2" gradientTransform="matrix(1, 0, 0, 1, 0, 0)" xlink:href="#linear-gradient-2"/><linearGradient id="linear-gradient-7" x1="981.44" y1="340.91" x2="1947.33" y2="340.91" xlink:href="#linear-gradient-5"/><linearGradient id="linear-gradient-8" x1="1088.15" y1="1270.66" x2="1158.61" y2="1270.66" gradientUnits="userSpaceOnUse"><stop offset="0" stop-color="#ff9085"/><stop offset="1" stop-color="#fb6fbb"/></linearGradient><linearGradient id="linear-gradient-9" x1="1223.8" y1="1364.27" x2="1293.05" y2="1364.27" xlink:href="#linear-gradient-8"/><linearGradient id="linear-gradient-10" x1="1357.13" y1="1306.11" x2="1425.19" y2="1306.11" xlink:href="#linear-gradient-8"/><linearGradient id="linear-gradient-11" x1="1488.18" y1="1356.82" x2="1555.1" y2="1356.82" xlink:href="#linear-gradient-8"/><linearGradient id="linear-gradient-12" x1="1617.03" y1="1410.38" x2="1682.83" y2="1410.38" xlink:href="#linear-gradient-8"/><linearGradient id="linear-gradient-13" x1="2243.27" y1="4035.71" x2="2263.42" y2="2536.67" xlink:href="#linear-gradient-5"/><linearGradient id="linear-gradient-14" x1="2291.85" y1="4026.84" x2="2311.93" y2="2533.07" xlink:href="#linear-gradient"/><linearGradient id="linear-gradient-15" x1="1911.43" y1="1797.86" x2="2725.16" y2="1797.86" xlink:href="#linear-gradient"/><linearGradient id="linear-gradient-16" x1="1911.42" y1="1924.49" x2="2724.68" y2="1924.49" xlink:href="#linear-gradient"/><linearGradient id="linear-gradient-17" x1="2331.57" y1="1597.52" x2="2276.51" y2="2852.81" gradientTransform="matrix(1, 0, 0, 1, 0, 0)" xlink:href="#linear-gradient-2"/><linearGradient id="linear-gradient-18" x1="2572.61" y1="1736.78" x2="2561.81" y2="1982.98" gradientUnits="userSpaceOnUse"><stop offset="0" stop-color="#311944"/><stop offset="1" stop-color="#a03976"/></linearGradient><linearGradient id="linear-gradient-19" x1="2634.23" y1="1735.71" x2="2623.42" y2="1982.16" xlink:href="#linear-gradient-18"/><linearGradient id="linear-gradient-20" x1="2572.56" y1="1802.32" x2="2561" y2="2066.01" xlink:href="#linear-gradient-18"/><linearGradient id="linear-gradient-21" x1="2634.34" y1="1796.61" x2="2621.99" y2="2078.14" xlink:href="#linear-gradient-18"/><linearGradient id="linear-gradient-22" x1="5485.83" y1="-5766.64" x2="5475.77" y2="-5537.16" gradientTransform="translate(-3121.92 -3672.87) rotate(90)" xlink:href="#linear-gradient-18"/><linearGradient id="linear-gradient-23" x1="5421.64" y1="-5766.66" x2="5411.57" y2="-5537.11" gradientTransform="translate(-3121.92 -3672.87) rotate(90)" xlink:href="#linear-gradient-18"/><linearGradient id="linear-gradient-24" x1="5553.17" y1="-5768.27" x2="5542.27" y2="-5519.81" gradientTransform="translate(-3121.92 -3672.87) rotate(90)" xlink:href="#linear-gradient-18"/><linearGradient id="linear-gradient-25" x1="2742.59" y1="1715.67" x2="1457.51" y2="2430.55" gradientUnits="userSpaceOnUse"><stop offset="0" stop-color="#444b8c"/><stop offset="1" stop-color="#3e4177"/></linearGradient><linearGradient id="linear-gradient-26" x1="2770.11" y1="1801.09" x2="1525.33" y2="2493.55" xlink:href="#linear-gradient-25"/><linearGradient id="linear-gradient-27" x1="2795.09" y1="1881.23" x2="1587.34" y2="2553.09" xlink:href="#linear-gradient-25"/><linearGradient id="linear-gradient-28" x1="2829.12" y1="1956.41" x2="1657.87" y2="2607.96" xlink:href="#linear-gradient-25"/><linearGradient id="linear-gradient-29" x1="2807.68" y1="1817.25" x2="1516.32" y2="2535.62" xlink:href="#linear-gradient-25"/><linearGradient id="linear-gradient-30" x1="2832.33" y1="1901.81" x2="1581.48" y2="2597.65" xlink:href="#linear-gradient-25"/><linearGradient id="linear-gradient-31" x1="2854.67" y1="1981.14" x2="1641.03" y2="2656.27" xlink:href="#linear-gradient-25"/><linearGradient id="linear-gradient-32" x1="2886.13" y1="2055.46" x2="1709.18" y2="2710.19" xlink:href="#linear-gradient-25"/><linearGradient id="linear-gradient-33" x1="2873.27" y1="1915.21" x2="1575.79" y2="2636.99" xlink:href="#linear-gradient-25"/><linearGradient id="linear-gradient-34" x1="2895.06" y1="1998.98" x2="1638.28" y2="2698.11" xlink:href="#linear-gradient-25"/><linearGradient id="linear-gradient-35" x1="2914.75" y1="2077.55" x2="1695.38" y2="2755.87" xlink:href="#linear-gradient-25"/><linearGradient id="linear-gradient-36" x1="2943.65" y1="2151.07" x2="1761.14" y2="2808.89" xlink:href="#linear-gradient-25"/><linearGradient id="linear-gradient-37" x1="2939.35" y1="2009.57" x2="1635.9" y2="2734.67" xlink:href="#linear-gradient-25"/><linearGradient id="linear-gradient-38" x1="2958.28" y1="2092.61" x2="1695.73" y2="2794.95" xlink:href="#linear-gradient-25"/><linearGradient id="linear-gradient-39" x1="2975.33" y1="2170.47" x2="1750.37" y2="2851.91" xlink:href="#linear-gradient-25"/><linearGradient id="linear-gradient-40" x1="3006.3" y1="2112.91" x2="1696.46" y2="2841.56" xlink:href="#linear-gradient-25"/><linearGradient id="linear-gradient-41" x1="3022.28" y1="2195.09" x2="1753.55" y2="2900.87" xlink:href="#linear-gradient-25"/><linearGradient id="linear-gradient-42" x1="3036.62" y1="2272.14" x2="1805.67" y2="2956.91" xlink:href="#linear-gradient-25"/><linearGradient id="linear-gradient-43" x1="3027.68" y1="2294.96" x2="1844.13" y2="2953.36" xlink:href="#linear-gradient-25"/><linearGradient id="linear-gradient-44" x1="2055.71" y1="2018.09" x2="2034.51" y2="2501.53" xlink:href="#linear-gradient-5"/><linearGradient id="linear-gradient-45" x1="2246.17" y1="2010.96" x2="2225.37" y2="2485.27" xlink:href="#linear-gradient-5"/><linearGradient id="linear-gradient-46" x1="2436.68" y1="2003.82" x2="2416.28" y2="2469.04" xlink:href="#linear-gradient-5"/><linearGradient id="linear-gradient-47" x1="2620.78" y1="1996.91" x2="2600.76" y2="2453.38" xlink:href="#linear-gradient-5"/><linearGradient id="linear-gradient-48" x1="2055.68" y1="2154.45" x2="2034.14" y2="2645.73" xlink:href="#linear-gradient-5"/><linearGradient id="linear-gradient-49" x1="2246.05" y1="2145.05" x2="2224.92" y2="2626.95" xlink:href="#linear-gradient-5"/><linearGradient id="linear-gradient-50" x1="2436.47" y1="2135.65" x2="2415.74" y2="2608.19" xlink:href="#linear-gradient-5"/><linearGradient id="linear-gradient-51" x1="2620.48" y1="2126.55" x2="2600.15" y2="2590.09" xlink:href="#linear-gradient-5"/><linearGradient id="linear-gradient-52" x1="2055.66" y1="2287.51" x2="2033.77" y2="2786.46" xlink:href="#linear-gradient-5"/><linearGradient id="linear-gradient-53" x1="2245.93" y1="2275.9" x2="2224.47" y2="2765.21" xlink:href="#linear-gradient-5"/><linearGradient id="linear-gradient-54" x1="2436.26" y1="2264.28" x2="2415.22" y2="2743.99" xlink:href="#linear-gradient-5"/><linearGradient id="linear-gradient-55" x1="2620.19" y1="2253.05" x2="2599.56" y2="2723.51" xlink:href="#linear-gradient-5"/><linearGradient id="linear-gradient-56" x1="2055.63" y1="2417.27" x2="2033.42" y2="2923.73" xlink:href="#linear-gradient-5"/><linearGradient id="linear-gradient-57" x1="2245.82" y1="2403.51" x2="2224.04" y2="2900.07" xlink:href="#linear-gradient-5"/><linearGradient id="linear-gradient-58" x1="2436.06" y1="2389.73" x2="2414.71" y2="2876.44" xlink:href="#linear-gradient-5"/><linearGradient id="linear-gradient-59" x1="2055.6" y1="2556.38" x2="2033.04" y2="3070.91" xlink:href="#linear-gradient-5"/><linearGradient id="linear-gradient-60" x1="2245.69" y1="2540.31" x2="2223.57" y2="3044.68" xlink:href="#linear-gradient-5"/><linearGradient id="linear-gradient-61" x1="2435.85" y1="2524.23" x2="2414.17" y2="3018.47" xlink:href="#linear-gradient-5"/><linearGradient id="linear-gradient-62" x1="2625.43" y1="2312.88" x2="2572.12" y2="3528.32" xlink:href="#linear-gradient-5"/><linearGradient id="linear-gradient-63" x1="2345.26" y1="1422.6" x2="2146.47" y2="1486.4" gradientUnits="userSpaceOnUse"><stop offset="0" stop-color="#fcb148"/><stop offset="0.05" stop-color="#fdba46"/><stop offset="0.14" stop-color="#ffc244"/><stop offset="0.32" stop-color="#ffc444"/><stop offset="0.48" stop-color="#fdb946"/><stop offset="0.78" stop-color="#f99c4d"/><stop offset="0.87" stop-color="#f8924f"/><stop offset="1" stop-color="#f8924f"/></linearGradient><linearGradient id="linear-gradient-64" x1="2506.07" y1="1224.73" x2="2328.6" y2="1616.26" gradientUnits="userSpaceOnUse"><stop offset="0" stop-color="#ffdb44"/><stop offset="1" stop-color="#feef06"/></linearGradient><linearGradient id="linear-gradient-65" x1="2473.42" y1="1638.14" x2="2439.18" y2="1451.07" xlink:href="#linear-gradient-63"/><linearGradient id="linear-gradient-66" x1="2400.82" y1="1335.35" x2="2541.94" y2="1634.92" xlink:href="#linear-gradient-63"/><linearGradient id="linear-gradient-67" x1="2395.2" y1="1270.89" x2="2466.16" y2="1536.83" xlink:href="#linear-gradient-64"/><linearGradient id="linear-gradient-68" x1="2359.3" y1="1354.74" x2="2500.14" y2="1653.7" xlink:href="#linear-gradient-63"/><linearGradient id="linear-gradient-69" x1="797.83" y1="2612.25" x2="819.7" y2="2890.7" gradientTransform="matrix(-1, 0, 0, 1, 1583.29, 2.17)" xlink:href="#linear-gradient-18"/><linearGradient id="linear-gradient-70" x1="854.31" y1="2767.27" x2="850.33" y2="2478.88" gradientTransform="matrix(-1, 0, 0, 1, 1583.29, 2.17)" gradientUnits="userSpaceOnUse"><stop offset="0" stop-color="#ffc444"/><stop offset="1" stop-color="#f36f56"/></linearGradient><linearGradient id="linear-gradient-71" x1="1211.27" y1="2579.77" x2="1233.15" y2="2858.21" gradientTransform="matrix(-1, 0, 0, 1, 1583.29, 2.17)" xlink:href="#linear-gradient-18"/><linearGradient id="linear-gradient-72" x1="1233.21" y1="2762.04" x2="1229.23" y2="2473.65" xlink:href="#linear-gradient-70"/><linearGradient id="linear-gradient-73" x1="785.48" y1="2300.09" x2="998.71" y2="2300.09" gradientTransform="matrix(-1, 0, 0, 1, 1583.29, 2.17)" xlink:href="#linear-gradient-25"/><linearGradient id="linear-gradient-74" x1="785.48" y1="2300.1" x2="998.7" y2="2300.1" gradientTransform="matrix(-1, 0, 0, 1, 1583.29, 2.17)" xlink:href="#linear-gradient-25"/><linearGradient id="linear-gradient-75" x1="844.68" y1="2279.07" x2="1273.92" y2="2279.07" gradientTransform="matrix(-1, 0, 0, 1, 1583.29, 2.17)" xlink:href="#linear-gradient-25"/><linearGradient id="linear-gradient-76" x1="630.65" y1="3191.69" x2="630.65" y2="1582.29" xlink:href="#linear-gradient-63"/><linearGradient id="linear-gradient-77" x1="302.65" y1="1409.78" x2="257.1" y2="1811.61" gradientTransform="matrix(-1, 0, 0, 1, 789.41, 0)" xlink:href="#linear-gradient-70"/><linearGradient id="linear-gradient-78" x1="2178.11" y1="2175.01" x2="2104.95" y2="1989.2" gradientTransform="matrix(-1, 0.05, 0.05, 1, 2534.17, -884)" xlink:href="#linear-gradient-25"/><linearGradient id="linear-gradient-79" x1="274.28" y1="1252.13" x2="310.07" y2="1548.22" gradientTransform="matrix(-1, 0, 0, 1, 789.41, 0)" xlink:href="#linear-gradient-70"/><linearGradient id="linear-gradient-80" x1="691.81" y1="1704.21" x2="981.78" y2="1704.21" gradientTransform="matrix(1, 0, 0, 1, 0, 0)" xlink:href="#linear-gradient-70"/><linearGradient id="linear-gradient-81" x1="247.16" y1="3191.69" x2="247.16" y2="1582.29" xlink:href="#linear-gradient-63"/><linearGradient id="linear-gradient-82" x1="-28.15" y1="1828.2" x2="680.34" y2="1828.2" gradientTransform="matrix(-1, 0, 0, 1, 789.41, 0)" xlink:href="#linear-gradient-70"/><linearGradient id="linear-gradient-83" x1="238.16" y1="1799.94" x2="1056.41" y2="1799.94" xlink:href="#linear-gradient-5"/><linearGradient id="linear-gradient-84" x1="-1362.77" y1="1685.61" x2="-455.27" y2="1685.61" gradientTransform="matrix(-0.95, 0.3, 0.3, 0.95, 4.48, -67.64)" xlink:href="#linear-gradient-5"/><linearGradient id="linear-gradient-85" x1="-5433.11" y1="2212.62" x2="-5890.05" y2="1701" gradientTransform="translate(7420.3 700.14) rotate(12.14)" xlink:href="#linear-gradient-5"/><linearGradient id="linear-gradient-86" x1="-6104.82" y1="1465.62" x2="-5485.09" y2="2147.85" gradientTransform="translate(7420.3 700.14) rotate(12.14)" xlink:href="#linear-gradient-5"/><linearGradient id="linear-gradient-87" x1="295.22" y1="1902.22" x2="465.54" y2="2420.15" gradientTransform="matrix(1, 0, 0, 1, 0, 0)" xlink:href="#linear-gradient-70"/><linearGradient id="linear-gradient-88" x1="-2419.33" y1="4466.82" x2="-2652.97" y2="4940.59" gradientTransform="matrix(-0.17, 0.98, 0.98, 0.17, -3849.06, 3227.52)" xlink:href="#linear-gradient-70"/><linearGradient id="linear-gradient-89" x1="2401.22" y1="931.81" x2="2124.48" y2="1020.62" xlink:href="#linear-gradient-63"/><linearGradient id="linear-gradient-90" x1="2625.09" y1="656.34" x2="2378.03" y2="1201.4" xlink:href="#linear-gradient-64"/><linearGradient id="linear-gradient-91" x1="2579.64" y1="1231.86" x2="2531.97" y2="971.44" xlink:href="#linear-gradient-63"/><linearGradient id="linear-gradient-92" x1="2478.57" y1="810.34" x2="2675.03" y2="1227.38" xlink:href="#linear-gradient-63"/><linearGradient id="linear-gradient-93" x1="2470.75" y1="720.59" x2="2569.53" y2="1090.83" xlink:href="#linear-gradient-64"/><linearGradient id="linear-gradient-94" x1="2420.78" y1="837.33" x2="2616.84" y2="1253.53" xlink:href="#linear-gradient-63"/></defs><title>hero-services-background</title><g style="isolation:isolate"><g id="Illustration"><path d="M1230.55,63.26C895.66,69,377.52,191.34,228.38,505.87c-52.09,109.86-48.56,271.36-41.51,594.35,2.07,94.94,5.51,233.31,29.65,405C266.66,1861.87,300.8,2104.67,430,2246c323.73,354.25,1493.11,344,1992.48-293.75,272.4-347.9,314.31-842.8,65.23-1251.81C2213.47,250.17,1678.88,55.65,1230.55,63.26Z" transform="translate(-38.63 10.46)" fill="#f4f7fa"/><path d="M923.32,1304.84c6.64,38.38,7.79,70.68,12.53,108.47,139.16-86.94,289.25-145.24,430.49-233.13-182.41-112.8-310-136.46-368-378.25C971,688.45,950.56,456.83,858.21,382.07c-105.2-85.17-168.6-14.4-201.3-124.24C605.81,86.14,443-36.09,268.58,142,96.45,317.75,409.46,874.35,610.42,963.26,766.26,1073.19,888.65,1104.44,923.32,1304.84Z" transform="translate(-38.63 10.46)" fill="url(#linear-gradient)"/><g clip-path="url(#clip-path)"><path d="M1149.41,1275.63c-39.11-46.22-82.32-89.92-124.11-132.18l-15.82-16c-33.55-34-63-65-88.89-92.39-14.59-15.39-28.37-29.94-41.85-43.92-41.18-42.75-70.09-72.59-84.47-87.44l-9.53-9.83C671.82,776.57,561.51,575.63,502.24,467.69c-6.42-11.7-12.17-22.17-17.15-31.12C399.52,282.82,292.06,133.08,165.7-8.49l2.21-2C294.42,131.27,402,281.19,487.68,435.13c5,9,10.73,19.42,17.16,31.13,59.2,107.83,169.39,308.54,282,425.53,1.46,1.52,4.66,4.82,9.51,9.83,14.39,14.85,43.3,44.7,84.48,87.44,13.49,14,27.27,28.54,41.87,43.94,25.93,27.36,55.32,58.37,88.85,92.36l15.82,16c41.82,42.3,85.08,86,124.26,132.34Z" transform="translate(-38.63 10.46)" fill="#fcfdfe"/><path d="M938.88,1060.44C868,979.4,817.29,855.63,792.36,702.5c-20.76-127.56-22.45-271.43-4.63-394.72l2.93.42c-17.78,123-16.09,266.55,4.63,393.82,24.83,152.59,75.26,275.85,145.82,356.48Z" transform="translate(-38.63 10.46)" fill="#fcfdfe"/><path d="M511.61,485.08c-23.05-90.24-34.84-183.92-46.23-274.52-7.79-62-15.86-126.15-27.47-188.65l2.91-.54c11.63,62.59,19.7,126.76,27.5,188.82,11.38,90.51,23.15,184.1,46.16,274.15Z" transform="translate(-38.63 10.46)" fill="#fcfdfe"/><path d="M666.93,744.12C565.87,663,393.77,600.32,298.65,609.85l-.29-2.94c95.76-9.66,268.86,53.4,370.43,134.9Z" transform="translate(-38.63 10.46)" fill="#fcfdfe"/></g><path d="M629.42,940.75c113.93,164.16,201.08,80.74,317-20.9,49.79,179.33,104.87,352.1,161.38,527.25-78.59,66.87-136.13,113.31-231.44,32-107.8-91.95-167-148.59-319.74-116.84s-303.64-25.6-315-181.18c-12-163.73-215-296.09-140.37-451.25C231.28,459.49,510.79,769.8,629.42,940.75Z" transform="translate(-38.63 10.46)" fill="url(#linear-gradient-2)"/><g clip-path="url(#clip-path-2)"><path d="M1002.7,1236.46c-168.29-7.68-308.3-18.75-450.26-84.22-135.87-62.65-228.16-153.41-308.61-303.47C202.13,771,163.44,720,109.18,651l2.33-1.84c54.36,69.11,93.11,120.24,134.93,198.24,80.12,149.45,172,239.83,307.24,302.18,141.47,65.24,281.19,76.29,449.15,84Z" transform="translate(-38.63 10.46)" fill="#fcfdfe"/><path d="M922.43,1535.7l-2.85-.82c15.25-53.29,36.15-100.28,63.91-143.65,14.2-22.18,30.78-40.2,51.3-60.44l2.08,2.11c-20.38,20.1-36.83,38-50.88,59.93C958.38,1436,937.59,1482.69,922.43,1535.7Z" transform="translate(-38.63 10.46)" fill="#fcfdfe"/><path d="M258.47,1310.27l-1.73-2.41C376.92,1222,513.47,1178,641.29,1184.07l-.14,3C514,1181,378.1,1224.76,258.47,1310.27Z" transform="translate(-38.63 10.46)" fill="#fcfdfe"/><path d="M346.85,1001.41c-7.52-13-38.58-135.18-65.15-245.19C255,645.77,227.77,526.52,228.32,518.15l3,.19c-.46,7.13,23.45,113.53,53.31,237.19,26.52,109.81,57.47,231.67,64.83,244.4Z" transform="translate(-38.63 10.46)" fill="#fcfdfe"/></g><path d="M2115.72,2334.38c-16-1.29-49.69-18.2-56.65-26.23-46.33-53.43-139.58-147.83-138.79-222.59.14-12.76,56.46-27.33,63.87-39.4,33.66-18,46.46-22.16,70-55,69.64-96.94-107.93-264.08,85.86-335.19,142-52.09,266.08-8.31,239.77-231.3s131.45-639.27,375.24-494.6c139.91,83,11.45,279.94,88,416.91,72.73,130.16,21.49,242.68-116.32,329.55s-59.16,144.75-11.87,269.49c56.8,149.85-176.08,188.12-285.1,196.62C2342,2149.5,2123.05,2226.16,2115.72,2334.38Z" transform="translate(-38.63 10.46)" fill="url(#linear-gradient-3)"/><g clip-path="url(#clip-path-3)"><path d="M1992,2203.21l-1.67-3.05c231.68-127.07,418.18-321.69,539.35-562.81,115.28-229.42,170.28-496.44,159-772.17l3.47-.14c11.27,276.32-43.85,543.92-159.4,773.87C2411.29,1880.67,2224.29,2075.8,1992,2203.21Z" transform="translate(-38.63 10.46)" fill="#fcfdfe"/><path d="M2236.51,2027.48l-1.16-3.28c142.62-50.44,371.94-60.27,511.19-21.92l-.92,3.36C2606.94,1967.44,2378.56,1977.23,2236.51,2027.48Z" transform="translate(-38.63 10.46)" fill="#fcfdfe"/><path d="M2081.94,2152.52l-2.45-2.46c55.54-55.22,81-136.39,75.76-241.27-3.86-76.9-23.86-164.52-59.45-260.43l3.26-1.21c35.71,96.24,55.79,184.21,59.67,261.46C2164,2014.52,2138.21,2096.58,2081.94,2152.52Z" transform="translate(-38.63 10.46)" fill="#fcfdfe"/><path d="M2547.9,1605.64l-2.57-2.33c99.35-109.49,250.75-144.8,360.26-155.14l.33,3.46C2797,1461.91,2646.5,1497,2547.9,1605.64Z" transform="translate(-38.63 10.46)" fill="#fcfdfe"/><path d="M2657.24,1285.36l-3.48-.08c1.73-71.46-16.76-215.55-160-377.65l2.6-2.31C2640.39,1068.32,2659,1213.39,2657.24,1285.36Z" transform="translate(-38.63 10.46)" fill="#fcfdfe"/></g><g clip-path="url(#clip-path-4)"><path d="M2403,1917q-114.75,3.21-230.11,1.23c-1,1.31-53.95-156.49,8.11-255,123.31-191.44-5.22-321.21-49.86-403.64-68-115.26-67.15-253.17,58.1-277.21C2327.64,953,2312.37,718,2250.27,512.67c-37.5-98.85,37.2-239.92,128.52-285.21,92.8-48.71,202.22-1.63,268.12,197,87,228.07-60.25,400.71-103.25,530.28-42.35,127.21,120.19,195.56,20.75,319.16-82.78,108.85-195.82,196.5-130,303.39C2501.15,1682.63,2506.26,1777.48,2403,1917Z" transform="translate(-38.63 10.46)" fill="url(#linear-gradient-4)"/><path d="M2301.69,1944.69c-.27-1.43,11-355,75.61-708.51,7.52-56.71,16.43-114.14,25-169.69,23.07-148.74,46.93-302.53,45-451.14-2.18-166.09-37.08-309.9-106.68-439.63l3.06-1.64c69.88,130.23,104.91,274.56,107.1,441.23,2,148.89-21.92,302.83-45,451.71-8.61,55.53-17.52,113-25.05,169.7-64.58,353.66-75.77,705.38-75.61,707.44Z" transform="translate(-38.63 10.46)" fill="#fcfdfe"/><path d="M2444.2,779.7l-2.94-1.84C2508.14,670.9,2585.38,522,2626.87,442c33.43-64.45,33.69-64.46,35.66-64.5l.07,3.48,0-1.74,1,1.38c-2,2-15.93,28.91-33.61,63C2588.44,523.67,2511.17,672.63,2444.2,779.7Z" transform="translate(-38.63 10.46)" fill="#fcfdfe"/><path d="M2446.7,648.57C2411,545.88,2355.23,484,2314.78,450.11c-44.21-37-81.85-50.47-85.79-50.47h-.06l0-1.29-1.55-1.62c.81-.76,2-.66,3.94-.2,30.29,7.29,156.16,71.24,218.71,250.9Z" transform="translate(-38.63 10.46)" fill="#fcfdfe"/><path d="M2342.28,1465.82c-5.58-100.51-47.14-202.38-123.52-302.78-39.84-52.37-87.65-102.12-142.1-147.89-4-3.32-5.35-4.5-5.84-5.07l2.66-2.24c.36.4,2.7,2.37,5.41,4.65,54.65,45.93,102.64,95.87,142.64,148.44,76.8,101,118.6,203.48,124.22,304.7Z" transform="translate(-38.63 10.46)" fill="#fcfdfe"/><path d="M2361.11,1356.12l-3.23-1.29c64-160,250.38-203.24,252.66-203.24h0l1.56,1.38-.88,1.89-.82-1.51.16,1.7c-.39,0-47.29,10.39-102.76,41.77C2458.87,1224.5,2393.7,1274.61,2361.11,1356.12Zm248.46-204.32.83,1.53Z" transform="translate(-38.63 10.46)" fill="#fcfdfe"/><path d="M2304.35,1886.81c-5.95-43.12-34.11-113.47-134.44-203.73-5.51-5-5.51-5-5.55-5.92l1.74-.05,1.45-.94c.32.4,2.34,2.22,4.68,4.32,101.11,91,129.53,162.15,135.56,205.84Z" transform="translate(-38.63 10.46)" fill="#fcfdfe"/><path d="M2312.53,1802.28l-3.45-.37c3.72-34.31,29.71-104.81,161.9-191.53,1.82-1.19,3-2,3.41-2.27l2.1,2.77c-.43.33-1.67,1.15-3.6,2.41C2341.89,1699.22,2316.19,1768.58,2312.53,1802.28Z" transform="translate(-38.63 10.46)" fill="#fcfdfe"/></g><path d="M2297.07,402.23,503.2,298.46c-41.32-2-78.51,43.07-78.51,80.92V2689.32c0,52.5,53.63,63.07,94.95,58.85l1777.43-181.52c32.47-3.32,58.68-33,58.68-66.38V465.48C2355.75,432.13,2329.54,403.82,2297.07,402.23Z" transform="translate(-38.63 10.46)" fill="url(#linear-gradient-5)"/><path d="M2326.57,383.88,529.16,295.46c-41.32-2-75,27.24-75,65.4v2328c0,38.15,33.64,65.62,75,61.37l1797.41-185c32.47-3.34,58.68-33.29,58.68-66.89V447.62C2385.25,414,2359,385.48,2326.57,383.88Z" transform="translate(-38.63 10.46)" fill="#d8dee8"/><path d="M529.16,2718.64c-22.28,2.25-40.46-12.64-40.46-33.2v-2323c0-20.56,18.18-36.43,40.46-35.38l1797.41,84.91c17.56.83,31.8,16.29,31.8,34.48V2501c0,18.18-14.24,34.41-31.8,36.19Z" transform="translate(-38.63 10.46)" fill="url(#linear-gradient-6)"/><polygon points="2172.1 2492.52 634.77 2640.64 634.77 497.45 2172.1 555.35 2172.1 2492.52" fill="#fff"/><path d="M1595.84,555.37l-614.4,7.69L995.22,424.5c1-18,14-32.79,31.19-35.42l104-16a37.45,37.45,0,0,0,28.16-21.6L1169.9,327l272.16,16.81Z" transform="translate(-38.63 10.46)" fill="#97a6b7" opacity="0.3" style="mix-blend-mode:multiply"/><path d="M1923.94,465.48c-2.92-15.68-15.48-26.68-31.3-27.39l-98.18-4.4c-44.56-2-77.22-38.2-75.59-84.05l3.79-106.25c.7-19.65-13.33-35.4-32.62-36.55l-32.26-1.93c-24.59-1.47-41-23.15-37.52-48.22,6-43.82-24-81.63-67.5-84.6-43.85-3-84.78,30.52-91.31,74.89a49.29,49.29,0,0,1-6.82,18.93c-10.13,16.25-27.89,25.2-45.27,24.16l-33.28-2c-20.16-1.2-39.31,12.95-44.42,32.86L1304,328.8c-12,46.64-57.1,80.35-105,78.2l-107.69-4.83c-17.64-.79-35,9.49-43.07,25.61l-64.9,128.77c-5.32,10.55,1.23,21.94,12.81,22.33l933.94,31c10.22.34,18.89-9.85,17-20ZM1539.52,164.06c-12.86-.8-21.79-12-19.92-25s13.83-22.85,26.69-22,21.71,12,19.84,25S1552.36,164.85,1539.52,164.06Z" transform="translate(-38.63 10.46)" fill="url(#linear-gradient-7)"/><path d="M1929.47,468.36c-2.92-15.68-15.48-26.68-31.3-27.39l-98.18-4.4c-44.56-2-77.22-38.2-75.59-84.05l3.79-106.25c.7-19.65-13.33-35.4-32.62-36.55l-32.25-1.93c-24.6-1.47-41-23.15-37.53-48.22,6-43.82-24-81.63-67.5-84.6-43.85-3-84.78,30.52-91.3,74.89a49.31,49.31,0,0,1-6.83,18.93C1450,185,1432.28,194,1414.89,193l-33.27-2c-20.16-1.2-39.32,12.95-44.43,32.86l-27.67,107.86c-12,46.64-57.09,80.35-105,78.2l-107.69-4.83c-17.64-.79-35,9.49-43.07,25.61l-64.9,128.77c-5.31,10.55,1.23,21.94,12.81,22.33l933.94,31c10.22.34,18.89-9.85,17-20ZM1545.05,166.94c-12.86-.8-21.79-12-19.92-25s13.83-22.85,26.69-22,21.71,12,19.85,25S1557.9,167.73,1545.05,166.94Z" transform="translate(-38.63 10.46)" fill="#97a6b7"/><path d="M1769.64,527.54c-83.31-51.43-147.23-15-199.15-73-55.59-62.1-18.1-143.84-75.61-182.42-36.82-24.69-69.66-2.91-112.48-9.6-15.68-2.44-32.41-8.68-49.8-20.83l-23.08,90c-12,46.64-57.09,80.35-105,78.2l-107.69-4.83c-17.64-.79-35,9.5-43.07,25.61l-64.9,128.77c-5.31,10.55,1.23,21.94,12.81,22.33L1850.41,610C1829,576,1802.47,547.8,1769.64,527.54Z" transform="translate(-38.63 10.46)" fill="#fff" opacity="0.5" style="mix-blend-mode:soft-light"/><polygon points="1738.38 834.03 1163.16 827.72 1163.16 758.71 1738.38 767.56 1738.38 834.03" fill="#97a6b7"/><polygon points="1158.61 1578.65 1088.15 1581.27 1088.15 960.05 1158.61 960.22 1158.61 1578.65" fill="url(#linear-gradient-8)"/><polygon points="1293.05 1573.66 1223.8 1576.23 1223.8 1152.99 1293.05 1152.31 1293.05 1573.66" fill="url(#linear-gradient-9)"/><polygon points="1425.19 1568.76 1357.13 1571.28 1357.13 1041.12 1425.19 1040.93 1425.19 1568.76" fill="url(#linear-gradient-10)"/><polygon points="1555.1 1563.93 1488.18 1566.42 1488.18 1147.88 1555.1 1147.23 1555.1 1563.93" fill="url(#linear-gradient-11)"/><polygon points="1682.83 1559.19 1617.03 1561.63 1617.03 1260.26 1682.83 1259.13 1682.83 1559.19" fill="url(#linear-gradient-12)"/><polygon points="1808.43 1554.53 1743.73 1556.93 1743.73 961.67 1808.43 961.83 1808.43 1554.53" fill="#d8dee8"/><polygon points="1931.96 1549.94 1868.32 1552.3 1868.32 1374.96 1931.96 1373.36 1931.96 1549.94" fill="#d8dee8"/><polygon points="2053.46 1545.43 1990.87 1547.75 1990.87 1077.93 2053.46 1077.6 2053.46 1545.43" fill="#d8dee8"/><polygon points="2053.46 1798.05 823.65 1864.82 823.65 1799.95 2053.46 1738.18 2053.46 1798.05" fill="#d8dee8"/><polygon points="2053.46 1683.52 823.65 1740.71 823.65 1675.84 2053.46 1623.64 2053.46 1683.52" fill="#d8dee8"/><polygon points="2053.46 2261.42 823.65 2366.9 823.65 2302.03 2053.46 2201.54 2053.46 2261.42" fill="#d8dee8"/><polygon points="1295.24 1927.72 1295.24 2174.08 808.36 2211.05 808.36 1956.94 1295.24 1927.72" fill="#d8dee8" opacity="0.5"/><path d="M847,2094.82v105.76l486.89-37v-190.9c-27.83-8.84-61.29-12.59-86.83,5.71-53.54,38.4-46.72,58.19-102.55,51.8-43.72-5-92.37-9.14-129.89,22.62-23.25,19.69-35.21,39.94-68.74,39.32C914.31,2091.58,877.54,2071.93,847,2094.82Z" transform="translate(-38.63 10.46)" fill="#d8dee8"/><polygon points="2053.46 1926.48 1409.52 1967.06 1409.52 1920.87 2053.46 1882.22 2053.46 1926.48" fill="#d8dee8"/><polygon points="2053.46 2020.19 1409.52 2064.87 1409.52 2021.4 2053.46 1978.54 2053.46 2020.19" fill="#d8dee8"/><polygon points="2053.46 2116.51 1409.52 2165.4 1409.52 2119.21 2053.46 2072.25 2053.46 2116.51" fill="#d8dee8"/><polygon points="973.47 1015.57 820.52 1015.71 820.52 956.66 973.47 957.09 973.47 1015.57" fill="#d8dee8"/><polygon points="973.47 1160.04 820.52 1161.58 820.52 1102.54 973.47 1101.56 973.47 1160.04" fill="#d8dee8"/><polygon points="973.47 1301.08 820.52 1303.98 820.52 1244.94 973.47 1242.6 973.47 1301.08" fill="#d8dee8"/><polygon points="973.47 1445.55 820.52 1449.85 820.52 1390.81 973.47 1387.07 973.47 1445.55" fill="#d8dee8"/><polygon points="973.47 1586.58 820.52 1592.26 820.52 1533.21 973.47 1528.11 973.47 1586.58" fill="#d8dee8"/><path d="M2679.3,1714.15l-2.61,884.61c-.13,43.37-35.2,82.83-79.16,87.33l-646.72,66.2c-49.81,5.1-90.57-29.34-90.57-76V1724.11c0-44.2,36.17-80.66,82.06-85.08,2.93-.28,5.91-.38,8.9-.39l649.13-3.1A78.1,78.1,0,0,1,2679.3,1714.15Z" transform="translate(-38.63 10.46)" fill="url(#linear-gradient-13)"/><path d="M2725.15,1713.5l-2.71,881.87c-.13,43.24-33.17,82.38-76.84,86.85L2003.31,2748c-49.47,5.07-92-29.06-92-75.57l.13-949c0-44.05,36.94-80.4,82.52-84.8,2.9-.28,6.88-.38,9.85-.4l644.7-3.07C2692.35,1634.92,2725.29,1670,2725.15,1713.5Z" transform="translate(-38.63 10.46)" fill="url(#linear-gradient-14)"/><g opacity="0.3" style="mix-blend-mode:multiply"><path d="M2725.16,1712.25l-.69,221.64-813,26.71,0-238.55c0-43,35.25-78,79.29-83.74,3.94-.53,9-.09,13.08-.11l644.7-3.07C2692.35,1634.92,2725.29,1668.71,2725.16,1712.25Z" transform="translate(-38.63 10.46)" fill="url(#linear-gradient-15)"/><path d="M2724.68,1865.77l-.28,92.1c-78.88,25-224.05,45.12-390.63,51.54-73.57,2.84-144.69,2.74-209,.08-85.6-3.55-157.87-11.64-213.38-23.08l0-99.12c20.89-5.14,40.08-9.91,62.85-14.41,49.51-9.77,109.11-18,174.24-24.07,58.19-5.43,121.34-9.1,186.48-10.6,83.81-1.93,161.64,0,228.53,4.86,5.2.37,10.39.78,15.46,1.19,16,1.32,31.36,2.8,46,4.47,5.17.58,10.26,1.18,15.24,1.82,11.46,1.44,21.3,3,31.72,4.65C2691.91,1858.36,2709.62,1861.89,2724.68,1865.77Z" transform="translate(-38.63 10.46)" fill="url(#linear-gradient-16)"/></g><path d="M2685.35,1887.08a24.87,24.87,0,0,1-24,24.59l-667.27,20.41c-15,.46-27.13-10.57-27.12-24.63l0-159.36c0-14.08,12.18-25.64,27.16-25.83l667.74-8.11a23.48,23.48,0,0,1,23.88,23.6Z" transform="translate(-38.63 10.46)" fill="#fff"/><path d="M2670.18,1884.18a15.72,15.72,0,0,1-15.19,15.53l-664,19.56c-9.45.28-17.12-6.69-17.12-15.57l.06-158.63c0-8.88,7.69-16.19,17.15-16.31l664.43-8.45a14.84,14.84,0,0,1,15.1,14.92Z" transform="translate(-38.63 10.46)" fill="url(#linear-gradient-17)"/><path d="M2578.4,1795.8c0,4.13-3.41,6.84-7.59,6.91h-.35c-4.18.07-7.57-2.47-7.56-6.61l.08-30.74a7.47,7.47,0,0,1,7.6-7.34h.35a7.12,7.12,0,0,1,7.54,7.08Z" transform="translate(-38.63 10.46)" fill="url(#linear-gradient-18)"/><path d="M2639.93,1794.71c0,4.11-3.37,6.93-7.5,7h-.35c-4.13.07-7.48-2.58-7.47-6.7l.08-30.65a7.5,7.5,0,0,1,7.52-7.39h.34a7.13,7.13,0,0,1,7.46,7.13Z" transform="translate(-38.63 10.46)" fill="url(#linear-gradient-19)"/><path d="M2578.22,1864.57c0,4.13-3.4,8.31-7.58,8.37h-.35c-4.18.07-7.57-3.83-7.56-8l.08-31.63c0-4.13,3.41-8.21,7.6-8.28h.35c4.18-.06,7.55,3.81,7.54,7.94Z" transform="translate(-38.63 10.46)" fill="url(#linear-gradient-20)"/><path d="M2639.74,1863.33c0,4.11-3.36,5.42-7.5,8.68h-.34c-4.14.06-7.48-4.18-7.47-8.29l.08-33c0-4.11,3.38-9.75,7.51-9.81h.35c4.13-.06,7.47,5.36,7.46,9.47Z" transform="translate(-38.63 10.46)" fill="url(#linear-gradient-21)"/><path d="M2625,1810.81a7.9,7.9,0,0,1-7.72,7.64l-28.81.68c-4.17.09-5.19-3.19-5.19-7.32v-.34c0-4.14,1-7.54,5.13-7.63l30.13-.65c4.15-.09,6.46,3.16,6.46,7.28Z" transform="translate(-38.63 10.46)" opacity="0.3" fill="url(#linear-gradient-22)"/><path d="M2625,1746.76a7.76,7.76,0,0,1-7.64,7.6l-28.85.49c-4.17.07-5.23-3.24-5.23-7.37v-.35c0-4.13,1-7.52,5.21-7.58l30.1-.46c4.14-.06,6.41,3.21,6.41,7.33Z" transform="translate(-38.63 10.46)" fill="url(#linear-gradient-23)"/><path d="M2625,1877.88a8,8,0,0,1-7.81,7.68l-30.5.87c-4.17.11-6.88-3.15-6.88-7.28v-.34c0-4.13,2.6-7.55,6.77-7.66l31-.85a7.12,7.12,0,0,1,7.38,7.23Z" transform="translate(-38.63 10.46)" fill="url(#linear-gradient-24)"/><path d="M2383.54,2651.84a180.11,180.11,0,0,1-13.52,43.79c-2.32,5-4.94,10.25-7.82,15.6L2003.31,2748c-49.47,5.07-92-29.06-92-75.57l.13-950.35c0-43,35.25-78.72,79.29-84.46,1.07.3,2.66.63,3.74,1,46.33,14,96.79,40.14,126.92,89,18.82,30.51,30,70,27.5,121.22a348.12,348.12,0,0,1-4.69,42.2q-2.23,13-4.51,26.52-2.84,16.89-5.58,34.49c-2.89,18.75-5.56,38-7.71,57.42-2,18.63-3.6,37.46-4.38,56.22q-.23,5.45-.36,10.89c-.3,11.73-.27,23.41.17,35q.42,11.89,1.44,23.6c3.82,43.92,14.15,85.69,34.86,121.93,15.64,27.36,39.18,48.19,63.89,67.41,6.51,5.06,13.11,10,19.66,15,22.48,16.93,43.89,34.52,62.94,54.29.47.48.94,1,1.4,1.46a304.49,304.49,0,0,1,25.8,30.81,226.59,226.59,0,0,1,22.39,38.35c2.39,5.14,4.59,10.39,6.63,15.7,3.53,9.11,6.55,18.48,9.2,28,1.18,4.29,2.34,8.64,3.45,13.05a2.93,2.93,0,0,1,.13.51,451.78,451.78,0,0,1,10.7,54.34C2387.54,2601.09,2388,2626.77,2383.54,2651.84Z" transform="translate(-38.63 10.46)" fill="#fff" opacity="0.3" style="mix-blend-mode:soft-light"/><g style="mix-blend-mode:multiply"><path d="M2123.44,2121.53c0,9.33-8,17.29-17.86,17.78l-120.42,5.93c-10.09.5-18.28-6.77-18.28-16.23l0-43.23c0-9.46,8.2-17.49,18.3-17.92l120.45-5.11c9.86-.42,17.84,6.81,17.83,16.15Z" transform="translate(-38.63 10.46)" fill="url(#linear-gradient-25)"/><path d="M2318.06,2112.23c0,9.17-7.74,17-17.26,17.45l-116.26,5.73c-9.74.48-17.64-6.66-17.63-16l0-42.47c0-9.3,7.93-17.18,17.68-17.59l116.29-4.94c9.52-.4,17.22,6.71,17.21,15.88Z" transform="translate(-38.63 10.46)" fill="url(#linear-gradient-26)"/><path d="M2499.79,2103.54a17.57,17.57,0,0,1-16.71,17.16l-112.44,5.54c-9.42.47-17.06-6.57-17-15.71l.07-41.76c0-9.15,7.68-16.89,17.1-17.29l112.48-4.78a15.65,15.65,0,0,1,16.63,15.64Z" transform="translate(-38.63 10.46)" fill="url(#linear-gradient-27)"/><path d="M2681.71,2094.85a17.15,17.15,0,0,1-16.16,16.86l-108.69,5.36a15.42,15.42,0,0,1-16.46-15.47l.1-41a17.31,17.31,0,0,1,16.54-17l108.71-4.62a15.25,15.25,0,0,1,16.08,15.38Z" transform="translate(-38.63 10.46)" fill="url(#linear-gradient-28)"/><path d="M2123.32,2258.39c0,9.32-8,17.37-17.85,18l-120.36,7.39c-10.09.62-18.28-6.54-18.27-16v-43.18c0-9.46,8.2-17.57,18.29-18.12l120.39-6.59c9.86-.53,17.83,6.59,17.82,15.92Z" transform="translate(-38.63 10.46)" fill="url(#linear-gradient-29)"/><path d="M2317.84,2246.73c0,9.16-7.73,17.06-17.25,17.65l-116.2,7.14c-9.74.6-17.64-6.45-17.63-15.74l0-42.42c0-9.29,7.92-17.26,17.66-17.79l116.24-6.35c9.52-.52,17.21,6.49,17.2,15.65Z" transform="translate(-38.63 10.46)" fill="url(#linear-gradient-30)"/><path d="M2499.49,2235.84c0,9-7.49,16.78-16.7,17.34l-112.39,6.91c-9.42.58-17.05-6.36-17-15.49l.07-41.72c0-9.14,7.67-17,17.09-17.48l112.42-6.15a15.42,15.42,0,0,1,16.63,15.42Z" transform="translate(-38.63 10.46)" fill="url(#linear-gradient-31)"/><path d="M2681.33,2224.94a17.4,17.4,0,0,1-16.16,17l-108.64,6.67a15.18,15.18,0,0,1-16.45-15.25l.1-41a17.57,17.57,0,0,1,16.53-17.17l108.67-5.94a15,15,0,0,1,16.07,15.18Z" transform="translate(-38.63 10.46)" fill="url(#linear-gradient-32)"/><path d="M2123.2,2391.94c0,9.31-8,17.45-17.85,18.17l-120.3,8.82c-10.08.74-18.26-6.32-18.26-15.76l0-43.14c0-9.45,8.19-17.65,18.27-18.32l120.34-8c9.85-.65,17.82,6.37,17.81,15.69Z" transform="translate(-38.63 10.46)" fill="url(#linear-gradient-33)"/><path d="M2317.63,2378c0,9.16-7.73,17.14-17.24,17.84l-116.15,8.52c-9.73.71-17.63-6.23-17.62-15.51l.05-42.38c0-9.29,7.92-17.34,17.65-18l116.18-7.73c9.52-.63,17.21,6.28,17.2,15.44Z" transform="translate(-38.63 10.46)" fill="url(#linear-gradient-34)"/><path d="M2499.2,2364.93c0,9-7.49,16.86-16.69,17.53l-112.35,8.24c-9.41.69-17-6.15-17-15.28l.07-41.68c0-9.13,7.67-17,17.09-17.66l112.37-7.48c9.2-.61,16.64,6.2,16.62,15.21Z" transform="translate(-38.63 10.46)" fill="url(#linear-gradient-35)"/><path d="M2681,2351.88a17.63,17.63,0,0,1-16.15,17.21l-108.6,8a15,15,0,0,1-16.44-15l.1-41a17.81,17.81,0,0,1,16.53-17.35l108.62-7.23a14.8,14.8,0,0,1,16.06,15Z" transform="translate(-38.63 10.46)" fill="url(#linear-gradient-36)"/><path d="M2123.08,2522.18c0,9.31-8,17.53-17.84,18.37L1985,2550.75c-10.08.86-18.26-6.1-18.25-15.53v-43.1c0-9.44,8.19-17.73,18.27-18.52l120.28-9.39c9.85-.77,17.81,6.15,17.81,15.47Z" transform="translate(-38.63 10.46)" fill="url(#linear-gradient-37)"/><path d="M2317.42,2506c0,9.15-7.72,17.22-17.23,18l-116.1,9.85c-9.73.83-17.62-6-17.61-15.29l.05-42.34c0-9.28,7.92-17.41,17.65-18.17l116.13-9.07c9.51-.75,17.2,6.07,17.18,15.22Z" transform="translate(-38.63 10.46)" fill="url(#linear-gradient-38)"/><path d="M2498.91,2490.84c0,9-7.48,16.92-16.68,17.7l-112.3,9.54c-9.4.79-17-5.95-17-15.07l.07-41.64c0-9.12,7.67-17.11,17.08-17.84l112.32-8.78c9.2-.72,16.63,6,16.61,15Z" transform="translate(-38.63 10.46)" fill="url(#linear-gradient-39)"/><path d="M2123,2661.82c0,9.3-8,17.61-17.82,18.57l-120.19,11.69c-10.07,1-18.24-5.86-18.24-15.29v-43.05c0-9.43,8.19-17.82,18.26-18.73l120.22-10.88c9.85-.89,17.81,5.93,17.8,15.23Z" transform="translate(-38.63 10.46)" fill="url(#linear-gradient-40)"/><path d="M2317.2,2643.21c0,9.14-7.72,17.29-17.22,18.22l-116,11.29c-9.73,1-17.61-5.79-17.6-15.06l0-42.3c0-9.26,7.92-17.49,17.64-18.37l116.07-10.51c9.51-.86,17.2,5.86,17.18,15Z" transform="translate(-38.63 10.46)" fill="url(#linear-gradient-41)"/><path d="M2498.61,2625.83c0,9-7.48,17-16.68,17.89l-112.24,10.93c-9.4.91-17-5.73-17-14.84l.07-41.6c0-9.11,7.67-17.19,17.07-18L2482.09,2570c9.2-.84,16.63,5.78,16.61,14.77Z" transform="translate(-38.63 10.46)" fill="url(#linear-gradient-42)"/><path d="M2664.12,2420.56,2555.53,2429c-9.1.71-15.94,11-16,19.95l0,23.06-.05,19.25-.21,86.93-.06,25.57,0,16.7c0,9,6.78,17,15.87,16.11l108.51-10.55c8.89-.87,16.66-10.21,16.68-19l.05-16.49.07-25.24.25-85.8.06-19,.07-22.76C2680.73,2428.87,2673,2419.86,2664.12,2420.56Z" transform="translate(-38.63 10.46)" fill="url(#linear-gradient-43)"/></g><path d="M2130.15,2121.2c0,9.33-8,17.29-17.84,17.77L1992,2144.9c-10.08.5-18.26-6.77-18.26-16.22l0-43.2c0-9.46,8.19-17.48,18.27-17.91l120.31-5.11c9.85-.42,17.82,6.81,17.81,16.14Z" transform="translate(-38.63 10.46)" fill="url(#linear-gradient-44)"/><path d="M2318.06,2112.23c0,9.17-7.74,17-17.26,17.45l-116.26,5.73c-9.74.48-17.64-6.66-17.63-16l0-42.47c0-9.3,7.93-17.18,17.68-17.59l116.29-4.94c9.52-.4,17.22,6.71,17.21,15.88Z" transform="translate(-38.63 10.46)" fill="url(#linear-gradient-45)"/><path d="M2506.06,2103.24a17.56,17.56,0,0,1-16.69,17.15l-112.31,5.54c-9.41.46-17-6.57-17-15.71l.07-41.73c0-9.15,7.67-16.88,17.08-17.28l112.34-4.77a15.62,15.62,0,0,1,16.62,15.62Z" transform="translate(-38.63 10.46)" fill="url(#linear-gradient-46)"/><path d="M2687.77,2094.56a17.13,17.13,0,0,1-16.15,16.85l-108.56,5.35a15.4,15.4,0,0,1-16.44-15.45l.1-41a17.32,17.32,0,0,1,16.52-17l108.59-4.61a15.24,15.24,0,0,1,16.06,15.38Z" transform="translate(-38.63 10.46)" fill="url(#linear-gradient-47)"/><path d="M2130,2258c0,9.32-8,17.36-17.83,18L1992,2283.34c-10.08.62-18.25-6.54-18.25-16l0-43.15c0-9.45,8.19-17.56,18.26-18.11l120.25-6.57c9.85-.54,17.81,6.58,17.8,15.9Z" transform="translate(-38.63 10.46)" fill="url(#linear-gradient-48)"/><path d="M2317.84,2246.73c0,9.16-7.73,17.06-17.25,17.65l-116.2,7.14c-9.74.6-17.64-6.45-17.63-15.74l0-42.42c0-9.29,7.92-17.26,17.66-17.79l116.24-6.35c9.52-.52,17.21,6.49,17.2,15.65Z" transform="translate(-38.63 10.46)" fill="url(#linear-gradient-49)"/><path d="M2505.75,2235.46c0,9-7.48,16.77-16.68,17.34l-112.26,6.89c-9.4.58-17-6.35-17-15.48l.08-41.69c0-9.14,7.66-17,17.07-17.47l112.29-6.14a15.4,15.4,0,0,1,16.61,15.41Z" transform="translate(-38.63 10.46)" fill="url(#linear-gradient-50)"/><path d="M2687.39,2224.57a17.38,17.38,0,0,1-16.14,17l-108.52,6.67A15.16,15.16,0,0,1,2546.3,2233l.1-41a17.55,17.55,0,0,1,16.51-17.16l108.55-5.93a15,15,0,0,1,16,15.17Z" transform="translate(-38.63 10.46)" fill="url(#linear-gradient-51)"/><path d="M2129.9,2391.45c0,9.32-8,17.45-17.82,18.17l-120.16,8.81c-10.07.74-18.24-6.32-18.24-15.76l0-43.11c0-9.44,8.18-17.64,18.25-18.31l120.19-8c9.85-.65,17.81,6.37,17.8,15.68Z" transform="translate(-38.63 10.46)" fill="url(#linear-gradient-52)"/><path d="M2317.63,2378c0,9.16-7.73,17.14-17.24,17.84l-116.15,8.52c-9.73.71-17.63-6.23-17.62-15.51l.05-42.38c0-9.29,7.92-17.34,17.65-18l116.18-7.73c9.52-.63,17.21,6.28,17.2,15.44Z" transform="translate(-38.63 10.46)" fill="url(#linear-gradient-53)"/><path d="M2505.46,2364.48c0,9-7.48,16.85-16.67,17.52l-112.22,8.23c-9.4.69-17-6.15-17-15.27l.08-41.65c0-9.13,7.66-17,17.06-17.66l112.24-7.47c9.2-.61,16.62,6.2,16.6,15.2Z" transform="translate(-38.63 10.46)" fill="url(#linear-gradient-54)"/><path d="M2687,2351.45a17.61,17.61,0,0,1-16.13,17.2l-108.47,7.95a15,15,0,0,1-16.42-15l.1-41a17.8,17.8,0,0,1,16.5-17.34l108.5-7.21a14.77,14.77,0,0,1,16,15Z" transform="translate(-38.63 10.46)" fill="url(#linear-gradient-55)"/><path d="M2129.78,2521.62c0,9.3-8,17.52-17.82,18.36l-120.1,10.19c-10.06.85-18.23-6.1-18.23-15.53l0-43.06c0-9.44,8.18-17.73,18.25-18.51l120.13-9.39c9.84-.77,17.8,6.16,17.79,15.46Z" transform="translate(-38.63 10.46)" fill="url(#linear-gradient-56)"/><path d="M2317.42,2506c0,9.15-7.72,17.22-17.23,18l-116.1,9.85c-9.73.83-17.62-6-17.61-15.29l.05-42.34c0-9.28,7.92-17.41,17.65-18.17l116.13-9.07c9.51-.75,17.2,6.07,17.18,15.22Z" transform="translate(-38.63 10.46)" fill="url(#linear-gradient-57)"/><path d="M2505.17,2490.32c0,9-7.47,16.91-16.66,17.69l-112.17,9.52c-9.39.8-17-5.94-17-15.05l.07-41.62c0-9.11,7.66-17.1,17.06-17.83l112.19-8.77c9.19-.72,16.62,6,16.59,15Z" transform="translate(-38.63 10.46)" fill="url(#linear-gradient-58)"/><path d="M2129.65,2661.18c0,9.29-8,17.6-17.81,18.55l-120,11.68c-10.06,1-18.22-5.86-18.22-15.28l0-43c0-9.43,8.17-17.81,18.24-18.72l120.07-10.87c9.83-.89,17.79,5.92,17.78,15.22Z" transform="translate(-38.63 10.46)" fill="url(#linear-gradient-59)"/><path d="M2317.2,2643.21c0,9.14-7.72,17.29-17.22,18.22l-116,11.29c-9.73,1-17.61-5.79-17.6-15.06l0-42.3c0-9.26,7.92-17.49,17.64-18.37l116.07-10.51c9.51-.86,17.2,5.86,17.18,15Z" transform="translate(-38.63 10.46)" fill="url(#linear-gradient-60)"/><path d="M2504.86,2625.23c0,9-7.47,17-16.65,17.88L2376.09,2654c-9.39.92-17-5.72-17-14.82l.07-41.58c0-9.11,7.66-17.18,17.05-18l112.14-10.15c9.19-.83,16.61,5.78,16.59,14.77Z" transform="translate(-38.63 10.46)" fill="url(#linear-gradient-61)"/><path d="M2670.41,2420.07,2562,2428.54c-9.09.71-16.15,11-16.17,19.95l-.06,23.05,0,19.24-.22,86.88-.06,25.56,0,16.69c0,9,7,17,16.07,16.08l108.38-10.55c8.89-.86,16.42-10.18,16.45-19l0-16.48.07-25.22.26-85.75.05-19,.07-22.74C2686.79,2428.39,2679.29,2419.37,2670.41,2420.07Z" transform="translate(-38.63 10.46)" fill="url(#linear-gradient-62)"/><path d="M2574.11,1415.39c0,92.22-72.11,164.77-164.28,161.94-95.92-2.95-176.59-85.79-176.59-184.92s80.67-171.09,176.59-161.11C2502,1240.9,2574.11,1323.17,2574.11,1415.39Z" transform="translate(-38.63 10.46)" fill="url(#linear-gradient-63)"/><path d="M2599,1407.44c0,92.22-72.11,164.77-164.28,161.94-95.91-3-176.58-85.79-176.58-184.92s80.67-171.1,176.58-161.11C2526.9,1233,2599,1315.22,2599,1407.44Z" transform="translate(-38.63 10.46)" fill="url(#linear-gradient-64)"/><path d="M2591.78,1407c0,88.16-69,157.4-157.05,154.54-91.46-3-168.25-82-168.25-176.47s76.79-163.16,168.25-153.79C2522.78,1240.25,2591.78,1318.79,2591.78,1407Z" transform="translate(-38.63 10.46)" fill="url(#linear-gradient-65)"/><path d="M2586.6,1406.6c0,85.25-66.77,152.12-151.87,149.26-88.28-3-162.32-79.32-162.32-170.44s74-157.5,162.32-148.56C2519.83,1245.48,2586.6,1321.35,2586.6,1406.6Z" transform="translate(-38.63 10.46)" fill="url(#linear-gradient-66)"/><path d="M2433.86,1265.86h0a9.3,9.3,0,0,1,8.2,9.11v15.7a229.43,229.43,0,0,1,27.2,4.72q10,2.35,19.95,5.62a9.15,9.15,0,0,1,6.25,9.41l-1.92,19.69a7.38,7.38,0,0,1-10.54,6.12,114.89,114.89,0,0,0-13.38-5,121,121,0,0,0-25.25-4.71l-2.31-.2v45q35.43,9.92,52.18,26.68t16.72,41.65q0,27-18.49,43.31c-12.41,10.93-29.8,17.08-52.3,18.41v17.32a7.87,7.87,0,0,1-8.2,8h-.14a8.71,8.71,0,0,1-8.23-8.68v-17.09l-3.65-.17a238.5,238.5,0,0,1-30.3-3.23,198,198,0,0,1-20.94-4.81,9,9,0,0,1-6.56-9.33l2.26-25.3a8,8,0,0,1,11.19-6.6,164.93,164.93,0,0,0,18.41,6,162.07,162.07,0,0,0,29.44,4.92l.15-50q-34-8.42-50.81-24.93T2356,1345.05q0-26.71,18.25-41.2c12.08-9.6,29.26-14.38,51.43-14.36v-16A7.41,7.41,0,0,1,2433.86,1265.86Zm-8.22,60q-10.51.77-16.38,5.78t-5.88,13.49a18.12,18.12,0,0,0,5.43,13.41q5.43,5.37,16.83,8.58Zm14.53,90.54v45.86q11.43,0,17.54-5.45t6.11-15.44a21.07,21.07,0,0,0-5.68-15.09Q2452.46,1420.28,2440.17,1416.41Z" transform="translate(-38.63 10.46)" fill="url(#linear-gradient-67)"/><path d="M2407.25,1427.48c5.13-50.68,51.71-72.13,45.63-118.74-3.75-28.73-25.52-53-49.81-71.85-73.69,7.72-130.66,68.73-130.66,148.53,0,91.12,74,167.48,162.32,170.45a153.78,153.78,0,0,0,25.09-1.23C2424.76,1519.75,2402.84,1471,2407.25,1427.48Z" transform="translate(-38.63 10.46)" opacity="0.3" fill="url(#linear-gradient-68)" style="mix-blend-mode:multiply"/><path d="M736.19,2751.27s88,40.24,89.4,46.63-56.64-2.28-80.35-1.41-43.19-6.19-41-16.23S714.75,2745,714.75,2745Z" transform="translate(-38.63 10.46)" fill="url(#linear-gradient-69)"/><path d="M739.49,2718.79,734,2758.43s-13.95,4.93-23.31-1l-3.89-43.5Z" transform="translate(-38.63 10.46)" fill="url(#linear-gradient-70)"/><path d="M324.75,2718.75l-10.29,16.42a19.64,19.64,0,0,0-2.38,15.37c3.55,13.68,10.64,40.35,13.74,47.31,4.23,9.47,61.21,15.23,61.21,15.23s5.1-7.14-6.72-15.8-19.41-10.05-23.56-22.8-6.84-48.82-6.84-48.82Z" transform="translate(-38.63 10.46)" fill="url(#linear-gradient-71)"/><path d="M367.48,2677.06c-3.74,3-22.18,58.49-22.18,58.49s-5.95,7.56-17.17-3.65-5.09-5-5.09-5l2.25-54.64Z" transform="translate(-38.63 10.46)" fill="url(#linear-gradient-72)"/><path d="M789.86,1922.29c4.36,118.29,4.24,246.79-2.89,384.06-8,154.57-23.78,297.41-43.49,426.89-7.22.21-14.8.23-22.72,0q-8-.24-15.53-.79A983.06,983.06,0,0,1,672.84,2628a1004.48,1004.48,0,0,1-22.48-122.25c-16.64-134,3.26-145.65-10.26-245-12-88-29.31-91.43-49.36-216.32-21.75-135.51-5.27-155.79,2.75-163.11C627.59,1850.18,707.46,1871.64,789.86,1922.29Z" transform="translate(-38.63 10.46)" fill="url(#linear-gradient-73)"/><path d="M593.49,1881.35c32.52-29.73,106.7-11.51,185,34.18-90.42,97.21-100.4,160.39-89.69,201.43,12.11,46.38,49.23,59.82,49,110.5-.32,62.29-56.57,78.65-55.54,144.56.69,43.59,25.39,43.19,31.09,97,6.75,63.71-25.57,85.58-15.23,132.73,4.45,20.28,17.22,46.8,53.71,74.18-2.69,19.34-5.44,38.49-8.3,57.28-7.21.21-14.79.23-22.71,0q-8-.24-15.53-.79A983.06,983.06,0,0,1,672.84,2628a1004.48,1004.48,0,0,1-22.48-122.25c-16.64-134,3.26-145.65-10.26-245-12-88-29.31-91.43-49.36-216.32C569,1909,585.47,1888.67,593.49,1881.35Z" transform="translate(-38.63 10.46)" opacity="0.3" fill="url(#linear-gradient-74)" style="mix-blend-mode:multiply"/><path d="M734,1920.17a2655.92,2655.92,0,0,0-366,778.42,47.45,47.45,0,0,1-26,4,48.42,48.42,0,0,1-29.41-16,765.43,765.43,0,0,1-6.3-188.62c2.74-30,7.58-80,26.87-141.69,21.6-69.1,36.35-72.95,64.49-146,29.21-75.86,22.23-94.83,50.25-189.78A1254.78,1254.78,0,0,1,510.41,1854Z" transform="translate(-38.63 10.46)" fill="url(#linear-gradient-75)"/><path d="M981.78,1768.74a212.37,212.37,0,0,1-29.86,14c-77.55,29.58-160.14-4.34-208.42-67-1-1.28-2-2.6-3-3.93-.59-.76-1.14-1.56-1.7-2.32-.8-1.12-1.56-2.23-2.33-3.34-9.24-13.45-19.5-29.83-22-28.54-.17.07-.78.28-.85.59,0,.07-.54.18-.54.28v0c0,9.62,47.64,90.65,68.92,182.24,11.36,49.08,8.66,72.06,29.93,104.73,4.83,7.41,10.9,15.13,8.82,23.89-5.25,21.93-55.35,27.63-90.14,31.59-36.71,4.14-70.95,3.76-104.81,3.27-54.19-.8-58.45-3.61-70.82,2.47-37.72,18.49-35.14,62.81-63.53,68.75-23.82,4.94-48-21.65-55.65-30.1-39.84-43.83-37.72-96.7-44.77-150-16.44-124-83.77-259.84-149.68-345.83-20-26.07-33.89-39.77-34.76-64-2.53-71.12,110.19-149.68,204-158.68,25.72-2.51,71.78-1.71,115,2.36,17.24,1.64,35.63,4,55.37,7.48,47.9,8.37,81.23,14.21,115.2,29.75,137,62.67,73.13,146.86,221.42,243.36,51,33.16,134.63-71.23,133.83-42.31C1050.82,1612.77,1078.62,1713.3,981.78,1768.74Z" transform="translate(-38.63 10.46)" fill="url(#linear-gradient-76)"/><path d="M489.16,1273s-5.89,32.84-19.43,56.21c-12.24,21.13-62.86,28.7-73.4,32.38s15.9,22,44,28.7,110.42,11,126.53,2.16-10.46-11.57-29.82-21.74-25.83-51.55-19.84-69.14S489.16,1273,489.16,1273Z" transform="translate(-38.63 10.46)" fill="url(#linear-gradient-77)"/><path d="M542.64,1263.53c20.42-14.59,26.07-54,14.73-62.9-3.24-2.53-6.34-1.37-52.41,17.11-22.88,9.18-34.13,14.07-37.84,24.17-2.26,6.17-1.89,14.5.61,21.07,1.28,3.37,3.79,7.58,9.37,15.61,4.95,7.12,4.61,6.88,6.13,9,3.65,5,10.68,13.35,23.56,23a78.3,78.3,0,0,1,3.75-13,69.08,69.08,0,0,1,8.34-15.51C526.91,1271.32,536,1268.27,542.64,1263.53Z" transform="translate(-38.63 10.46)" fill="url(#linear-gradient-78)"/><path d="M490.32,1301.05s13.36,19.9,38.1,17.2c22.15-2.42,23.22-52.38,8.57-62.33-4.88-3.32-14.43-4.37-22-1.87-4.5,1.48-6,3.44-13.36,5.7-6.82,2.1-8.8,1.41-10.81,3.26-2.5,2.31-4.18,7.76.81,22.14-4.43-4.11-9.59-5.53-13.12-3.67a7.55,7.55,0,0,0-2.83,3C472.79,1290.32,478.3,1297.35,490.32,1301.05Z" transform="translate(-38.63 10.46)" fill="url(#linear-gradient-79)"/><path d="M981.78,1768.74a212.37,212.37,0,0,1-29.86,14c-77.55,29.58-160.14-4.34-208.42-67-1-1.28-2-2.6-3-3.93-.59-.76-1.14-1.56-1.7-2.32-.8-1.12-1.56-2.23-2.33-3.34-9.24-13.45-19.5-29.83-22-28.54-.17.07-.27.28-.34.59,0,.07,0,.18,0,.28q-11.16-17.52-22.35-35c8.07-14,19.47-28.3,33.44-28.68,29.65-.73,37.3,61.77,88.29,102.85,30.63,24.68,55.27,24.23,117.21,38.17C945.67,1759.25,962.73,1763.42,981.78,1768.74Z" transform="translate(-38.63 10.46)" opacity="0.3" fill="url(#linear-gradient-80)" style="mix-blend-mode:multiply"/><path d="M279.08,1993.93c-37.51,3.35-122,4.88-181.68-50.38-99.43-92-50.1-267.06-15.49-342.36,39.68-86.33,102.83-134.66,141.21-164,47.62-36.44,76.68-58.68,111.65-53.7,90.43,12.88,153.06,198.22,103.42,251.28-16.26,17.38-32.35,7.54-79.38,22.52-15.32,4.88-129.64,41.29-149.54,125.48-13.93,58.93,21.53,127.94,84.66,174.28Z" transform="translate(-38.63 10.46)" fill="url(#linear-gradient-81)"/><path d="M699.56,1963.4c-42.47-26.83-48.75-54-96.31-72.42-61.78-23.87-91.47,6.46-122.1-18-36.45-29.15-4.18-79.92-31.46-168-4.63-15-39.8-128.55-120.49-143-37.63-6.75-87.32,7.67-106.47,39.55-15,25-1,43.56-19.25,71.11s-40,20.8-63.2,43.76c-36.86,36.46-42.51,113.34-9.23,156.82,15.52,20.28,35.69,28.3,73.64,43.39A357.06,357.06,0,0,0,268,1935.12c-46.47-44.6-70.59-102.12-58.71-152.37,12.4-52.48,61.49-86.39,100.43-105.68,38.95,73.32,70.79,158.28,81.4,238.31,7.06,53.33,4.93,106.2,44.77,150,7.66,8.44,31.83,35.05,55.66,30.08,28.38-5.91,25.82-50.25,63.53-68.76,12.37-6.07,16.64-3.25,70.85-2.46,33.86.49,68.12.9,104.85-3.27,30.94-3.52,74-8.44,86.79-24.91C761.69,1994.59,724.41,1979.11,699.56,1963.4Z" transform="translate(-38.63 10.46)" opacity="0.3" fill="url(#linear-gradient-82)" style="mix-blend-mode:multiply"/><path d="M1056.41,1576.21,309.24,2087.7c-18.07,12.45-43.07,8.41-55.79-9l-8-10.94c-12.76-17.49-8.35-41.79,9.87-54.2l14.94-10.14L878.4,1589.94l125-85Z" transform="translate(-38.63 10.46)" fill="url(#linear-gradient-83)"/><path d="M1633.88,1660.22c-203.18,143.86-485.45,91.41-630.26-124-148.29-220.59-92.54-521.15,124.15-664.06,212.79-140.34,494.07-70.53,628.84,149C1888.31,1235.65,1833.55,1518.83,1633.88,1660.22Zm-39-60.7c168.77-118.85,214.83-357.79,103.17-538.35-113.83-184.1-350.13-241.54-528.17-123.41-180.76,119.93-227.52,371.12-104.17,556C1186.65,1674.93,1423.64,1720.14,1594.9,1599.52Z" transform="translate(-38.63 10.46)" fill="url(#linear-gradient-84)"/><path d="M1056.41,1576.21,309.24,2087.7c-18.07,12.45-43.07,8.41-55.79-9l-8-10.94c-12.76-17.49-8.35-41.79,9.87-54.2l14.91-10.18,0,0c36.71,36.88,60.94,42.09,77.17,38,38-9.63,26.77-68.58,84.43-115.48,57.05-46.37,103.1-17.27,167.79-68.86,39.14-31.21,25.17-44.18,64.94-83.8,79.25-79,161.46-54.19,199.13-112.21,9.91-15.26,17.52-37.47,14.67-71.08l125-85Z" transform="translate(-38.63 10.46)" fill="#d8dee8" opacity="0.6" style="mix-blend-mode:multiply"/><path d="M1655.55,1675.88c-203.18,143.87-485.45,91.42-630.26-124C877,1331.29,932.74,1030.73,1149.44,887.82c212.79-140.34,494.07-70.53,628.84,149C1910,1251.31,1855.22,1534.5,1655.55,1675.88Zm-39-60.69c168.77-118.85,214.83-357.79,103.17-538.35-113.84-184.1-350.13-241.54-528.17-123.42-180.76,119.94-227.52,371.13-104.17,556C1208.32,1690.6,1445.31,1735.8,1616.57,1615.19Z" transform="translate(-38.63 10.46)" fill="url(#linear-gradient-85)"/><path d="M1641.79,1654.47c-191.92,135.63-458.17,85.69-594.5-117.64-139.42-207.93-86.85-491,117.08-625.76,200.47-132.49,465.84-67.11,593.24,139.86C1882.27,1253.46,1830.58,1521,1641.79,1654.47Zm-25.22-39.28c168.77-118.85,214.83-357.79,103.17-538.35-113.84-184.1-350.13-241.54-528.17-123.42-180.76,119.94-227.52,371.13-104.17,556C1208.32,1690.6,1445.31,1735.8,1616.57,1615.19Z" transform="translate(-38.63 10.46)" fill="url(#linear-gradient-86)"/><path d="M282.27,1986l8.35-20.76s13.64.83,24.83-7.2c6.1-4.37,16.92-5.67,20.07-4.8s15,.35,1.48,6.81-13.43,11.26-7.79,16.56,27.12,16.71,34.85,17.26-6.25,12.5-14,14-20.58,3.46-36.39-5.86C307.86,1998.67,282.27,1986,282.27,1986Z" transform="translate(-38.63 10.46)" fill="url(#linear-gradient-87)"/><path d="M971.45,1633.76c20.56-14.16,23.76-44.94,54-47.11,0,0,25.16-6.08,12.45,21.76S963.74,1657.47,971.45,1633.76Z" transform="translate(-38.63 10.46)" fill="url(#linear-gradient-88)"/><path d="M2719.81,921.77c0,128.38-100.39,229.37-228.7,225.43-133.53-4.1-245.83-119.42-245.83-257.43s112.3-238.18,245.83-224.28C2619.42,678.85,2719.81,793.38,2719.81,921.77Z" transform="translate(-38.63 10.46)" fill="url(#linear-gradient-89)"/><path d="M2754.48,910.7c0,128.38-100.38,229.37-228.69,225.43C2392.25,1132,2280,1016.71,2280,878.7s112.3-238.18,245.84-224.28C2654.1,667.78,2754.48,782.31,2754.48,910.7Z" transform="translate(-38.63 10.46)" fill="url(#linear-gradient-90)"/><path d="M2744.41,910c0,122.73-96,219.11-218.62,215.14C2398.46,1121,2291.55,1011,2291.55,879.49s106.91-227.14,234.24-214.1C2648.36,678,2744.41,787.29,2744.41,910Z" transform="translate(-38.63 10.46)" fill="url(#linear-gradient-91)"/><path d="M2737.2,909.53c0,118.68-92.94,211.77-211.41,207.8-122.91-4.13-226-110.43-226-237.29s103.07-219.26,226-206.81C2644.26,685.23,2737.2,790.85,2737.2,909.53Z" transform="translate(-38.63 10.46)" fill="url(#linear-gradient-92)"/><path d="M2524.57,713.61h0A12.91,12.91,0,0,1,2536,726.28v21.85a321.73,321.73,0,0,1,37.87,6.57q14,3.28,27.78,7.83a12.77,12.77,0,0,1,8.7,13.11l-2.68,27.4a10.27,10.27,0,0,1-14.67,8.52,158.93,158.93,0,0,0-18.63-6.94,169.28,169.28,0,0,0-35.15-6.57l-3.22-.26v62.58c32.89,9.2,57,21.58,72.65,37.14s23.27,34.81,23.27,58q0,37.61-25.74,60.29-25.9,22.83-72.8,25.63v24.12a11,11,0,0,1-11.42,11.14h-.2a12.12,12.12,0,0,1-11.46-12.09v-23.79l-5.08-.23a333.06,333.06,0,0,1-42.18-4.5,273.69,273.69,0,0,1-29.14-6.7,12.57,12.57,0,0,1-9.15-13l3.16-35.22c.68-7.61,8.33-12,15.57-9.19a230.61,230.61,0,0,0,25.64,8.42,224.84,224.84,0,0,0,41,6.84l.2-69.61c-31.56-7.81-55.2-19.38-70.73-34.7s-23.42-35.11-23.42-59.06q0-37.2,25.39-57.37t71.61-20V724.15A10.31,10.31,0,0,1,2524.57,713.61Zm-11.44,83.53q-14.64,1.07-22.81,8T2482.13,824a25.22,25.22,0,0,0,7.57,18.66q7.56,7.49,23.43,12Zm20.23,126.05V987q15.91,0,24.41-7.59t8.5-21.49q0-12.66-7.89-21T2533.36,923.19Z" transform="translate(-38.63 10.46)" fill="url(#linear-gradient-93)"/><path d="M2487.53,938.59c7.14-70.54,72-100.41,63.52-165.3-5.22-40-35.53-73.71-69.35-100C2379.13,684,2299.81,769,2299.81,880c0,126.86,103.07,233.16,226,237.29a212.92,212.92,0,0,0,34.92-1.71C2511.9,1067.05,2481.39,999.2,2487.53,938.59Z" transform="translate(-38.63 10.46)" opacity="0.3" fill="url(#linear-gradient-94)" style="mix-blend-mode:multiply"/></g></g></svg>