<svg xmlns="http://www.w3.org/2000/svg" xmlns:xlink="http://www.w3.org/1999/xlink" viewBox="0 0 2798.23 2791.38"><defs><linearGradient id="linear-gradient" x1="3509.41" y1="3693.41" x2="1539.72" y2="1596.64" gradientUnits="userSpaceOnUse"><stop offset="0" stop-color="#b37cff"/><stop offset="1" stop-color="#f895e7"/></linearGradient><linearGradient id="linear-gradient-2" x1="533.41" y1="1216.16" x2="1395.14" y2="1216.16" gradientUnits="userSpaceOnUse"><stop offset="0" stop-color="#ce1567"/><stop offset="1" stop-color="#7a1dbc"/></linearGradient><linearGradient id="linear-gradient-3" x1="491.01" y1="1431.3" x2="1455.04" y2="1431.3" gradientTransform="translate(22.38 -19.34) rotate(2.4)" gradientUnits="userSpaceOnUse"><stop offset="0" stop-color="#a737d5"/><stop offset="1" stop-color="#ef497a"/></linearGradient><linearGradient id="linear-gradient-4" x1="2247.98" y1="-47.79" x2="1417.59" y2="5996.39" gradientUnits="userSpaceOnUse"><stop offset="0" stop-color="#53d8ff"/><stop offset="0.21" stop-color="#4db9fd"/><stop offset="1" stop-color="#3840f7"/></linearGradient><linearGradient id="linear-gradient-5" x1="3115.57" y1="441.68" x2="3833.63" y2="-556.76" xlink:href="#linear-gradient-4"/><linearGradient id="linear-gradient-6" x1="2688.91" y1="2130.37" x2="-1272.63" y2="2767.57" gradientUnits="userSpaceOnUse"><stop offset="0" stop-color="#cb236d"/><stop offset="1" stop-color="#4c246d"/></linearGradient><linearGradient id="linear-gradient-7" x1="2695.19" y1="2169.38" x2="-1266.35" y2="2806.58" xlink:href="#linear-gradient-6"/><linearGradient id="linear-gradient-8" x1="1683.15" y1="1003.09" x2="3438.21" y2="900.74" xlink:href="#linear-gradient-6"/><linearGradient id="linear-gradient-9" x1="1683.3" y1="1005.68" x2="3438.35" y2="903.32" xlink:href="#linear-gradient-6"/><linearGradient id="linear-gradient-10" x1="2568.89" y1="1178.15" x2="2046.28" y2="2286.08" gradientTransform="translate(5.58 -7.43) rotate(0.18)" gradientUnits="userSpaceOnUse"><stop offset="0" stop-color="#50e7b7"/><stop offset="1" stop-color="#323992"/></linearGradient><linearGradient id="linear-gradient-11" x1="8805.43" y1="5749.24" x2="8684.4" y2="7306.58" gradientTransform="translate(210.14 -8638.52) rotate(44.82)" xlink:href="#linear-gradient-10"/><linearGradient id="linear-gradient-12" x1="2701.58" y1="679.26" x2="2006.54" y2="2492.61" gradientTransform="translate(5.63 -7.38) rotate(0.18)" xlink:href="#linear-gradient-10"/><linearGradient id="linear-gradient-13" x1="8790.16" y1="5763.52" x2="8669.13" y2="7320.86" gradientTransform="translate(215.82 -8623.56) rotate(44.82)" xlink:href="#linear-gradient-10"/><linearGradient id="linear-gradient-14" x1="8666.17" y1="4361.64" x2="8696.92" y2="5161.18" gradientTransform="translate(-6383.68 -2527.12)" xlink:href="#linear-gradient-10"/><linearGradient id="linear-gradient-15" x1="8673.4" y1="4162.62" x2="8552.37" y2="5719.95" gradientTransform="matrix(0.71, 0.7, -0.7, 0.71, -861.12, -7381.89)" xlink:href="#linear-gradient-10"/><linearGradient id="linear-gradient-16" x1="8297.76" y1="4451.64" x2="8309.13" y2="4131.03" gradientTransform="translate(-6405.37 -2483.02) rotate(-0.29)" xlink:href="#linear-gradient-10"/><linearGradient id="linear-gradient-17" x1="9049.91" y1="4478.33" x2="9061.28" y2="4157.71" gradientTransform="translate(-6405.37 -2483.02) rotate(-0.29)" xlink:href="#linear-gradient-10"/><linearGradient id="linear-gradient-18" x1="2002.36" y1="1362.64" x2="2154.79" y2="1185.71" gradientTransform="translate(2265.17 -1275.98) rotate(63.78)" gradientUnits="userSpaceOnUse"><stop offset="0" stop-color="#fdf53f"/><stop offset="1" stop-color="#d93c65"/></linearGradient><linearGradient id="linear-gradient-19" x1="2240.93" y1="1056.67" x2="1790.18" y2="1737.61" gradientTransform="translate(1467.92 -1179.6) rotate(45)" xlink:href="#linear-gradient-18"/><linearGradient id="linear-gradient-20" x1="2227.48" y1="1076.18" x2="1987.47" y2="1479.12" gradientTransform="matrix(1, 0, 0, 1, 0, 0)" xlink:href="#linear-gradient-18"/><linearGradient id="linear-gradient-21" x1="2210.64" y1="1361.6" x2="2476" y2="1053.59" gradientTransform="translate(1467.38 -1447.82) rotate(45)" xlink:href="#linear-gradient-18"/><linearGradient id="linear-gradient-22" x1="2625.94" y1="828.94" x2="1841.27" y2="2014.36" gradientTransform="translate(1467.38 -1447.82) rotate(45)" xlink:href="#linear-gradient-18"/><linearGradient id="linear-gradient-23" x1="2602.54" y1="862.91" x2="2184.72" y2="1564.36" gradientTransform="matrix(1, 0, 0, 1, 0, 0)" xlink:href="#linear-gradient-18"/><linearGradient id="linear-gradient-24" x1="2339.23" y1="1812.58" x2="2612.28" y2="1495.64" gradientTransform="translate(1819.79 -1414.87) rotate(45)" xlink:href="#linear-gradient-18"/><linearGradient id="linear-gradient-25" x1="2766.57" y1="1264.49" x2="1959.16" y2="2484.26" gradientTransform="translate(1819.79 -1414.87) rotate(45)" xlink:href="#linear-gradient-18"/><linearGradient id="linear-gradient-26" x1="2742.49" y1="1299.44" x2="2312.55" y2="2021.22" gradientTransform="matrix(1, 0, 0, 1, 0, 0)" xlink:href="#linear-gradient-18"/><linearGradient id="linear-gradient-27" x1="2218.96" y1="992.68" x2="2419.02" y2="760.47" gradientTransform="matrix(1, 0, 0, 1, 0, 0)" xlink:href="#linear-gradient-18"/><linearGradient id="linear-gradient-28" x1="2987.96" y1="1047.26" x2="2396.37" y2="1940.98" gradientTransform="translate(1700.2 -1680.75) rotate(45)" xlink:href="#linear-gradient-18"/><linearGradient id="linear-gradient-29" x1="2970.31" y1="1072.87" x2="2655.3" y2="1601.72" gradientTransform="matrix(1, 0, 0, 1, 0, 0)" xlink:href="#linear-gradient-18"/><linearGradient id="linear-gradient-30" x1="868.61" y1="3186.14" x2="1050.1" y2="3186.14" gradientUnits="userSpaceOnUse"><stop offset="0" stop-color="#53d8ff"/><stop offset="1" stop-color="#3840f7"/></linearGradient><linearGradient id="linear-gradient-31" x1="868.6" y1="3150.57" x2="1044.98" y2="3150.57" gradientUnits="userSpaceOnUse"><stop offset="0" stop-color="#2b3582"/><stop offset="1" stop-color="#150e42"/></linearGradient><linearGradient id="linear-gradient-32" x1="885.36" y1="3100.91" x2="936.49" y2="3100.91" gradientUnits="userSpaceOnUse"><stop offset="0" stop-color="#f9b776"/><stop offset="1" stop-color="#f47960"/></linearGradient><linearGradient id="linear-gradient-33" x1="544.67" y1="3231.15" x2="614.22" y2="3231.15" xlink:href="#linear-gradient-30"/><linearGradient id="linear-gradient-34" x1="545.17" y1="3161.93" x2="647.26" y2="3161.93" xlink:href="#linear-gradient-31"/><linearGradient id="linear-gradient-35" x1="598.24" y1="3074.25" x2="659.33" y2="3074.25" xlink:href="#linear-gradient-32"/><linearGradient id="linear-gradient-36" x1="1092.42" y1="2414.94" x2="570.79" y2="3269.42" xlink:href="#linear-gradient-6"/><linearGradient id="linear-gradient-37" x1="1000.55" y1="1784.75" x2="960.11" y2="2406.41" xlink:href="#linear-gradient-6"/><linearGradient id="linear-gradient-38" x1="1438.6" y1="1787.31" x2="1196.62" y2="2102.11" xlink:href="#linear-gradient-32"/><linearGradient id="linear-gradient-39" x1="1151.54" y1="1861.05" x2="343.67" y2="2818.53" gradientTransform="matrix(1, 0, 0, 1, 0, 0)" xlink:href="#linear-gradient-18"/><linearGradient id="linear-gradient-40" x1="899.23" y1="1990.77" x2="925.71" y2="1851.79" xlink:href="#linear-gradient-32"/><linearGradient id="linear-gradient-41" x1="970.86" y1="1735.78" x2="819.82" y2="1851.35" xlink:href="#linear-gradient-32"/><linearGradient id="linear-gradient-42" x1="864.54" y1="1644.27" x2="1005.21" y2="1825.39" xlink:href="#linear-gradient-31"/><linearGradient id="linear-gradient-43" x1="952.13" y1="1711.3" x2="801.09" y2="1826.87" xlink:href="#linear-gradient-32"/><linearGradient id="linear-gradient-44" x1="1040.69" y1="2089.5" x2="934.97" y2="2248.08" xlink:href="#linear-gradient-32"/><linearGradient id="linear-gradient-45" x1="-3348.04" y1="2173.18" x2="-3586.88" y2="2238.64" gradientTransform="matrix(-1, -0.05, -0.05, 1, -2381.27, -55.03)" xlink:href="#linear-gradient-31"/><linearGradient id="linear-gradient-46" x1="-3602.02" y1="2128.53" x2="-3770.49" y2="2306.59" gradientTransform="matrix(-1, 0, 0, 1, -2422.74, 0)" xlink:href="#linear-gradient-31"/><linearGradient id="linear-gradient-47" x1="1583.6" y1="1602.34" x2="1377.9" y2="2074.89" gradientTransform="translate(3012.85 278.51) rotate(71.76)" xlink:href="#linear-gradient-4"/><linearGradient id="linear-gradient-48" x1="2971.82" y1="2201.48" x2="2766.09" y2="1614.67" xlink:href="#linear-gradient-32"/><linearGradient id="linear-gradient-49" x1="3149.87" y1="2932.51" x2="3399.01" y2="2932.51" gradientTransform="translate(-176.06)" xlink:href="#linear-gradient-32"/><linearGradient id="linear-gradient-50" x1="3492.32" y1="2375.35" x2="3368.94" y2="3177.34" gradientTransform="translate(-176.06)" xlink:href="#linear-gradient-6"/><linearGradient id="linear-gradient-51" x1="3231.26" y1="2335.18" x2="3107.87" y2="3137.18" gradientTransform="translate(-176.06)" xlink:href="#linear-gradient-6"/><linearGradient id="linear-gradient-52" x1="2998.69" y1="2951.03" x2="3142.96" y2="2951.03" gradientTransform="translate(-176.06)" xlink:href="#linear-gradient-32"/><linearGradient id="linear-gradient-53" x1="2882.58" y1="2360.79" x2="2482.8" y2="1540.19" xlink:href="#linear-gradient-32"/><linearGradient id="linear-gradient-54" x1="2997.4" y1="2022.14" x2="3526.93" y2="3070.9" gradientTransform="translate(-176.06)" xlink:href="#linear-gradient-18"/><linearGradient id="linear-gradient-55" x1="2978.8" y1="2420.49" x2="3441.49" y2="2942.3" gradientTransform="translate(-176.06)" xlink:href="#linear-gradient-6"/><linearGradient id="linear-gradient-56" x1="3042.43" y1="2007.26" x2="3130.71" y2="2007.26" gradientTransform="translate(-176.06)" xlink:href="#linear-gradient-32"/><linearGradient id="linear-gradient-57" x1="3182.74" y1="1893.17" x2="3825.37" y2="1936.86" gradientTransform="translate(-176.06)" xlink:href="#linear-gradient-32"/><linearGradient id="linear-gradient-58" x1="3288.37" y1="1854.43" x2="3062.16" y2="2306.83" gradientTransform="translate(-176.06)" xlink:href="#linear-gradient-31"/></defs><title>tax illustrations</title><g style="isolation:isolate"><g id="Illustration"><path d="M2918,2852.19c-72.71,74.95-137.77,119-187.59,152.27-485.81,324.39-1041.16,230.89-1212.85,198.94-277-51.56-510.85-87.93-711.76-269.45C349.28,2521.5,371.49,1661.1,720.33,1128.11c41.36-63.19,389.67-579.5,946.22-652.25,13.61-1.78,23.77-2.79,32.66-3.73,86.1-9.12,619.62-57.23,1054.65,307.24,62.27,52.17,162.49,146.28,255.42,289.8C3349.08,1594,3350.15,2406.76,2918,2852.19Z" transform="translate(-455.89 -456.16)" opacity="0.3" fill="url(#linear-gradient)"/><path d="M1220.36,1564.53c11.12,118.92,37.25,276.14,68.64,411.63h19.72c-40.6-163.5-78-387.41-67-645.52,11.1-260.28,73.69-576.31-43-727.28C1101.6,477.72,689.42,458.94,553.88,456.17c-16.93-.35-26.63,19.52-16.09,33C589.76,555.79,698.56,710,708,844.68c12.5,177.51,148,316.82,282.53,374.82S1197.64,1321.73,1220.36,1564.53Z" transform="translate(-455.89 -456.16)" fill="url(#linear-gradient-2)"/><path d="M723.35,565.89A645.12,645.12,0,0,1,954.57,679.23a513.39,513.39,0,0,1,92.89,92.14c26.72,34.86,49.16,73.47,64.74,114.94l5.76,15.58c1.89,5.2,3.3,10.57,5,15.84s3.28,10.64,4.64,15.9l4.12,15.78q8.31,31.53,16.2,63.17,15.78,63.28,29.57,127.07c18.45,85,34.33,170.61,45,257.15a3.72,3.72,0,0,1-7.35,1.17l0-.12q-11.41-63.9-25.24-127.55-13.52-63.6-28.51-126.88l-15.16-63.21-15.86-63q-7.9-31.53-16.34-62.92l-4.15-15.71c-1.38-5.24-3-10.21-4.54-15.33s-2.88-10.22-4.67-15.22l-5.45-15c-14.64-39.9-36.21-76.84-61.36-110.88-12.95-16.75-26.49-33.11-41.52-48.06l-5.53-5.71L981,722.9c-3.84-3.65-7.6-7.4-11.52-11-7.94-7-15.81-14.14-24.13-20.73-32.78-27-68.8-49.86-106.23-69.93A670.09,670.09,0,0,0,721.93,571.8l-.19,0a3.06,3.06,0,0,1-2-3.8A3,3,0,0,1,723.35,565.89Z" transform="translate(-455.89 -456.16)" fill="#fff" style="mix-blend-mode:soft-light"/><path d="M1244.5,1562.53c68.71,112.69,56.73,173.62,56.8,225.66,0,9.24,0,22.3.36,37.75l20,.84a455,455,0,0,1-5.36-63.72c-1.12-143.76-22.62-390-138-541.54s-247.8-170.51-421-44.38C613,1282.25,523.56,1334.59,472,1342.86c-12.76,2.05-19.83,16.32-14.15,28.13,30.19,62.85,116.93,207.93,272.92,204.52C929.78,1571.15,1175.8,1449.85,1244.5,1562.53Z" transform="translate(-455.89 -456.16)" fill="url(#linear-gradient-3)"/><path d="M806.75,1355.94a404.13,404.13,0,0,1,35.85-28c12.38-8.72,25.12-17,38.32-24.47,26.34-15,54.29-27.68,83.85-35.94a254.36,254.36,0,0,1,45.39-8.41,188.58,188.58,0,0,1,46.64,1.77c3.85.81,7.75,1.35,11.55,2.39s7.68,2,11.33,3.21l21.59,7.83,21,9.38,20.32,11a262.27,262.27,0,0,1,69.86,60.59c19.66,24,34.68,51.41,46.8,79.61l4.55,10.6c1.57,3.52,2.66,7.21,4,10.8,2.52,7.25,5.26,14.42,7.59,21.72l6.45,22.06c2.31,7.3,3.66,14.85,5.46,22.28,7.08,29.75,11.55,60,15.24,90.18A3.07,3.07,0,0,1,1300,1616a3,3,0,0,1-3.34-2.44l0-.1c-5.75-29.7-11.24-59.43-19.66-88.33-3.75-14.57-8.7-28.73-13.25-43-2.48-7.06-5.35-13.95-8-20.93-1.41-3.45-2.56-7-4.18-10.37l-4.7-10.12c-12.42-27-27.82-52.45-46.53-74.93a255.2,255.2,0,0,0-66.23-56.09l-19.17-10.26-20-8.76-20.56-7.33c-3.41-1.14-6.78-1.94-10.17-3s-6.89-1.44-10.33-2.2a172.14,172.14,0,0,0-42.47-1.89,239.94,239.94,0,0,0-42.65,7c-28.19,7.09-55.56,18.29-82,31.55-13.16,6.74-26.21,13.81-38.91,21.52s-25.2,15.93-37.19,24.59l-.07,0a3.1,3.1,0,0,1-4.38-.75A3.26,3.26,0,0,1,806.75,1355.94Z" transform="translate(-455.89 -456.16)" fill="#fff" style="mix-blend-mode:soft-light"/><path d="M2805.56,472.93,1043.63,461.61c-57.91-.38-104.22,50.38-101.35,111.07L1063.5,3199.56H3024.2l108.87-2347Z" transform="translate(-455.89 -456.16)" fill="url(#linear-gradient-4)"/><path d="M2887.07,841.33c-59.4-2.12-105.06-54-100.38-114.11l19.54-250.83,306.06,333c14.18,15.43,2.7,40.3-18.24,39.53Z" transform="translate(-455.89 -456.16)" fill="url(#linear-gradient-5)"/><path d="M1333.2,652.64l-5.09,40.68h-74.59l-28.64,235.53h-48.6l28.45-235.53h-74.79l4.9-40.68Z" transform="translate(-455.89 -456.16)" fill="#fff"/><path d="M1520.45,928.85h-37.87q-6.4,0-10.17-3.06a13.23,13.23,0,0,1-4.71-8.21l-11.3-57.69H1354.86l-25.24,57.69a20.72,20.72,0,0,1-6.78,7.83,17.49,17.49,0,0,1-10.55,3.44h-38.43l131.68-276.21h49.92ZM1370.12,824.94h79.31L1431,730.38q-1.52-6.87-3-14.51t-2.82-17.19q-3.59,9.54-7.06,17.66t-6.5,14.23Z" transform="translate(-455.89 -456.16)" fill="#fff"/><path d="M1620.47,781.38l-61.22-128.74h44.27q4.89,0,7.07,1.43a11,11,0,0,1,3.67,4.87l41.82,95.32a63,63,0,0,1,4.52-8l57.83-86.72q4.52-6.88,11.12-6.88h51l-92.69,126.45,68.38,149.76h-43.7q-4.9,0-7.63-2.68a20.12,20.12,0,0,1-4.24-5.92l-47.28-110.6c-.63,1-1.22,2-1.79,3.06s-1.16,2-1.79,3.06l-70.45,104.48a19.14,19.14,0,0,1-7,6.69,18.15,18.15,0,0,1-8.29,1.91h-48.79Z" transform="translate(-455.89 -456.16)" fill="#fff"/><path d="M2840.33,2421.56H1258.6c-47.72,0-86.81-38.45-88.26-86.82l-33-1100c-1.52-50.5,38.44-92.27,88.26-92.27H2840.33c48.76,0,88.3,40.09,88.3,89.54V2332C2928.63,2381.47,2889.09,2421.56,2840.33,2421.56Z" transform="translate(-455.89 -456.16)" fill="#fff" opacity="0.39"/><path d="M2830.35,2426.61H1248.63c-50.79,0-91.78-40.28-93.32-91.72l-33-1100a94.45,94.45,0,0,1,26.75-69.2,92.07,92.07,0,0,1,66.57-28.27H2830.35c51.48,0,93.36,42.43,93.36,94.59V2332C2923.71,2384.18,2881.83,2426.61,2830.35,2426.61ZM1215.58,1147.47a82.06,82.06,0,0,0-59.32,25.2,84.46,84.46,0,0,0-23.9,61.87l33.05,1100.05c1.38,45.94,37.93,81.92,83.22,81.92H2830.35c45.9,0,83.25-37.91,83.25-84.49V1232c0-46.58-37.35-84.49-83.25-84.49Z" transform="translate(-455.89 -456.16)" fill="#fff"/><rect x="1044.46" y="1772.55" width="1280.47" height="10.11" transform="translate(-557.54 2996.86) rotate(-89.7)" fill="#fff"/><rect x="2018.4" y="375.54" width="10.11" height="1790.41" transform="translate(286.79 2831.7) rotate(-89.72)" fill="#fff"/><rect x="680.13" y="1105.9" width="1782.51" height="10.11" fill="#fff"/><rect x="696.98" y="1416.83" width="1765.66" height="10.11" fill="#fff"/><rect x="1167.59" y="2134.92" width="1750.94" height="10.11" transform="translate(-462.14 -450.17) rotate(-0.17)" fill="#fff"/><rect x="1448.72" y="302.65" width="802.62" height="67.21" rx="4.05" ry="4.05" fill="#fff" opacity="0.55"/><rect x="731.42" y="2185.28" width="1731.35" height="131.66" rx="4.05" ry="4.05" fill="#fff" opacity="0.42"/><rect x="1452.19" y="409.71" width="802.62" height="67.21" rx="4.05" ry="4.05" fill="#fff" opacity="0.55"/><path d="M2393.07,2232.44c-197.34,112.24-362.08,105.24-548.37,7.34a35,35,0,0,1-18.73-32.66l.37-7.88a35,35,0,0,1,48.11-30.71c161.76,65.92,283.41,102.07,486,2.12a34.94,34.94,0,0,1,50.28,29h0A35,35,0,0,1,2393.07,2232.44Z" transform="translate(-455.89 -456.16)" fill="url(#linear-gradient-6)"/><path d="M2355.68,2323.4,2464.62,2169a7.61,7.61,0,0,0-5.3-11.94L2278.88,2135a8.82,8.82,0,0,0-9.22,12.15c41.22,57.19,64.43,115.52,72.81,174.81A7.59,7.59,0,0,0,2355.68,2323.4Z" transform="translate(-455.89 -456.16)" fill="url(#linear-gradient-7)"/><path d="M1777.8,996.64c198.66-122.72,368.26-121.66,563.39-28a36.06,36.06,0,0,1,20.48,32.87l-.1,8.12a36,36,0,0,1-48.3,33.36c-168.73-61.74-295.12-94.37-499.61,15.92a36,36,0,0,1-52.77-28h0A36,36,0,0,1,1777.8,996.64Z" transform="translate(-455.89 -456.16)" fill="url(#linear-gradient-8)"/><path d="M1812.85,901.75,1706.62,1064.5a7.82,7.82,0,0,0,5.88,12.08l186.31,16a9.08,9.08,0,0,0,9-12.83c-44.5-57.25-70.54-116.35-81.36-177A7.8,7.8,0,0,0,1812.85,901.75Z" transform="translate(-455.89 -456.16)" fill="url(#linear-gradient-9)"/><rect x="1706.53" y="1447.58" width="1203.99" height="565.07" transform="translate(-461.45 -448.72) rotate(-0.18)" fill="url(#linear-gradient-10)"/><path d="M2843.52,1565.3l1,321.21c-25.86.08-47.35,25.08-47.26,53.71,0,.91.19.68.25,4.37l-971.82,3.13c0-3.7.08-3.47.08-4.37-.09-28.63-21.29-52.63-47.57-52.54-.39,0-1-.82-1-.82l-1-314c44.31-.14,48.51-30.13,48.42-58.76a4,4,0,0,0-.29-1.64l971.82-3.13a4.39,4.39,0,0,0-.23,1.64C2796,1542.75,2817.67,1565.38,2843.52,1565.3Z" transform="translate(-455.89 -456.16)" fill="#fff" opacity="0.5"/><circle cx="2309.42" cy="1727.85" r="176.61" transform="translate(-1001.25 1682.91) rotate(-45)" fill="url(#linear-gradient-11)"/><path d="M2292,1847l-.06-18.68c-19.47-.71-38.74-5.25-52.44-11.19a10.79,10.79,0,0,1-6-12.74l4.69-17.41a10.88,10.88,0,0,1,14.75-7.17c13.59,5.64,30.35,10.09,48.42,10,18.75-.06,32.71-6.46,32.67-19.49,0-11.76-10.87-18.72-36.95-25.63-37.22-10-64-26.17-64.07-58.9-.1-29.56,21.44-52.19,58.92-58.35l-.06-18.68a10.88,10.88,0,0,1,10.85-10.91l11,0a10.89,10.89,0,0,1,10.92,10.85l0,16.76c18,.67,31.14,3.71,41.56,7.33a10.83,10.83,0,0,1,6.81,13l-4.31,16.1a10.86,10.86,0,0,1-14.31,7.37,113.26,113.26,0,0,0-40.75-7.26c-22.25.07-28.58,9.31-28.55,17.57,0,10.17,13.4,17.12,42.35,25.92,41.36,12.27,58.57,29.37,58.67,60.2.09,28.28-20.8,53.78-61.46,60.26l.07,20.9a10.89,10.89,0,0,1-10.85,10.92l-11,0A10.86,10.86,0,0,1,2292,1847Z" transform="translate(-455.89 -456.16)" fill="#fff"/><path d="M1738.94,1594.31a2.74,2.74,0,0,1-.17-.86l-.35-109a2.4,2.4,0,0,1,2.4-2.41l293.61-.95a2.4,2.4,0,1,1,0,4.8l-291.21.94.35,106.55a2.4,2.4,0,0,1-4.64.88Z" transform="translate(-455.89 -456.16)" fill="#fff"/><path d="M2580.39,1977.55a2.29,2.29,0,0,1-.17-.87,2.42,2.42,0,0,1,2.4-2.41l291.21-.93-.35-106.55a2.41,2.41,0,0,1,4.81,0l.35,109a2.41,2.41,0,0,1-2.4,2.41l-293.61.95A2.41,2.41,0,0,1,2580.39,1977.55Z" transform="translate(-455.89 -456.16)" fill="#fff"/><rect x="1691.31" y="1461.91" width="1203.99" height="565.07" transform="translate(-461.49 -448.77) rotate(-0.18)" fill="url(#linear-gradient-12)"/><path d="M2828.3,1579.63l1,321.21c-25.85.08-47.34,25.08-47.25,53.71,0,.91.19.68.25,4.37l-971.82,3.13c0-3.69.08-3.46.08-4.37-.09-28.63-21.29-52.63-47.58-52.54-.38,0-1-.82-1-.82l-1-314c44.32-.14,48.52-30.13,48.42-58.76a3.88,3.88,0,0,0-.28-1.64l971.82-3.13a4.24,4.24,0,0,0-.23,1.65C2780.8,1557.08,2802.45,1579.71,2828.3,1579.63Z" transform="translate(-455.89 -456.16)" fill="#fff" opacity="0.5"/><circle cx="2294.19" cy="1742.18" r="176.61" transform="translate(-1015.84 1676.35) rotate(-45)" fill="url(#linear-gradient-13)"/><path d="M2276.72,1861.37l-.06-18.67c-19.47-.72-38.74-5.25-52.43-11.2a10.79,10.79,0,0,1-6-12.74l4.68-17.41a10.89,10.89,0,0,1,14.76-7.17c13.59,5.64,30.35,10.09,48.41,10,18.75-.06,32.72-6.46,32.67-19.49,0-11.76-10.86-18.72-36.94-25.63-37.22-10-64-26.17-64.07-58.9-.1-29.56,21.44-52.19,58.92-58.35l-.06-18.68a10.88,10.88,0,0,1,10.85-10.91l11,0a10.88,10.88,0,0,1,10.91,10.85l.06,16.77c18,.66,31.14,3.7,41.56,7.32a10.83,10.83,0,0,1,6.8,13l-4.31,16.1a10.84,10.84,0,0,1-14.3,7.37,113.27,113.27,0,0,0-40.76-7.26c-22.24.07-28.57,9.31-28.54,17.57,0,10.17,13.4,17.12,42.35,25.93,41.35,12.26,58.57,29.36,58.67,60.19.09,28.28-20.8,53.78-61.46,60.27l.07,20.89a10.89,10.89,0,0,1-10.85,10.92l-11,0A10.89,10.89,0,0,1,2276.72,1861.37Z" transform="translate(-455.89 -456.16)" fill="#fff"/><path d="M1723.72,1608.64a2.27,2.27,0,0,1-.17-.86l-.35-109a2.4,2.4,0,0,1,2.4-2.41l293.6-1a2.41,2.41,0,0,1,0,4.81l-291.21.93.35,106.55a2.4,2.4,0,0,1-4.64.88Z" transform="translate(-455.89 -456.16)" fill="#fff"/><path d="M2565.16,1991.88a2.48,2.48,0,0,1-.16-.86,2.4,2.4,0,0,1,2.39-2.41l291.22-.94-.35-106.55a2.4,2.4,0,1,1,4.8,0l.36,109a2.44,2.44,0,0,1-.7,1.7,2.41,2.41,0,0,1-1.7.71l-293.61,1A2.41,2.41,0,0,1,2565.16,1991.88Z" transform="translate(-455.89 -456.16)" fill="#fff"/><rect x="1677.89" y="1479.22" width="1203.99" height="565.07" transform="translate(-464.81 -444.55) rotate(-0.29)" fill="url(#linear-gradient-14)"/><path d="M2814.57,1596.49l1.63,321.21c-25.85.13-47.57,24.9-47.43,53.52,0,.91-.08.41,0,4.1l-971.81,4.94c0-3.69.08-3.19.07-4.1-.14-28.62-21.11-52.44-47.39-52.31-.39,0-.75-.68-.75-.68l-1.6-314c44.32-.22,48.19-30.49,48-59.12a4.08,4.08,0,0,0-.56-1.91l971.8-4.94s0,1,.06,1.91C2766.75,1573.76,2788.72,1596.62,2814.57,1596.49Z" transform="translate(-455.89 -456.16)" fill="#fff" opacity="0.5"/><circle cx="2280.22" cy="1760.04" r="176.61" transform="translate(-1032.56 1671.7) rotate(-45)" fill="url(#linear-gradient-15)"/><path d="M2263,1879.27l-.1-18.67c-19.47-.68-38.75-5.18-52.45-11.1a10.8,10.8,0,0,1-6-12.73l4.66-17.41a10.88,10.88,0,0,1,14.74-7.2c13.6,5.61,30.37,10,48.43,9.94,18.75-.1,32.7-6.53,32.64-19.56-.06-11.76-10.9-18.69-37-25.55-37.23-10-64-26-64.18-58.79-.15-29.56,21.35-52.23,58.82-58.46l-.1-18.67a10.89,10.89,0,0,1,10.83-10.94l11-.05a10.88,10.88,0,0,1,10.94,10.82l.08,16.77c18,.63,31.15,3.64,41.57,7.25a10.82,10.82,0,0,1,6.84,13l-4.29,16.11a10.84,10.84,0,0,1-14.28,7.4,113.4,113.4,0,0,0-40.77-7.19c-22.25.12-28.56,9.36-28.52,17.63.05,10.17,13.44,17.09,42.4,25.84,41.38,12.19,58.63,29.26,58.78,60.09.15,28.28-20.7,53.81-61.34,60.38l.1,20.9a10.87,10.87,0,0,1-10.82,10.93l-11,.06A10.89,10.89,0,0,1,2263,1879.27Z" transform="translate(-455.89 -456.16)" fill="#fff"/><path d="M1706.71,1627.66a2.38,2.38,0,0,1-.53-1.49l-.55-109a2.39,2.39,0,0,1,2.39-2.41l297.3-1.52a2.41,2.41,0,0,1,0,4.81l-294.9,1.5.54,106.54a2.4,2.4,0,0,1-2.39,2.42A2.43,2.43,0,0,1,1706.71,1627.66Z" transform="translate(-455.89 -456.16)" fill="#fff"/><path d="M2552.57,2009.31a2.38,2.38,0,0,1-.53-1.49,2.4,2.4,0,0,1,2.38-2.42l291.21-1.48-.54-106.54a2.4,2.4,0,1,1,4.8,0l.56,109a2.4,2.4,0,0,1-.7,1.7,2.36,2.36,0,0,1-1.69.71l-293.61,1.5A2.4,2.4,0,0,1,2552.57,2009.31Z" transform="translate(-455.89 -456.16)" fill="#fff"/><path d="M1969.62,1778a50,50,0,1,1-50.28-49.77A50,50,0,0,1,1969.62,1778Z" transform="translate(-455.89 -456.16)" fill="url(#linear-gradient-16)"/><path d="M2722.27,1774.14c5.4,27.1-22.14,50.14-49.77,50.28a50,50,0,0,1-.51-100.05C2699.62,1724.23,2716.36,1744.45,2722.27,1774.14Z" transform="translate(-455.89 -456.16)" fill="url(#linear-gradient-17)"/><circle cx="2157.87" cy="1182.14" r="113.64" transform="translate(-311.8 2139.67) rotate(-63.78)" fill="url(#linear-gradient-18)"/><circle cx="2157.87" cy="1182.14" r="109.86" transform="translate(-659.76 1415.92) rotate(-45)" fill="url(#linear-gradient-19)"/><path d="M2067.27,1140.77a4.27,4.27,0,0,1-3.8-6.19,105.23,105.23,0,0,1,94.4-58.13,106.31,106.31,0,0,1,19.06,1.72,4.26,4.26,0,1,1-1.53,8.39,98.44,98.44,0,0,0-17.53-1.57,96.74,96.74,0,0,0-86.78,53.43A4.28,4.28,0,0,1,2067.27,1140.77Z" transform="translate(-455.89 -456.16)" fill="#fff"/><circle cx="2160.26" cy="1184.53" r="92.99" transform="translate(-660.75 1418.31) rotate(-45)" fill="#fff" opacity="0.78"/><path d="M2151.14,1253.66v-10.12a82.53,82.53,0,0,1-28.39-6.15,5.86,5.86,0,0,1-3.23-6.91l2.57-9.43a5.91,5.91,0,0,1,8-3.86,68.49,68.49,0,0,0,26.2,5.52c10.16,0,17.74-3.44,17.74-10.5,0-6.37-5.86-10.16-20-14-20.15-5.51-34.61-14.29-34.61-32,0-16,11.71-28.24,32-31.51v-10.11a5.9,5.9,0,0,1,5.9-5.9h5.94a5.9,5.9,0,0,1,5.9,5.9v9.08a75.24,75.24,0,0,1,22.5,4,5.87,5.87,0,0,1,3.66,7.08l-2.36,8.72a5.88,5.88,0,0,1-7.76,4,61.22,61.22,0,0,0-22.07-4c-12.05,0-15.49,5-15.49,9.47,0,5.51,7.23,9.3,22.89,14.12,22.39,6.71,31.68,16,31.68,32.71,0,15.32-11.36,29.09-33.4,32.54v11.32a5.89,5.89,0,0,1-5.89,5.89H2157A5.89,5.89,0,0,1,2151.14,1253.66Z" transform="translate(-455.89 -456.16)" fill="url(#linear-gradient-20)"/><circle cx="2481.36" cy="1047.37" r="197.83" transform="translate(-469.72 1605.19) rotate(-45)" fill="url(#linear-gradient-21)"/><circle cx="2481.36" cy="1047.37" r="191.26" transform="translate(-469.72 1605.19) rotate(-45)" fill="url(#linear-gradient-22)"/><path d="M2323.65,972.19a4.27,4.27,0,0,1-3.81-6.19,180.08,180.08,0,0,1,161.52-99.45,182.1,182.1,0,0,1,32.61,2.94,4.26,4.26,0,1,1-1.52,8.39,174.51,174.51,0,0,0-31.09-2.79,171.57,171.57,0,0,0-153.9,94.76A4.27,4.27,0,0,1,2323.65,972.19Z" transform="translate(-455.89 -456.16)" fill="#fff"/><circle cx="2485.53" cy="1051.54" r="161.87" transform="translate(-471.44 1609.36) rotate(-45)" fill="#fff" opacity="0.78"/><path d="M2469.64,1171.88v-17.61c-18.36-.74-36.52-5.07-49.41-10.72a10.17,10.17,0,0,1-5.63-12l4.47-16.41a10.28,10.28,0,0,1,13.94-6.72,119.09,119.09,0,0,0,45.62,9.61c17.69,0,30.87-6,30.87-18.28,0-11.09-10.19-17.68-34.76-24.28-35.07-9.59-60.25-24.87-60.25-55.75,0-27.87,20.39-49.15,55.75-54.84V947.24A10.27,10.27,0,0,1,2480.5,937h10.35a10.26,10.26,0,0,1,10.26,10.27v15.81c17,.68,29.36,3.58,39.17,7a10.22,10.22,0,0,1,6.38,12.33l-4.11,15.17a10.24,10.24,0,0,1-13.51,6.91,106.81,106.81,0,0,0-38.42-7c-21,0-27,8.69-27,16.48,0,9.59,12.59,16.18,39.86,24.58,39,11.68,55.15,27.87,55.15,56.94,0,26.68-19.78,50.65-58.15,56.65v19.71a10.26,10.26,0,0,1-10.26,10.26H2479.9A10.27,10.27,0,0,1,2469.64,1171.88Z" transform="translate(-455.89 -456.16)" fill="url(#linear-gradient-23)"/><circle cx="2617.8" cy="1489.24" r="203.57" transform="translate(-742.2 1831.09) rotate(-45)" fill="url(#linear-gradient-24)"/><circle cx="2617.8" cy="1489.24" r="196.8" transform="translate(-742.2 1831.09) rotate(-45)" fill="url(#linear-gradient-25)"/><path d="M2455.51,1411.76a4.27,4.27,0,0,1-3.8-6.19,185.15,185.15,0,0,1,166.09-102.26,187.78,187.78,0,0,1,33.54,3,4.27,4.27,0,0,1-1.53,8.4,179.17,179.17,0,0,0-32-2.88,176.67,176.67,0,0,0-158.47,97.57A4.26,4.26,0,0,1,2455.51,1411.76Z" transform="translate(-455.89 -456.16)" fill="#fff"/><circle cx="2622.09" cy="1493.53" r="166.57" transform="translate(-743.98 1835.37) rotate(-45)" fill="#fff" opacity="0.78"/><path d="M2605.74,1617.36v-18.12c-18.89-.76-37.58-5.22-50.85-11a10.47,10.47,0,0,1-5.79-12.38l4.6-16.88a10.57,10.57,0,0,1,14.35-6.91c13.16,5.51,29.41,9.88,46.94,9.88,18.2,0,31.77-6.17,31.77-18.81,0-11.41-10.49-18.2-35.78-25-36.08-9.87-62-25.6-62-57.36,0-28.69,21-50.58,57.37-56.44V1386.2a10.55,10.55,0,0,1,10.56-10.55h10.64a10.55,10.55,0,0,1,10.56,10.55v16.28c17.48.7,30.21,3.69,40.31,7.23a10.51,10.51,0,0,1,6.56,12.69l-4.23,15.61a10.53,10.53,0,0,1-13.9,7.11,109.85,109.85,0,0,0-39.53-7.18c-21.59,0-27.76,9-27.76,17,0,9.86,13,16.65,41,25.28,40.09,12,56.75,28.68,56.75,58.6,0,27.45-20.36,52.12-59.83,58.29v20.28a10.56,10.56,0,0,1-10.56,10.56H2616.3A10.56,10.56,0,0,1,2605.74,1617.36Z" transform="translate(-455.89 -456.16)" fill="url(#linear-gradient-26)"/><circle cx="2423.06" cy="755.78" r="149.15" fill="url(#linear-gradient-27)"/><circle cx="2878.95" cy="1211.94" r="144.19" transform="translate(-469.63 1934.53) rotate(-45)" fill="url(#linear-gradient-28)"/><path d="M2760.05,1156.31a4.11,4.11,0,0,1-1.92-.46,4.26,4.26,0,0,1-1.89-5.73A136.79,136.79,0,0,1,2879,1074.57a138.41,138.41,0,0,1,24.78,2.23,4.27,4.27,0,0,1-1.53,8.4,129.72,129.72,0,0,0-23.25-2.1A128.3,128.3,0,0,0,2763.86,1154,4.27,4.27,0,0,1,2760.05,1156.31Z" transform="translate(-455.89 -456.16)" fill="#fff"/><circle cx="2882.09" cy="1215.08" r="122.04" transform="matrix(0.97, -0.25, 0.25, 0.97, -668.53, 305.63)" fill="#fff" opacity="0.78"/><path d="M2870.11,1305.81v-13.28c-13.84-.55-27.53-3.82-37.25-8.07a7.7,7.7,0,0,1-4.25-9.08L2832,1263a7.74,7.74,0,0,1,10.51-5.07,89.91,89.91,0,0,0,34.39,7.24c13.34,0,23.28-4.52,23.28-13.78,0-8.36-7.68-13.33-26.21-18.3-26.44-7.23-45.42-18.76-45.42-42,0-21,15.36-37.06,42-41.35v-13.28a7.73,7.73,0,0,1,7.73-7.74h7.8a7.73,7.73,0,0,1,7.74,7.74v11.92a98.64,98.64,0,0,1,29.53,5.3,7.71,7.71,0,0,1,4.81,9.3l-3.1,11.43a7.71,7.71,0,0,1-10.18,5.21,80.79,80.79,0,0,0-29-5.25c-15.82,0-20.33,6.55-20.33,12.42,0,7.23,9.49,12.21,30.05,18.53,29.37,8.82,41.58,21,41.58,42.94,0,20.11-14.92,38.18-43.84,42.7v14.86a7.74,7.74,0,0,1-7.74,7.74h-7.8A7.75,7.75,0,0,1,2870.11,1305.81Z" transform="translate(-455.89 -456.16)" fill="url(#linear-gradient-29)"/><path d="M1045,3177.36c-31.1,2.69-85.06,7.06-127.6,8.93-25.57,1.12-40.29-1.38-48.77-4.78,0,1,0,1.86.08,2.7a8.79,8.79,0,0,0,8.36,8.31,1492.56,1492.56,0,0,0,167.07.17,6.26,6.26,0,0,0,5.1-9.41A51.45,51.45,0,0,0,1045,3177.36Z" transform="translate(-455.89 -456.16)" fill="url(#linear-gradient-30)"/><path d="M917.38,3186.29c42.54-1.87,96.5-6.24,127.6-8.93-30.57-37.5-127.6-62.78-127.6-62.78H890c-18.85,27.17-21.58,53-21.37,66.93C877.09,3184.91,891.81,3187.41,917.38,3186.29Z" transform="translate(-455.89 -456.16)" fill="url(#linear-gradient-31)"/><path d="M885.36,3069.84l2.57,50.75a11.6,11.6,0,0,0,9.89,10.9,45.13,45.13,0,0,0,20.59-1.71,13.7,13.7,0,0,0,9.21-10.54l8.87-49.4Z" transform="translate(-455.89 -456.16)" fill="url(#linear-gradient-32)"/><path d="M567.31,3235.9c-13.48-2.43-19.58-11.48-22.14-21.16l0,.26a24.13,24.13,0,0,0,11.81,25.82c11.11,6.08,23.26,7.12,32.7,6.62a30.22,30.22,0,0,0,24.51-14.62l.08-.13C604.06,3239.19,589.8,3240,567.31,3235.9Z" transform="translate(-455.89 -456.16)" fill="url(#linear-gradient-33)"/><path d="M630.88,3085.48H608.29c-34.43-.91-56,92.92-63.12,129.26,2.56,9.68,8.66,18.73,22.14,21.16,22.49,4.06,36.75,3.29,46.91-3.21,18.59-31.62,27.81-78,32.25-105C651.51,3097,630.88,3085.48,630.88,3085.48Z" transform="translate(-455.89 -456.16)" fill="url(#linear-gradient-34)"/><path d="M611.19,3038.38l-12.55,49.91a13.54,13.54,0,0,0,7.05,15.35c7,3.6,16.9,7.39,26,6.29a11.31,11.31,0,0,0,9.23-7.54l18.42-52.52Z" transform="translate(-455.89 -456.16)" fill="url(#linear-gradient-35)"/><path d="M1052.63,2381s-112.14,701-110.3,704.84c0,0-31,14.08-64.73,1.8,0,0,10.14-374.73,33.9-518.41,0,0-191.39,334.93-252.17,501.82,0,0-31.7-3.78-57.94-21.05,0,0,206.08-602.86,261.05-683.16Z" transform="translate(-455.89 -456.16)" fill="url(#linear-gradient-36)"/><path d="M916,2565.6a3.31,3.31,0,0,1-2.81-5.07l41.91-66.94a3.31,3.31,0,0,1,2.15-1.49l30.84-6.21a3.32,3.32,0,1,1,1.31,6.5l-29.44,5.93L918.79,2564A3.31,3.31,0,0,1,916,2565.6Z" transform="translate(-455.89 -456.16)" fill="url(#linear-gradient-37)"/><path d="M1567.25,1694.6s-75.67,16.69-121.7,37.94a42.06,42.06,0,0,0-20.59,20.7c-13.76,30.15-55,105.77-134.81,141.85,11.5,15.27,30,47,38.09,100.4,48-35.71,89.38-95.33,109.26-193.12,0,0,15.14,8.23,34-.95,10-4.84,21.5-11.72,30.15-17.12a39.54,39.54,0,0,0,17.53-23.54c3.29-12.92,1.35-24.27,1.35-36.45l38.9-12S1571.15,1707.84,1567.25,1694.6Z" transform="translate(-455.89 -456.16)" fill="url(#linear-gradient-38)"/><path d="M1328.24,1995.49c-8.07-53.38-26.59-85.13-38.09-100.4-49.62,22.42-114.16,29.58-196.35,1.1a87.48,87.48,0,0,0-23.49-4.63c-43.75-2.56-187.93-7.24-307.23,32.17a92.73,92.73,0,0,0-55.93,50.91c-32.27,74.06-84.52,242.73,60.53,327.88a359.32,359.32,0,0,1,35-66.25c-23.36-39.4-30.28-93.21,11.17-163.29,30.23,81.61,44.41,200.7,47.37,253.4a113.33,113.33,0,0,1-8.88,50.69l-.74,1.75a6,6,0,0,0,4.21,8.19c81.66,18.34,166.59,13.36,192,11.26a10.47,10.47,0,0,0,9.34-8c39.7-167.31,39.79-281.44,30.07-353.59C1124.34,2045,1237.92,2062.71,1328.24,1995.49Z" transform="translate(-455.89 -456.16)" fill="url(#linear-gradient-39)"/><path d="M1087.35,2041.19a3.32,3.32,0,0,1-3.28-2.88c-9.32-70.44-28.31-101.18-28.5-101.49a3.31,3.31,0,1,1,5.59-3.54c.81,1.27,19.94,32,29.48,104.16a3.31,3.31,0,0,1-2.85,3.72A3.25,3.25,0,0,1,1087.35,2041.19Z" transform="translate(-455.89 -456.16)" fill="#eeaa4e"/><path d="M885.84,1794.1s-8.26,87.34-15.54,113.18a8.83,8.83,0,0,0,4.16,10.08c12.35,7.06,41.95,18.56,82.45-1.29a18.36,18.36,0,0,0,10.2-17.29l-3.57-84.4Z" transform="translate(-455.89 -456.16)" fill="url(#linear-gradient-40)"/><path d="M965.33,1682.36s26.42,60.69,28.19,92.55,8.64,52.53-28.19,58.94-67.87-11.93-84.68-43.67c0,0-26.34-48.89-20.43-68.92S965.33,1682.36,965.33,1682.36Z" transform="translate(-455.89 -456.16)" fill="url(#linear-gradient-41)"/><path d="M893.24,1767.37l2.09-.93a5,5,0,0,0,2.47-6.94c-5.19-10-15.32-33-2.23-38.4,16.85-6.91,83.63-20.53,98-44.23,13.85-22.77,1.58-52.17-16.86-60.53a2.54,2.54,0,0,0-3.32,1.09l-1.54,2.9a2.51,2.51,0,0,1-4.62-.47,2.49,2.49,0,0,0-4.5-.65c-4.43,7.09-16.39,18.58-48.36,24.49-45.45,8.38-75.49,26.77-76.24,58.17a2.5,2.5,0,0,1-3.87,2.07c-3.36-2-8.73-3-15.9,3-12.48,10.49-7.37,37.71,20,60.1a2.49,2.49,0,0,1-.11,4c-5,3.23-12.36,10.91,6.8,21.15,19.82,10.6,34.61,9.73,40.31,8.79a2.49,2.49,0,0,0,2-3l-6.08-27.6a2.51,2.51,0,0,1,2.44-3Z" transform="translate(-455.89 -456.16)" fill="url(#linear-gradient-42)"/><path d="M894.38,1773.19s-10.08-38.77-27.46-27.9,9,43.44,23,44.89Z" transform="translate(-455.89 -456.16)" fill="url(#linear-gradient-43)"/><path d="M1457.68,1793.35a3.23,3.23,0,0,1-2.08-.75,3.29,3.29,0,0,1-.48-4.65c2.86-3.53,28.25-34.57,38-40.1,3.56-2,5.68-4.09,6.13-6a4.85,4.85,0,0,0-.45-3.12l-29.83,6-16.91,14.5a3.31,3.31,0,1,1-4.31-5l17.56-15.07a3.41,3.41,0,0,1,1.5-.74l33-6.62a3.32,3.32,0,0,1,3.4,1.4c2.42,3.59,3.22,6.93,2.44,10.21-.91,3.86-4,7.22-9.32,10.25-7.35,4.16-28.59,29.21-36.16,38.51A3.3,3.3,0,0,1,1457.68,1793.35Z" transform="translate(-455.89 -456.16)" fill="#f8a570"/><path d="M893.1,2344.49l116.79,1.45L969,2307.46a30.5,30.5,0,0,0-37.39-3.5,88.49,88.49,0,0,0-20.77,18.5s-72.85-26.62-108.16-86.19a359.32,359.32,0,0,0-35,66.25C799.34,2321.1,840.38,2335.72,893.1,2344.49Z" transform="translate(-455.89 -456.16)" fill="url(#linear-gradient-44)"/><path d="M905.68,2359.56h.68l296.46-.32a13.13,13.13,0,1,0,0-26.26l-296.46.32a13.13,13.13,0,0,0-.65,26.25Z" transform="translate(-455.89 -456.16)" fill="url(#linear-gradient-45)"/><path d="M1469.32,2093.24H1222.43a47.1,47.1,0,0,0-42.56,26.7L1065.73,2359.4h306.82a28.61,28.61,0,0,0,26.6-17.9l88.5-221.58A19.53,19.53,0,0,0,1469.32,2093.24Z" transform="translate(-455.89 -456.16)" fill="url(#linear-gradient-46)"/><ellipse cx="1313.9" cy="2221.91" rx="31.32" ry="19.43" transform="translate(-1663.53 2318.08) rotate(-71.76)" fill="url(#linear-gradient-47)"/><path d="M2695,1681.55s13.36,372.75,294.28,419.6l50.43-49.79s-253-123.15-308.54-331.23l18.53-30.66,10.35-50.1C2734.72,1661,2710.88,1679.55,2695,1681.55Z" transform="translate(-455.89 -456.16)" fill="url(#linear-gradient-48)"/><path d="M2973.8,2702.51S3107.08,2993,3177,3113.31c0,0,13.89,75.7,0,99.51l-11.84,5.26,55.24-1.64s4.91-101.83,1.08-107.52-11.5-5.32-11.5-5.32-23.69-187.65-92.28-227.7l-66.48-229Z" transform="translate(-455.89 -456.16)" fill="url(#linear-gradient-49)"/><path d="M3141.58,3232.34c-.08,1.34,43.13.73,66.61.3a18.66,18.66,0,0,0,17.9-14.72l17.73-93.14a16.74,16.74,0,0,0-12.72-19.46l-9.89-2.26s-14.12,19.36-9.67,37.59,8.39,65.46-2.84,71-43.53,6.46-43.53,6.46S3142.32,3220.35,3141.58,3232.34Z" transform="translate(-455.89 -456.16)" fill="url(#linear-gradient-50)"/><path d="M2847.48,3234a4.88,4.88,0,0,0,2.46,9.12c39.29-.4,127.32-1.64,135.14-4.89,10.1-4.2-3.68-40.49-18.18-52.78l-80.07,26.14Z" transform="translate(-455.89 -456.16)" fill="url(#linear-gradient-51)"/><path d="M2822.62,2684s86.13,416.66,110.5,497.93l-57.64,36.17s28.88-4.91,50.3-6.46,41.12-26.14,41.12-26.14l-6.91-11s-21.59-414.38-16.34-461.44Z" transform="translate(-455.89 -456.16)" fill="url(#linear-gradient-52)"/><path d="M2608.83,1712.14s-11.88,216.74,185.44,327.49L2746.77,2148s-178.66-108.06-172.05-402.77a34.21,34.21,0,0,0-8.39-23.08l-38-44.05a68.18,68.18,0,0,1-14.49-61l5-20a10.36,10.36,0,0,1,15.25-6.44l4,2.31a69.71,69.71,0,0,1,28.62,31.81l18.65,41.68a40,40,0,0,0,40,23.55l11.53-1Z" transform="translate(-455.89 -456.16)" fill="url(#linear-gradient-53)"/><path d="M2787.41,2023.39c33,9.16,144.85,38.58,214.67,37.38l-42.87,241.91,3.41,39.46-139.77-.63s-39.34-91.38-70.38-136.93c-9-13.16-2.3-28.86,2.78-43.95l-7-4.64a19,19,0,0,1-7.53-21.73l34-104.14A10.4,10.4,0,0,1,2787.41,2023.39Z" transform="translate(-455.89 -456.16)" fill="url(#linear-gradient-54)"/><path d="M2811.66,2320.86l2.74,23.91s-39.49,118.29,19.75,394.57c0,0,128.32,36.35,233.79-50.64,0,0-29.75-260.76-37.88-272.91-40.47-60.5-67.44-73.65-67.44-73.65l-1.21-26.12S2848.61,2336.42,2811.66,2320.86Z" transform="translate(-455.89 -456.16)" fill="url(#linear-gradient-55)"/><path d="M2866.37,2042.89c-.49-.65,29.18-89.58,29.18-89.58l42.5,3.86,16.6,100.88S2888,2071.5,2866.37,2042.89Z" transform="translate(-455.89 -456.16)" fill="url(#linear-gradient-56)"/><path d="M2927.87,1813.07c-2.83,1.76-90.81,38.12-71.91,129.46a17.17,17.17,0,0,0,9.75,12.22c12.91,5.76,40.71,15.62,73.95,12.24,46.1-4.68,76.3-85.11,75-108.52S2956,1795.58,2927.87,1813.07Z" transform="translate(-455.89 -456.16)" fill="url(#linear-gradient-57)"/><path d="M2954.65,1777.55c-2.31.31-50.84,17.21-26.78,52.38s33.1,55.87,21.71,71.31c-10.37,14.07-33.34,6-31.34,35.32a16.4,16.4,0,0,1-7,14.84c-21.65,14.65-74.47,59.76-22.14,124.08a16.4,16.4,0,0,1,1.85,18.34c-15.33,27.49-47.52,108,69,152.69,115.18,44.15,156.76-31.14,168.38-61.23a16.07,16.07,0,0,1,15.89-10.17c12.66.6,30.59-1.5,29.77-18.42-.5-10.27-6.91-19.47-14.49-26.86s-6-20.09,3.09-25.26c6.87-3.91,13-10,15.52-19.52,7-25.87-7-103.2-81.08-116.31-6.18-1.09-12.66-6.89-13.56-13.1,0-.1,0-.19,0-.28-1-6,1-12.16,6-15.76,11.84-8.68,27-26.16,14.69-54.2-10.94-24.86-31.91-33.25-47.49-35.92a16.15,16.15,0,0,1-13.23-19.3C3048.64,1805.45,3044.06,1765.83,2954.65,1777.55Z" transform="translate(-455.89 -456.16)" fill="url(#linear-gradient-58)"/></g></g></svg>